SplineFontDB: 3.0
FontName: Manjari
FullName: Manjari
FamilyName: Manjari
Weight: Book
Copyright: Digitized data copyright (c) 2014, Santhosh Thottingal, Kavya Manohar,\nSwathanthra Malayalam Computing(http://smc.org.in)
Version: 1.0.0-alpha.20150905
ItalicAngle: 0
UnderlinePosition: -600
UnderlineWidth: 100
Ascent: 1434
Descent: 614
InvalidEm: 0
sfntRevision: 0x00060000
LayerCount: 2
Layer: 0 0 "Back" 1
Layer: 1 0 "Fore" 0
XUID: [1021 348 -393509193 4873957]
FSType: 0
OS2Version: 1
OS2_WeightWidthSlopeOnly: 0
OS2_UseTypoMetrics: 1
CreationTime: 1201144287
ModificationTime: 1443260948
PfmFamily: 17
TTFWeight: 400
TTFWidth: 5
LineGap: 0
VLineGap: 0
Panose: 2 0 5 3 0 0 0 0 0 0
OS2TypoAscent: 1434
OS2TypoAOffset: 0
OS2TypoDescent: -614
OS2TypoDOffset: 0
OS2TypoLinegap: 0
OS2WinAscent: 1465
OS2WinAOffset: 0
OS2WinDescent: 1414
OS2WinDOffset: 0
HheadAscent: 1465
HheadAOffset: 0
HheadDescent: -1414
HheadDOffset: 0
OS2SubXSize: 1331
OS2SubYSize: 1433
OS2SubXOff: 274
OS2SubYOff: 286
OS2SupXSize: 1331
OS2SupYSize: 1433
OS2SupXOff: -944
OS2SupYOff: 983
OS2StrikeYSize: 102
OS2StrikeYPos: 530
OS2Vendor: 'SMC '
OS2CodePages: 00000001.00000000
OS2UnicodeRanges: 80800003.00002000.00000000.00000000
MarkAttachClasses: 1
DEI: 91125
LangName: 1100 "" "" "" "" "" "" "" "" "" "" "" "" "" "" "" "" "" "" "+DS4NHg1NDRwNMA0/"

StartChar: .notdef
Encoding: 175 -1 0
Width: 692
GlyphClass: 2
Flags: HW
LayerCount: 2
Fore
SplineSet
45 1 m 1
 45 1119 l 1
 606 1119 l 1
 606 1 l 1
 45 1 l 1
102 55 m 1
 552 55 l 1
 552 1063 l 1
 102 1063 l 1
 102 55 l 1
EndSplineSet
EndChar

StartChar: exclam
Encoding: 1 33 4
Width: 445
GlyphClass: 2
Flags: HW
LayerCount: 2
Fore
SplineSet
159.508789062 1123.7890625 m 1
 162.38584076 1153.86857523 186.409577994 1185.96191406 217.678710938 1185.96191406 c 128
 247.65008509 1185.96191406 271.375769355 1157.7274937 276.50390625 1131.875 c 0
 323.802083333 907.800130208 343.254394531 716.861165364 334.860839844 559.058105469 c 128
 326.467285156 401.255045573 287.704915364 321.768391927 218.573730469 320.598144531 c 128
 149.442545573 319.427897136 110.582356771 397.475911459 101.993164062 554.7421875 c 128
 93.4046223957 712.008463541 112.576497396 901.690755208 159.508789062 1123.7890625 c 1
274.416015625 206.87109375 m 0
 328.285807292 123.534505208 351.574869792 49.65234375 344.283203125 -14.775390625 c 0
 334.314232442 -102.855685448 240.855183897 -174.196243518 165.403320312 -101.483398438 c 128
 90.2405434357 -29.0513351095 112.553818641 87.9743288309 174.1953125 198.279296875 c 0
 185.39878573 222.94140625 201.932075912 235.272460938 223.795183047 235.272460938 c 128
 245.658290182 235.272460938 262.531901042 225.805338542 274.416015625 206.87109375 c 0
EndSplineSet
EndChar

StartChar: numbersign
Encoding: 3 35 6
Width: 942
GlyphClass: 2
Flags: HW
LayerCount: 2
Fore
SplineSet
807 781 m 1
 746 450 l 1
 938 450 l 1
 938 349 l 1
 728 349 l 1
 659 -28 l 1
 544 -28 l 1
 612 349 l 1
 366 349 l 1
 296 -28 l 1
 183 -28 l 1
 251 349 l 1
 68 349 l 1
 68 450 l 1
 272 450 l 1
 330 781 l 1
 134 781 l 1
 134 882 l 1
 350 882 l 1
 413 1231 l 1
 530 1231 l 1
 462 882 l 1
 711 882 l 1
 774 1231 l 1
 891 1231 l 1
 824 882 l 1
 996 882 l 1
 996 781 l 1
 807 781 l 1
446 781 m 1
 384 450 l 1
 633 450 l 1
 692 781 l 1
 446 781 l 1
EndSplineSet
EndChar

StartChar: dollar
Encoding: 4 36 7
Width: 1120
GlyphClass: 2
Flags: HW
LayerCount: 2
Fore
SplineSet
483.536132812 1364.9921875 m 4
 483.536132812 1405.89987331 517.569614555 1440 558.544921875 1440 c 4
 599.612331553 1440 633.551757812 1406.05799269 633.551757812 1364.9921875 c 4
 633.551757812 1364.74414063 633.550455729 1364.46647136 633.547851562 1364.15917969 c 6
 633.614257812 1342.44042969 l 5
 802.289772281 1337.77740087 911.054116268 1283.64427032 960.747070312 1163.02441406 c 4
 992.211122227 1086.65088224 996.03796896 954.8671875 902.120117188 954.8671875 c 4
 859.528972672 954.8671875 827.112304688 987.283122708 827.112304688 1029.87402344 c 4
 827.112304688 1058.6656947 833.232266517 1078.76111914 822.057617188 1105.88574219 c 132
 794.882004815 1171.8515836 728.763292084 1189.32982118 634.069335938 1192.35058594 c 5
 635.458007812 735.397460938 l 5
 812.849342171 677.171075463 963.511512777 563.120594509 1008.97753906 383.1171875 c 4
 1045.17468383 239.800024314 994.663244246 125.320117401 920.329101562 56.7158203125 c 4
 851.124424403 -7.14942729698 768.389415979 -35.0161504412 637.791992188 -32.3349609375 c 5
 638.077148438 -126.063476562 l 6
 638.084309896 -126.489908854 638.087890625 -126.911132813 638.087890625 -127.327148438 c 4
 638.087890625 -168.395366637 604.146404802 -202.334960938 563.080078125 -202.334960938 c 132
 522.012568443 -202.334960938 488.072265625 -168.394177236 488.072265625 -127.327148438 c 6
 487.770507812 -25.7568359375 l 5
 293.426388658 -8.55951480332 160.645455273 83.0272611298 104.829101562 237.604492188 c 4
 101.609700521 246.136393229 100 254.962565104 100 264.083007812 c 4
 100 305.150417488 133.942007309 339.08984375 175.0078125 339.08984375 c 4
 208.993491986 339.08984375 237.017665594 314.326042252 245.913085938 288.547851562 c 4
 266.437426127 231.707113226 313.748057536 182.519768159 366.569335938 156.670898438 c 4
 397.665039063 141.453450521 437.912434896 131.041341145 487.311523438 125.434570312 c 5
 485.797851562 623.174804688 l 5
 356.363047722 661.835290461 247.001758545 717.634822183 185.5859375 799.098632812 c 4
 85.315235435 932.10495081 102.400010375 1111.43215412 209.831054688 1224.31542969 c 4
 275.822452104 1293.65812994 362.893364907 1333.64771191 483.612304688 1342.39746094 c 5
 483.547851562 1363.70410156 l 6
 483.540039062 1364.11035156 483.536132812 1364.53971354 483.536132812 1364.9921875 c 4
484.071289062 1191.73339844 m 5
 370.039598223 1181.36497839 275.072449272 1119.49192308 268.811523438 1007.72167969 c 4
 266.382486979 964.381184897 278.566080729 924.939127604 305.362304688 889.395507812 c 4
 339.045049092 844.716380528 403.032702189 807.320646083 485.321289062 780.489257812 c 5
 484.071289062 1191.73339844 l 5
635.944335938 575.791992188 m 5
 637.336914062 117.780273438 l 5
 762.479018656 115.457562424 841.271401438 149.829128662 865.284179688 246.723632812 c 4
 873.020507813 277.940429687 872.440429687 311.160481771 863.543945312 346.383789062 c 4
 835.692132279 456.648583916 741.518343997 534.054490509 635.944335938 575.791992188 c 5
EndSplineSet
EndChar

StartChar: percent
Encoding: 5 37 8
Width: 1485
GlyphClass: 2
Flags: HW
LayerCount: 2
Fore
SplineSet
899 264 m 0
 899 425.895379388 1030.78776583 558 1193 558 c 128
 1355.88895259 558 1481.83843452 427.58354247 1482.5 265.5 c 128
 1483.16060847 103.650923743 1351.55413525 -30 1190 -30 c 128
 1027.99104853 -30 900.31808061 103.19416552 899 264 c 0
505 -30 m 1
 413 -30 l 1
 1105 1251 l 1
 1196 1251 l 1
 505 -30 l 1
709 913 m 128
 709 751.609897629 577.385609602 620 416 620 c 128
 253.500569155 620 125 749.909965644 125 913 c 128
 125 1076.63086757 253.671212436 1206 417 1206 c 128
 579.27282935 1206 709 1074.92002338 709 913 c 128
1384 265 m 128
 1384 371.338426624 1297.65704797 458 1191 458 c 128
 1083.75551764 458 1000 373.215679348 1000 266 c 128
 1000 159.313808387 1083.58803021 74 1190 74 c 128
 1295.78088736 74 1384 159.143798007 1384 265 c 128
608 913 m 128
 608 1019.31701915 523.714548537 1107 417 1107 c 128
 310.280345928 1107 226 1019.31645475 226 913 c 128
 226 806.586334311 310.290985807 723 417 723 c 128
 523.714145637 723 608 806.586639783 608 913 c 128
EndSplineSet
EndChar

StartChar: ampersand
Encoding: 6 38 9
Width: 1216
GlyphClass: 2
Flags: HW
LayerCount: 2
Fore
SplineSet
1116 55 m 132
 1116 16.7729786585 1082.70655008 -13 1043 -13 c 132
 1021.66666667 -13 1003.5 -3 988.5 17 c 4
 937.5 85 896 139 864 179 c 5
 781.390113452 79.224422741 659.294275435 -2.9685410358 501.5 -5.5 c 132
 358.955277001 -7.78681373795 246.867519082 59.7829673151 179.5 145 c 132
 106.094914349 237.854296379 73.9538295406 368.008862726 127 509 c 4
 162.333333333 603 255.333333333 690.666666667 406 772 c 5
 386.634375046 799.111874935 354.437836872 836.477221388 329 871 c 4
 232.302419361 1004.81382371 232.341376025 1164.77225674 326 1273 c 4
 395.333333333 1353.66666667 481.666666667 1389 585 1379 c 4
 739.702513628 1364.69976765 863.386684072 1233.68054826 858 1064 c 4
 854 935.333333333 773.333333333 823.333333333 616 728 c 5
 707.333333333 610.666666667 784 511.666666667 846 431 c 5
 870 498.333333333 883.333333333 569 886 643 c 4
 887.311132684 679.711715141 918.549567139 712 956.5 712 c 132
 986.959853274 712 1026 682.361743725 1026 655 c 4
 1026 531 999 414 945 304 c 5
 1048.33333333 170 1102.66666667 99.5 1108 92.5 c 132
 1113.33333333 85.5 1116 73 1116 55 c 132
718 1075 m 4
 720.533277475 1154.79824047 655.589329784 1232.49312848 584 1238 c 4
 502.666666667 1245.33333333 446 1217 414 1153 c 4
 395.333333333 1115.66666667 390.350632069 1079.43013972 399.051896208 1044.29041916 c 132
 407.753160346 1009.1506986 451.402528277 941.053892215 530 840 c 5
 652.666666667 912.666666667 715.333333333 991 718 1075 c 4
493 659 m 5
 437 629 395.333333333 604 368 584 c 4
 269.333333333 511.333333333 227.333333333 431.5 242 344.5 c 132
 256.666666667 257.5 303.166666667 196 381.5 160 c 132
 548.419832779 83.2879066376 705.619185444 195.374999164 776 293 c 5
 685.333333333 411 591 533 493 659 c 5
EndSplineSet
EndChar

StartChar: quotesingle
Encoding: 7 39 10
Width: 382
GlyphClass: 2
Flags: HW
LayerCount: 2
Fore
SplineSet
185 957 m 132
 144.00534699 957 110 992.032682971 110 1033 c 5
 100 1351 l 5
 100 1392.32837086 145.590557248 1425.8725842 187 1426.5 c 132
 228.871627672 1427.1344186 283.355801362 1392.02984221 282 1350 c 5
 260 1033 l 5
 260 992.031399323 225.993461051 957 185 957 c 132
EndSplineSet
EndChar

StartChar: parenleft
Encoding: 8 40 11
Width: 705
GlyphClass: 2
Flags: HW
LayerCount: 2
Fore
SplineSet
606 -276.5 m 128
 606 -319.269408952 574.135670927 -355 533 -355 c 128
 513.666666667 -355 497.333333333 -349.333333333 484 -338 c 0
 277.556243468 -178.842243567 100 99.305732498 100 440.5 c 128
 100 780.72813754 273.447291559 1058.51822732 478 1218 c 0
 491.333333333 1229.33333333 507.666666667 1235 527 1235 c 128
 567.873064548 1235 600 1199.34951452 600 1157 c 128
 600 1134.33333333 590 1115.33333333 570 1100 c 0
 399.167511742 966.10426596 250 726.144570561 250 441 c 128
 250 155.315876492 402.660506912 -86.7241253451 575 -220 c 0
 595.666666667 -234.666666667 606 -253.5 606 -276.5 c 128
EndSplineSet
EndChar

StartChar: asterisk
Encoding: 10 42 13
Width: 955
GlyphClass: 2
Flags: HW
LayerCount: 2
Fore
SplineSet
1.255859375 1235.97791297 m 128
 1.255859375 1275.91904768 29.1879757545 1312.00585938 66.6294493698 1312.00585938 c 128
 83.1882140021 1312.00585938 97.1681761915 1308.41601563 108.569335938 1301.23632812 c 2
 414.743164062 1114.39648438 l 1
 411.327148438 1362.03710938 l 2
 411.308919271 1362.66715495 411.299804688 1367.84383133 411.299804688 1377.56713852 c 128
 411.299804688 1404.05389098 450.990004147 1434 481.123255793 1434 c 128
 519.604649225 1434 551.313476562 1402.41961 551.313476562 1363.99316406 c 2
 554.745117188 1115.1875 l 1
 847.196289062 1301.97460938 l 2
 858.878967046 1309.67252605 873.048537909 1313.52148438 889.705001652 1313.52148438 c 128
 919.689992548 1313.52148438 955.713867188 1281.31474675 955.713867188 1252.7116657 c 0
 955.713867188 1220.58071445 944.660481771 1197.67291964 922.553710938 1183.98828125 c 2
 618.711914062 989.92578125 l 1
 921.543945312 805.125 l 2
 944.494466145 791.580430328 955.969726562 773.31534097 955.969726562 750.329731926 c 128
 955.969726562 709.977399269 927.901457569 674.827148438 890.337664072 674.827148438 c 128
 873.932402359 674.827148438 860.025251315 678.425130209 848.616210938 685.62109375 c 2
 558.225585938 862.830078125 l 1
 562.551757812 549.099609375 l 2
 562.569986979 548.42391493 562.579101562 543.096584744 562.579101562 533.117618815 c 128
 562.579101562 506.461522585 522.715418851 477.125 492.572265625 477.125 c 128
 454.241844535 477.125 422.564453125 508.802679488 422.564453125 547.131835938 c 2
 418.225585938 861.876953125 l 1
 108.571289062 664.1015625 l 2
 96.8748337331 656.382161459 82.6928667108 652.522460938 66.0253879952 652.522460938 c 128
 28.3767103518 652.522460938 0 687.375670434 0 727.558007742 c 128
 0 750.232258997 11.0712890625 768.408886625 33.2138671875 782.087890625 c 2
 354.387695312 987.220703125 l 1
 35.6435546875 1181.73046875 l 2
 12.7184244792 1195.27938818 1.255859375 1213.36186958 1.255859375 1235.97791297 c 128
EndSplineSet
EndChar

StartChar: plus
Encoding: 11 43 14
Width: 1050
GlyphClass: 2
Flags: HW
LayerCount: 2
Fore
SplineSet
577 373 m 1
 577 0 l 1
 473 0 l 1
 473 373 l 1
 100 373 l 1
 100 477 l 1
 473 477 l 1
 473 850 l 1
 577 850 l 1
 577 477 l 1
 950 477 l 1
 950 373 l 1
 577 373 l 1
EndSplineSet
EndChar

StartChar: comma
Encoding: 12 44 15
Width: 506
GlyphClass: 2
Flags: HW
LayerCount: 2
Fore
SplineSet
100 139 m 132
 100 211.183156425 162.495611441 283 231 283 c 132
 262.333333333 283 288.333333333 277.666666667 309 267 c 4
 404.333333333 216.333333333 429.666666667 118 385 -28 c 4
 351.666666667 -137.333333333 293.666666667 -219.333333333 211 -274 c 4
 159.049196363 -308.633869092 102 -267.009915357 102 -212.5 c 132
 102 -190.166666667 113.666666667 -171 137 -155 c 4
 190.333333333 -119.666666667 226.666666667 -69.6666666667 246 -5 c 5
 245 -5 245 -5 244 -5 c 4
 164.625255981 -5 100 59.6274565214 100 139 c 132
EndSplineSet
EndChar

StartChar: hyphen
Encoding: 13 45 16
Width: 618
GlyphClass: 2
Flags: HW
LayerCount: 2
Fore
SplineSet
100 368 m 1
 100 494 l 1
 518 494 l 1
 518 368 l 1
 100 368 l 1
EndSplineSet
EndChar

StartChar: period
Encoding: 14 46 17
Width: 489
GlyphClass: 2
Flags: HW
LayerCount: 2
Fore
SplineSet
244.5 -4 m 128
 166.578931157 -4 100 58.1118562842 100 135.5 c 128
 100 212.885308104 166.58669524 275 244.5 275 c 128
 322.421068843 275 389 212.888143716 389 135.5 c 128
 389 58.1146918959 322.41330476 -4 244.5 -4 c 128
EndSplineSet
EndChar

StartChar: slash
Encoding: 15 47 18
Width: 572
GlyphClass: 2
Flags: HW
LayerCount: 2
Fore
SplineSet
211 1 m 1
 74 1 l 1
 501 1317 l 1
 638 1317 l 1
 211 1 l 1
EndSplineSet
EndChar

StartChar: zero
Encoding: 16 48 19
Width: 1219
GlyphClass: 2
Flags: HW
LayerCount: 2
Fore
SplineSet
606.07477411 -24.6146034245 m 4
 254.263488484 -24.6146034245 99.963742203 319.175830624 99.963742203 680.123341566 c 4
 99.963742203 1045.62364438 256.971037084 1379.30847216 607 1385 c 5
 624 1385 l 5
 967.490945903 1377.01183847 1119.15786673 1044.18717702 1119.15786673 688.477570406 c 4
 1119.15786673 312.395225629 963.128692664 -24.6146034245 606.07477411 -24.6146034245 c 4
609.5 125 m 132
 871.109930384 125 969.205834744 404.28805938 969.205834744 696.183224517 c 4
 969.205834744 971.005015163 867.794089463 1234.83510535 612.999656542 1234.83510535 c 4
 352.856009014 1234.83510535 249.952593504 968.033020074 249.952593504 682.275922389 c 4
 249.952593504 394.454160138 349.786915314 125 609.5 125 c 132
EndSplineSet
EndChar

StartChar: one
Encoding: 17 49 20
Width: 772
GlyphClass: 2
Flags: HW
LayerCount: 2
Fore
SplineSet
166.5 1033 m 132
 138.713468828 1033 103 1072.07124205 103 1101 c 132
 103 1135.88748673 124.421615865 1173.88432317 155 1180 c 4
 218.333333333 1192 276.333333333 1246.66666667 329 1344 c 4
 344.333333333 1372.66666667 364.833333333 1387 390.5 1387 c 132
 437.634000515 1387 473 1356.82634038 473 1312 c 6
 472 136 l 5
 544 136 544 136 616 136 c 4
 642.691166731 136 672 96.1775276993 672 66 c 132
 672 27.645961324 640.352938406 -4 602 -4 c 4
 386 -4 386 -4 170 -4 c 4
 131.645961324 -4 100 27.647061594 100 66 c 132
 100 96.2225391979 129.2639969 136 156 136 c 4
 239 136 239 136 322 136 c 5
 322 1098 l 5
 286.666666667 1068.66666667 244 1047.66666667 194 1035 c 4
 188.666666667 1033.66666667 179.5 1033 166.5 1033 c 132
EndSplineSet
EndChar

StartChar: two
Encoding: 18 50 21
Width: 1115
GlyphClass: 2
Flags: HW
LayerCount: 2
Fore
SplineSet
1016 81 m 132
 1016 35.083597239 985.086379987 0 941 -0 c 6
 175 -0 l 6
 132.438464648 0 100 34.5421938858 100 78 c 132
 100 100.666666667 110 119.666666667 130 135 c 4
 382.025730452 325.692034988 807.399991727 570.654911998 807.399991727 929.06678287 c 4
 807.399991727 1095.53264764 690.423151027 1235.05495062 521.894597452 1235.05495062 c 4
 406.727120555 1235.05495062 300.010418777 1156.82061052 275 1054 c 4
 263 1007.33333333 237.333333333 984 198 984 c 4
 162.66418765 984 123 1016.18754693 123 1049 c 132
 123 1063 124 1073.33333333 126 1080 c 4
 169.617149859 1241.86808947 315.44723903 1385.26140906 520.548503808 1385.26140906 c 4
 774.131550064 1385.26140906 959.830508475 1179.1926483 959.830508475 923.957770755 c 4
 959.830508475 556.204614496 615.210335623 336.330050608 391 150 c 5
 950 150 l 6
 956.666666667 150 969.333333333 144.666666667 988 134 c 4
 1006.66666667 123.333333333 1016 105.666666667 1016 81 c 132
EndSplineSet
EndChar

StartChar: three
Encoding: 19 51 22
Width: 1039
GlyphClass: 2
Flags: HW
LayerCount: 2
Fore
SplineSet
757.712732305 1003.26414485 m 4
 757.712732305 1124.99769269 647.450141898 1227.01249856 522.519395019 1227.01249856 c 4
 423.463705874 1227.01249856 330.559386727 1158.91593351 305 1087.5 c 132
 287.854633622 1039.59382924 268.123572545 1019 218.5 1019 c 132
 189.06012515 1019 152 1056.06209647 152 1085.5 c 132
 152 1100.5 153.666666667 1112.33333333 157 1121 c 4
 208.250698903 1260.29677137 341.178691338 1376.14074074 523.185068686 1376.14074074 c 4
 732.487778706 1376.14074074 908.582522247 1213.03879793 908.582522247 991.993080289 c 4
 908.582522247 865.884311527 843.268331863 768.530018379 772 709 c 5
 871.96528965 650.257510206 939.871373835 547.373956769 939.871373835 409.309067457 c 4
 939.871373835 160.539271771 733.514648438 -16.603515625 498.78125 -16.603515625 c 4
 330.279296875 -16.603515625 189.757508658 78.977487769 114 186 c 4
 104.666666667 199.333333333 100 215.166666667 100 233.5 c 132
 100 273.984829865 136.799316136 305 179.5 305 c 132
 203.166666667 305 222.333333333 294.333333333 237 273 c 4
 286.401737603 203.602320986 383.536132812 133.63671875 493.481445312 133.63671875 c 4
 652.166015625 133.63671875 789.730111229 251.288483379 789.730111229 405.073149193 c 4
 789.730111229 567.798491579 674 618 504 619 c 4
 465.4824766 619.226573667 432.672593789 648.65990748 432.672593789 693.004975891 c 4
 432.672593789 747.757914513 477.323696711 772 521 772 c 4
 653 772 757.712732305 846.700602432 757.712732305 1003.26414485 c 4
EndSplineSet
EndChar

StartChar: four
Encoding: 20 52 23
Width: 1303
GlyphClass: 2
Flags: HW
LayerCount: 2
Fore
SplineSet
904 68 m 6
 904 27.0053469899 869.993461051 -7 829 -7 c 132
 788.00534699 -7 754 27.0065389491 754 68 c 6
 754 69 l 5
 753 405 l 5
 175 407 l 6
 135.354512681 407 100 440.578451994 100 479.5 c 132
 100 498.5 105.333333333 515 116 529 c 6
 767 1345 l 6
 782.333333333 1363.66666667 801 1373 823 1373 c 132
 865.644969371 1373 900 1340.04899355 900 1298 c 6
 903 555 l 5
 1127 554 l 5
 1128 554 l 6
 1168.99465301 554 1203 519.993461051 1203 479 c 132
 1203 438.00534699 1168.99346105 404 1128 404 c 4
 1127 404 1127 404 1126 404 c 6
 903 405 l 5
 904 69 l 5
 904 68 l 6
753 555 m 5
 751 1084 l 5
 330 557 l 5
 753 555 l 5
EndSplineSet
EndChar

StartChar: five
Encoding: 21 53 24
Width: 1135
GlyphClass: 2
Flags: HW
LayerCount: 2
Fore
SplineSet
230.5 615 m 128
 193.162048442 615 151 644.727440433 151 677.5 c 128
 151 689.833333333 151.666666667 698 153 702 c 2
 255 1314 l 2
 261.165630993 1350.99378596 291.935880367 1377 328 1377 c 0
 635 1377 635 1377 942 1377 c 0
 978.507061566 1377 1017 1344.49009502 1017 1310 c 0
 1017 1262.45431234 987.193382841 1227 942 1227 c 0
 667 1227 667 1227 392 1227 c 1
 335 884 l 1
 405.666666667 921.333333333 480 940 558 940 c 128
 825.657465202 940 1035 734.196223944 1035 461 c 128
 1035 185.358086637 820.764877224 -25.4481157161 548.692691935 -25.4481157161 c 0
 341.071452607 -25.4481157161 180.050771423 101.10631129 108 249 c 0
 102.666666667 259.666666667 100 273.166666667 100 289.5 c 128
 100 321.930064219 136.437611983 358 169 358 c 0
 204.333333333 358 229 343.666666667 243 315 c 0
 293.901424103 210.652080589 401.535445439 124.554277482 549.63898166 124.554277482 c 0
 737.627490939 124.554277482 885 271.04144878 885 460.5 c 132
 885 650.602034818 742.547813485 790 545 790 c 128
 439.879483665 790 335.018712281 716.390854227 288 648 c 0
 273.333333333 626 254.166666667 615 230.5 615 c 128
EndSplineSet
EndChar

StartChar: six
Encoding: 22 54 25
Width: 1197
GlyphClass: 2
Flags: HW
LayerCount: 2
Fore
SplineSet
639.913175157 -17.8733691865 m 4
 278.102546439 -17.8733691865 99.7910765653 338.822185889 99.7910765653 700.978239814 c 4
 99.7910765653 1055.36030213 288.434582099 1386.38896728 643.576014892 1386.38896728 c 4
 824.094640004 1386.38896728 961.718375103 1284.28515281 1033 1163 c 4
 1040.33333333 1151 1044 1136.5 1044 1119.5 c 132
 1044 1087.92509815 1008.64907948 1050 978 1050 c 4
 942.666666667 1050 917.666666667 1062.66666667 903 1088 c 4
 856.407489884 1168.47797202 762.58801333 1237.32775718 643.738989265 1237.32775718 c 4
 370.668716764 1237.32775718 250 969.067168084 250 696 c 5
 250.666666667 696.666666667 251.333333333 697.666666667 252 699 c 4
 315.864280482 801.182848771 466.725080599 902.275819874 622.010347326 902.275819874 c 4
 892.549621272 902.275819874 1097.34883721 699.702478025 1097.34883721 432.089317069 c 4
 1097.34883721 192.915545373 908.954532066 -17.8733691865 639.913175157 -17.8733691865 c 4
644.35218715 130.588607595 m 4
 822.305090475 130.588607595 947.165263974 265.629914518 947.165263974 442.31173679 c 4
 947.165263974 609.630242194 805.057241365 753.969162996 634.478080305 753.969162996 c 4
 460.114341229 753.969162996 321.683694213 608.294510847 321.683694213 438.983579735 c 4
 321.683694213 266.585692961 481.564109784 130.588607595 644.35218715 130.588607595 c 4
EndSplineSet
EndChar

StartChar: seven
Encoding: 23 55 26
Width: 1235
GlyphClass: 2
Flags: HW
LayerCount: 2
Fore
SplineSet
1060 1380 m 4
 1098.6854058 1380 1135 1350.86090434 1135 1306.5 c 132
 1135 1293.5 1132.33333333 1281.66666667 1127 1271 c 4
 925.666666667 869.666666667 756.333333333 455.333333333 619 28 c 4
 609 -7.33333333333 582.666666667 -25 540 -25 c 4
 510.710942713 -25 473 11.5980946553 473 40.5 c 132
 473 54.8333333333 474.333333333 65.6666666667 477 73 c 4
 603.666666667 469 758 854.666666667 940 1230 c 5
 558 1230 558 1230 175 1230 c 4
 134.00534699 1230 100 1264.00653895 100 1305 c 132
 100 1345.99465301 134.006538949 1380 175 1380 c 4
 617 1380 617 1380 1060 1380 c 4
EndSplineSet
EndChar

StartChar: eight
Encoding: 24 56 27
Width: 1070
GlyphClass: 2
Flags: HW
LayerCount: 2
Fore
SplineSet
926.077586208 995.27816587 m 4
 926.077586208 874.897008646 874.082812513 781.37679587 769 707 c 5
 875.639072162 645.658940792 970.790849673 528.558801714 970.790849673 372.164466656 c 4
 970.790849673 137.992187182 761.212313888 -19 535 -19 c 132
 307.394568548 -19 100.226919329 135.709579974 100.226919329 373.532757034 c 4
 100.226919329 532.247999542 193.671560589 646.544113001 300 708 c 5
 210.073413271 772.391876917 144.927419355 873.961108708 144.927419355 1010.8560744 c 4
 144.927419355 1217.71755118 329.358578295 1380.24910532 533.482539166 1380.24910532 c 4
 745.648280995 1380.24910532 926.077586208 1216.14186817 926.077586208 995.27816587 c 4
294.472905553 1009.39212976 m 4
 294.472905553 881.262164351 407.181206978 783 536 783 c 4
 661.321241803 783 776.080758941 871.156404012 776.080758941 1008.36337117 c 4
 776.080758941 1132.90739919 656.81319745 1231.04199743 539.206946055 1231.04199743 c 4
 410.175428942 1231.04199743 294.472905553 1136.89936922 294.472905553 1009.39212976 c 4
819.046511628 374.729042725 m 4
 819.046511628 516.840360644 678.734920881 617.710352622 533.208304468 617.710352622 c 4
 390.308137889 617.710352622 249.95824637 526.49906429 249.95824637 376.01129055 c 4
 249.95824637 231.201388371 387.291282826 131 535 131 c 132
 682.677303805 131 819.046511628 230.194793913 819.046511628 374.729042725 c 4
EndSplineSet
EndChar

StartChar: semicolon
Encoding: 27 59 30
Width: 425
GlyphClass: 2
Flags: HW
LayerCount: 2
Fore
SplineSet
244.5 601 m 132
 166.578931157 601 100 663.111856284 100 740.5 c 132
 100 817.885308104 166.58669524 880 244.5 880 c 132
 322.421068843 880 389 817.888143716 389 740.5 c 132
 389 663.114691896 322.41330476 601 244.5 601 c 132
90 139 m 128
 90 211.183156425 152.495611441 283 221 283 c 128
 252.333333333 283 278.333333333 277.666666667 299 267 c 0
 394.333333333 216.333333333 419.666666667 118 375 -28 c 0
 341.666666667 -137.333333333 283.666666667 -219.333333333 201 -274 c 0
 149.049196363 -308.633869092 92 -267.009915357 92 -212.5 c 128
 92 -190.166666667 103.666666667 -171 127 -155 c 0
 180.333333333 -119.666666667 216.666666667 -69.6666666667 236 -5 c 1
 235 -5 235 -5 234 -5 c 0
 154.625255981 -5 90 59.6274565214 90 139 c 128
EndSplineSet
EndChar

StartChar: less
Encoding: 28 60 31
Width: 944
GlyphClass: 2
Flags: HW
LayerCount: 2
Fore
SplineSet
86 412 m 1
 86 522 l 1
 947 886 l 1
 947 768 l 1
 217 468 l 1
 947 166 l 1
 947 48 l 1
 86 412 l 1
EndSplineSet
EndChar

StartChar: equal
Encoding: 29 61 32
Width: 1109
GlyphClass: 2
Flags: HW
LayerCount: 2
Fore
SplineSet
100 380.5 m 132
 100 405.58627208 127.409538949 451 148 451 c 6
 171 450 l 5
 939 450 l 5
 954 451 l 5
 980.405127103 451 1010 410.190692076 1010 380.5 c 132
 1010 350.764709876 980.448770988 310 954 310 c 4
 555 310 555 310 156 310 c 4
 129.594872897 310 100 350.809307924 100 380.5 c 132
100 701.5 m 132
 100 731.235290124 129.551229012 772 156 772 c 132
 166 772 171 771.666666667 171 771 c 6
 939 771 l 6
 939 770.333333333 944 770.333333333 954 771 c 132
 980.555986288 772.770399086 1010 730.649330365 1010 701.5 c 132
 1010 671.764709876 980.448770988 631 954 631 c 4
 555 631 555 631 156 631 c 4
 129.594872897 631 100 671.809307924 100 701.5 c 132
EndSplineSet
EndChar

StartChar: greater
Encoding: 30 62 33
Width: 969
GlyphClass: 2
Flags: HW
LayerCount: 2
Fore
SplineSet
115 48 m 1
 115 166 l 1
 842 463 l 1
 115 768 l 1
 115 886 l 1
 971 522 l 1
 971 412 l 1
 115 48 l 1
EndSplineSet
EndChar

StartChar: question
Encoding: 31 63 34
Width: 939
GlyphClass: 2
Flags: HW
LayerCount: 2
Fore
SplineSet
498 1320 m 0
 707.6160153 1320 871 1204.20357388 871 998 c 128
 871 898 840.333333333 818 779 758 c 2
 601 585 l 2
 565 550.333333333 547 506.666666667 547 454 c 2
 547 374 l 1
 407 374 l 1
 407 460 l 2
 407 532.666666667 445 605.666666667 521 679 c 2
 643 797 l 2
 702.333333333 855 732 918.666666667 732 988 c 128
 732 1127.47271467 627.369839694 1202 488 1202 c 0
 327.333333333 1202 245.333333333 1109.66666667 242 925 c 1
 113 925 l 1
 116.333333333 1188.33333333 244.666666667 1320 498 1320 c 0
407 18 m 1
 407 180 l 1
 547 180 l 1
 547 18 l 1
 407 18 l 1
EndSplineSet
EndChar

StartChar: at
Encoding: 32 64 35
Width: 1784
GlyphClass: 2
Flags: HW
LayerCount: 2
Fore
SplineSet
1177 886 m 128
 1217.99465301 886 1252 851.993461051 1252 811 c 2
 1252 810 l 1
 1255 494 l 2
 1255 487 1255 487 1255 480 c 2
 1252 321 l 1
 1267.98240579 242.419838208 1365.95816235 193.366277272 1449 254 c 0
 1583.69912045 353.389642276 1531.87166597 619.598389269 1455 762 c 128
 1414.33333333 837.333333333 1362 901.333333333 1298 954 c 0
 1080.66666667 1133.33333333 845.833333333 1158.5 593.5 1029.5 c 0
 341.166666667 900.5 227.5 692.666666667 252.5 406 c 0
 270.166666667 205.333333333 365.833333333 49.6666666667 539.5 -61 c 0
 713.166666667 -171.666666667 899 -191.333333333 1097 -120 c 0
 1171.66666667 -93.3333333333 1209 -112 1209 -176 c 0
 1209 -218 1189 -246.333333333 1149 -261 c 0
 908.333333333 -351 679 -327 461 -189 c 0
 243 -51 123.666666667 142.333333333 103 391 c 0
 73.6666666667 747 221 1008 545 1174 c 0
 841.666666667 1326 1124.66666667 1291 1394 1069 c 0
 1539.79948233 948.929838078 1654.19604838 764.368458845 1680 535 c 128
 1700.5115767 352.674873784 1641.4261266 210.204538219 1534.5 131 c 128
 1489.5 97.6666666667 1442.33333333 79.6666666667 1393 77 c 0
 1281 70.3333333333 1196.66666667 111.666666667 1140 201 c 1
 1072.08263182 131.987190393 965.260679727 74.3346319195 838 84 c 0
 631.537063608 98.3740019007 471.365243926 265.560898464 466 479.5 c 128
 463.333333333 585.833333333 499.833333333 679.5 575.5 760.5 c 128
 651.166666667 841.5 739.666666667 882.666666667 841 884 c 128
 942.333333333 885.333333333 1029.33333333 857.333333333 1102 800 c 1
 1102 811 l 2
 1102 851.99465301 1136.00653895 886 1177 886 c 128
1105 480 m 0
 1103.71700927 619.845989027 996.265580576 735.365348829 857 734 c 128
 722.115317181 732.677601149 612.0340174 614.487396789 616 477 c 0
 618 381.666666667 659.666666667 311 741 265 c 0
 806.333333333 227.666666667 872.833333333 221.666666667 940.5 247 c 128
 1030.93649128 280.857996737 1102.5721174 361.033752418 1105 480 c 0
EndSplineSet
EndChar

StartChar: braceleft
Encoding: 85 123 36
Width: 947
GlyphClass: 2
Flags: HW
LayerCount: 2
Fore
SplineSet
780.5 -280 m 132
 818.32480562 -280 847 -314.441950991 847 -354.5 c 132
 847 -376.833333333 836.333333333 -395 815 -409 c 4
 714.431346282 -475.197088523 576.865694367 -485.172774261 467 -422 c 132
 347.121668985 -353.069959666 263.156956521 -216.646335409 288 -25 c 132
 296.631636532 41.586910387 326.322628436 148.720684993 338 211 c 132
 358.637089624 321.064477992 318.798776111 424.971545132 224 434 c 5
 174 425.333333333 140.833333333 429.5 124.5 446.5 c 132
 108.166666667 463.5 100 480.5 100 497.5 c 132
 100 514.5 106.833333333 531.666666667 120.5 549 c 132
 134.166666667 566.333333333 164.666666667 575.333333333 212 576 c 5
 306 604 334 702 296 870 c 4
 293.204663644 883.976681781 280.811020471 935.00789082 278 950 c 4
 232 1158.66666667 277.333333333 1304.66666667 414 1388 c 4
 476.666666667 1426 547.166666667 1440.33333333 625.5 1431 c 132
 703.833333333 1421.66666667 770 1384.66666667 824 1320 c 4
 835.333333333 1306.66666667 841 1290.83333333 841 1272.5 c 132
 841 1234.35649691 808.175197525 1204 769 1204 c 132
 748.333333333 1204 731 1212.66666667 717 1230 c 4
 664.630856985 1291.47682006 567.655601767 1317.63421647 487 1268 c 4
 369.252829128 1196.42819025 395.277136776 1065.65756232 430.5 907.5 c 132
 466.520953772 745.758854629 468.505892341 619.499520764 376 518 c 5
 469.333333333 442 501 322.333333333 471 159 c 4
 467 137.666666667 457.333333333 95.3333333333 442 32 c 4
 403.333333333 -132 434 -242.333333333 534 -299 c 4
 587.984388025 -329.366218264 674.157911975 -335.177933097 723.5 -301.5 c 132
 744.5 -287.166666667 763.5 -280 780.5 -280 c 132
EndSplineSet
EndChar

StartChar: bar
Encoding: 86 124 37
Width: 350
GlyphClass: 2
Flags: HW
LayerCount: 2
Fore
SplineSet
250 -295 m 6
 250 -329.739337444 217.968247739 -370 186 -370 c 4
 128.666666667 -370 100 -344.666666667 100 -294 c 6
 100 1211 l 6
 100 1251.99465301 132.980394927 1286 174 1286 c 6
 175 1286 l 6
 216.523120228 1286 250 1251.81745681 250 1210 c 6
 250 -295 l 6
EndSplineSet
EndChar

StartChar: asciitilde
Encoding: 88 126 39
Width: 910
GlyphClass: 2
Flags: HW
LayerCount: 2
Fore
SplineSet
882 933 m 2
 882 780.333333333 823.666666667 704 707 704 c 0
 651 704 595.333333333 723.666666667 540 763 c 2
 395 866 l 2
 363.666666667 888 333.333333333 899 304 899 c 0
 240.666666667 899 204.666666667 849.666666667 196 751 c 1
 123 751 l 1
 133.666666667 918.333333333 194.666666667 1002 306 1002 c 0
 338.666666667 1002 369 993 397 975 c 2
 609 839 l 2
 642.333333333 817.666666667 674.333333333 807 705 807 c 0
 771.666666667 807 806 854.666666667 808 950 c 1
 882 950 l 1
 882 933 l 2
EndSplineSet
EndChar

StartChar: anuswara
Encoding: 90 3330 41
Width: 824
GlyphClass: 2
Flags: HW
LayerCount: 2
Fore
SplineSet
380 666 m 1
 547.336345684 697.198301738 684.597735481 585.404960375 735 475 c 128
 796.908822813 339.390197649 757.38206158 197.466621718 676.5 109.5 c 128
 596.591028439 22.5917024624 453.156509398 -32.8855237814 304.5 28.5 c 128
 194.326977425 73.9943327052 82.1521616732 205.217293385 101 356 c 0
 121.666666667 526 214.666666667 629.333333333 380 666 c 1
623 305.5 m 128
 637.689950064 399.352458741 587.193739572 467.424896754 526 505 c 128
 445.265430597 554.573858405 347.795385473 527.795385473 293 473 c 1
 290.333333333 466.333333333 286.666666667 460 282 454 c 0
 233.316771906 393.786533674 224.261326757 306.442177558 268 234 c 128
 302.734469207 176.471035377 381.697859453 124.569812916 475 147.5 c 128
 550.044960465 165.943252996 610.601454898 226.287072962 623 305.5 c 128
EndSplineSet
EndChar

StartChar: ml_a
Encoding: 92 3333 43
Width: 2693
GlyphClass: 2
Flags: HW
LayerCount: 2
Fore
SplineSet
928.5078125 -24.0537109375 m 4
 689.831054688 -24.0537109375 513.94140625 179.307617188 513.94140625 434.573242188 c 4
 513.94140625 633.169921875 611.544921875 798.341796875 727.6796875 896 c 5
 715.779296875 896.8671875 704.008789062 897.290039062 692.375976562 897.290039062 c 4
 446.3203125 897.290039062 239.4453125 714.021484375 239.4453125 465.862304688 c 4
 239.4453125 297.37109375 349.254882812 163.579101562 474.6796875 110 c 4
 497.997070312 100.932617188 516.6796875 72.22265625 516.6796875 40 c 132
 516.6796875 9.5791015625 483.591796875 -26 453.6796875 -26 c 132
 439.012695312 -26 427.012695312 -24 417.6796875 -20 c 4
 250.567382812 53.3369140625 100 232.422851562 100 457.087890625 c 4
 100 781.555664062 353.668945312 1038.25 694.271484375 1038.25 c 4
 766.599609375 1038.25 837.068359375 1024.16699219 905.6796875 996 c 5
 971.094726562 1019.70703125 1037.08691406 1031.56054688 1103.65820312 1031.56054688 c 4
 1315.22949219 1031.56054688 1458.89550781 938.293945312 1542.6796875 794 c 5
 1619.73144531 933.25 1763.69726562 1031.54394531 1969.38476562 1031.54394531 c 4
 2304.94433594 1031.54394531 2593.6015625 788.899414062 2593.6015625 438.346679688 c 4
 2593.6015625 193.813476562 2435.68066406 -24 2181.1796875 -24 c 132
 1971.60351562 -24 1815.32617188 147.483398438 1815.32617188 354.19140625 c 4
 1815.32617188 567.337890625 1976.4453125 751.256835938 2187.80273438 751.256835938 c 4
 2248.00683594 751.256835938 2300.96582031 741.504882812 2346.6796875 722 c 5
 2267.88085938 816.088867188 2125.25195312 892.348632812 1973.85644531 892.348632812 c 4
 1706.09179688 892.348632812 1615.6796875 713.1171875 1615.6796875 433 c 6
 1615.6796875 44 l 6
 1615.6796875 5.912109375 1584.11914062 -26 1546.1796875 -26 c 132
 1508.23242188 -26 1476.99023438 7.3193359375 1475.6796875 44 c 5
 1474.6796875 433 l 6
 1474.6796875 726.34375 1357.30957031 909.704101562 1066.6796875 890 c 5
 1133.67382812 822.423828125 1175.56640625 738.919921875 1175.56640625 656.4921875 c 4
 1175.56640625 603.735351562 1158.40429688 551.41796875 1119.6796875 504 c 5
 1188.26074219 456.173828125 1239.203125 377.8125 1239.203125 278.680664062 c 4
 1239.203125 106.412109375 1094.69140625 -24.0537109375 928.5078125 -24.0537109375 c 4
900.6796875 842 m 5
 779.239257812 781.279296875 650.678710938 626.764648438 650.678710938 443.987304688 c 4
 650.678710938 263.407226562 751.57421875 116.982421875 926.834960938 116.982421875 c 4
 1023.75683594 116.982421875 1098.4375 198.471679688 1098.4375 271.77734375 c 4
 1098.4375 339.896484375 1058.67285156 385.905273438 1007.6796875 404 c 4
 959.104492188 421.236328125 924.758789062 399.2890625 889.1796875 434 c 132
 875.512695312 447.333007812 868.6796875 461.666992188 868.6796875 477 c 132
 868.6796875 523.2890625 896.875 551.07421875 935.6796875 553.5 c 132
 991.889648438 557.012695312 1034.36035156 599.694335938 1034.36035156 660.368164062 c 4
 1034.36035156 737.23828125 956.209960938 808.317382812 900.6796875 842 c 5
2438.88476562 361.392578125 m 4
 2438.88476562 509.364257812 2341.63378906 610.146484375 2194.28613281 610.146484375 c 4
 2058.95703125 610.146484375 1954.29101562 487.450195312 1954.29101562 354.201171875 c 4
 1954.29101562 232.6796875 2079.79296875 110 2203.6796875 110 c 132
 2342.32519531 110 2438.88476562 215.485351562 2438.88476562 361.392578125 c 4
EndSplineSet
EndChar

StartChar: ml_aa
Encoding: 93 3334 44
Width: 2919
GlyphClass: 2
Flags: HW
LayerCount: 2
Fore
SplineSet
1856 -172.5 m 132
 1856 -133.732320864 1887.38096136 -102 1926 -102 c 132
 1945.33333333 -102 1961.66666667 -108.666666667 1975 -122 c 4
 2054.54851789 -198.398081535 2148.39008381 -236.597122302 2256.52469777 -236.597122302 c 128
 2364.65931173 -236.597122302 2458.15107914 -202.064748201 2537 -133 c 4
 2591 -85 2628.19521605 -33.2075617284 2648.58564815 22.3773148148 c 132
 2668.97608025 77.9621913583 2679.1712963 122.901234568 2679.1712963 157.194444444 c 0
 2679.1712963 263.625171467 2650.44753087 354.227023319 2593 429 c 5
 2593.13793103 414.977407848 l 1
 2593.13793103 235.622530105 2486.21378557 76.969005353 2348.9889881 7.4880952381 c 132
 2295.64831349 -19.5198412698 2239.49156746 -33.0238095238 2180.51875 -33.0238095238 c 128
 2038.03707727 -33.0238095238 1937.38813891 38.9091869324 1871.88659794 132.122918319 c 132
 1832.47766323 188.204863865 1812.77319588 246.832011631 1812.77319588 308.004361618 c 128
 1812.77319588 463.596335492 1867.76066623 561.623275669 1971 636 c 4
 2057.99763593 698.529550827 2155.41686367 729.794326241 2263.25768322 729.794326241 c 0
 2287.63908589 729.794326241 2312.55319149 728.196217494 2338 725 c 5
 2267.12667258 803.505839601 2127.35628631 885.514084507 1990.06514085 885.514084507 c 128
 1748.48356899 885.514084507 1614.92857143 746.924735409 1614.92857143 504.642857143 c 128
 1614.92857143 463.071428572 1614.95238095 439.190476191 1615 433 c 6
 1615 42 l 6
 1615 3.88384329974 1583.44172911 -27 1545.5 -27 c 132
 1507.54969 -27 1476.3110385 5.2909220171 1475 42 c 5
 1474 432 l 6
 1474 579.369236683 1468.67070155 640.822394827 1414 728 c 4
 1362.66666667 808.666666667 1285 859 1181 879 c 4
 1155.98039216 883.745098039 1133.37254902 886.117647059 1113.17647059 886.117647059 c 128
 1092.98039216 886.117647059 1075.58823529 885.411764706 1061 884 c 5
 1135.92592593 809.703703704 1173.38888889 730.650205762 1173.38888889 646.839506173 c 0
 1173.38888889 590.123019 1155.92592593 539.843183609 1121 496 c 5
 1199.20512821 441.175786413 1238.30769231 365.544622705 1238.30769231 269.106508876 c 0
 1238.30769231 162.481848786 1179.84164701 82.9699130063 1119 38 c 4
 1062.24637681 -4.08695652173 1000.30812855 -25.1304347826 933.185255198 -25.1304347826 c 0
 792.128621807 -25.1304347826 680.400203407 33.5797101449 598 151 c 4
 540.851540616 233.610644258 512.277310924 325.693408205 512.277310924 427.24829184 c 128
 512.277310924 633.587826701 607.656510605 790.44346879 720 886 c 5
 709.188118812 886.646864687 698.526745744 886.97029703 688.015880796 886.97029703 c 0
 622.698362905 886.97029703 561.0330033 873.475247525 503.01980198 846.485148515 c 4
 388.980716975 793.429531427 310.640782981 712.934481922 268 605 c 4
 248.769953051 556.323943662 239.154929577 499.999251255 239.154929577 436.025922778 c 128
 239.154929577 287.029945183 348.406921872 156.406883628 455 102 c 4
 481 89.3333333333 494 66.3333333333 494 33 c 4
 494 2.80227531941 460.196074276 -31 430 -31 c 132
 414.666666667 -31 401.666666667 -28.3333333333 391 -23 c 4
 239.492660181 55.0845520604 99.5371428571 228.783203936 99.5371428571 445.608195918 c 0
 99.5371428571 601.766541497 152.024761905 734.230476191 257 843 c 4
 359.859232031 948.826325263 507.688894961 1028.3381295 701.564748201 1028.3381295 c 128
 767.049160671 1028.3381295 832.527577937 1015.558753 898 990 c 5
 964.418604651 1014.31007752 1023.45348837 1026.46511628 1075.10465116 1026.46511628 c 0
 1293.89221507 1026.46511628 1449.52399802 945.976744187 1542 785 c 5
 1597.33333333 884.333333333 1682 954.5 1796 995.5 c 4
 1852.31325301 1015.75301205 1911.2751004 1025.87951807 1972.88554217 1025.87951807 c 128
 2034.49598394 1025.87951807 2107.08433735 1012.73293173 2190.65060241 986.439759036 c 132
 2349.54365969 936.445869859 2486.35519071 797.342276492 2547 654 c 5
 2603.66666667 620.666666667 2652.66666667 578.666666667 2694 528 c 4
 2777.22448979 425.982883476 2818.83673469 308.475872508 2818.83673469 175.478967097 c 0
 2818.83673469 -8.51534478086 2734.50779745 -145.317061407 2629.5 -238 c 4
 2523.92377162 -331.184652278 2402.24618419 -377.776978417 2264.46723772 -377.776978417 c 0
 2096.76815542 -377.776978417 1971.85653059 -312.210167691 1878 -223 c 4
 1863.33333333 -209 1856 -192.166666667 1856 -172.5 c 132
925.5 404 m 132
 898.466930071 404 868 442.437538515 868 472 c 132
 868 503.198237622 893.834596764 538.921717266 920 542 c 132
 961.248713195 546.852789788 976.39293812 547.443073925 1006.32621951 576.800715291 c 132
 1024.54369918 594.667858818 1033.65243902 618.231883209 1033.65243902 647.492788462 c 128
 1033.65243902 728.348743872 955.880976782 800.803185298 895 836 c 5
 778.90618193 776.969245049 650.156682028 625.055717185 650.156682028 446.725562233 c 0
 650.156682028 304.216676421 714.261656072 198.475021317 803 148 c 4
 841.477419355 125.911111111 881.841218638 114.866666667 924.091397849 114.866666667 c 128
 966.341577061 114.866666667 998.977777778 123.577777778 1022 141 c 4
 1073.28205128 178.435897436 1098.92307692 220.408284024 1098.92307692 266.917159763 c 0
 1098.92307692 333.033866377 1060.52568663 376.51448395 1011 396 c 4
 978.214394447 408.435919348 960.326645363 404 925.5 404 c 132
2178.07603306 106.963636364 m 0
 2341.52566883 106.963636364 2453.04761905 263.690818381 2453.04761905 432.188208617 c 0
 2453.04761905 473.427815571 2446.6984127 514.365079365 2434 555 c 5
 2379.06060606 579.252525253 2334.20454545 591.378787879 2299.43181818 591.378787879 c 128
 2124.78073362 591.378787879 2009.01459978 522.482836462 1967 412 c 4
 1957.91823899 388.100628931 1953.37735849 366.921383648 1953.37735849 348.462264151 c 128
 1953.37735849 242.501071969 2000.14796203 171.78794187 2075.56363636 132.981818182 c 132
 2109.27272727 115.636363637 2143.44352617 106.963636364 2178.07603306 106.963636364 c 0
EndSplineSet
EndChar

StartChar: ml_i
Encoding: 94 3335 45
Width: 1974
GlyphClass: 2
Flags: HW
LayerCount: 2
Fore
SplineSet
643.215490402 1028.02045018 m 4
 818.613800762 1028.02045018 954.343986929 937.028211579 1022.73046875 832.112304688 c 5
 1066.29166666 905.525065104 1121.02184555 956.895343176 1186.92100542 986.223138904 c 132
 1252.82016529 1015.55093463 1315.96662013 1030.2148325 1376.36036993 1030.2148325 c 4
 1517.77508728 1030.2148325 1635.39740881 978.30665033 1729.22733452 874.49028599 c 132
 1823.05726024 770.673921653 1869.9722231 648.978532481 1869.9722231 509.404118474 c 4
 1869.9722231 331.720509224 1786.08322941 191.011655831 1675.6953125 109 c 132
 1551.79627773 16.9503873103 1439.39123125 -3.75458539325 1233.8671875 -4.6416015625 c 6
 570.119140625 -7.5048828125 l 6
 543.806918962 -7.61875061597 500.562893017 -7.62686344039 469.1875 -8.21875 c 4
 372.669921875 -10.0403645833 306.354492187 -26.6803385417 270.241210938 -58.138671875 c 4
 249.274379203 -76.4025811151 238.790963335 -93.7613167304 238.790963335 -110.214878721 c 132
 238.790963335 -155.296897619 272.627698345 -178.572457149 311.157226562 -195.399414062 c 132
 337.118164062 -206.736653646 388.147786458 -212.422200521 464.24609375 -212.456054688 c 6
 1801.953125 -213.055664062 l 5
 1892.63908324 -211.812769278 1894.37204608 -354.403394114 1801.890625 -353.055664062 c 5
 464.18359375 -352.456054688 l 6
 295.129514626 -352.378892597 208.310771528 -324.997867314 141.580516688 -238.158838305 c 132
 113.860105939 -202.085043008 99.9999005649 -156.834549861 99.9999005649 -102.407358863 c 132
 99.9999005649 -47.9801678655 122.529230585 -1.1412565778 167.587890625 38.109375 c 4
 257.007198744 116.001717094 390.504154991 131.720252663 569.513671875 132.495117188 c 6
 1233.26367188 135.358398438 l 6
 1403.0553848 136.092567311 1493.28532691 147.888609467 1590.27929688 219.950195312 c 4
 1683.61787617 289.293724598 1730.28716582 380.725862136 1730.28716582 494.246607925 c 132
 1730.28716582 607.767353714 1696.26509187 702.170753259 1628.22094396 777.456806559 c 132
 1560.17679605 852.742859859 1478.08816489 890.385886509 1381.95505048 890.385886509 c 132
 1245.04693261 890.385886509 1133.126578 801.680357868 1108.35742188 675.6953125 c 132
 1101.04622396 638.504557292 1097.390625 582.239257813 1097.390625 506.899414062 c 6
 1097.390625 230.364257812 l 6
 1096.40240698 141.742170925 959.020512002 139.351928303 957.392578125 229.424804688 c 5
 955.552734375 503.459960938 l 6
 954.650156603 638.588747323 954.587243511 681.991765428 903.759765625 758.380859375 c 4
 852.355753426 835.635174402 757.418267189 888.696979164 628.518305626 888.696979164 c 4
 514.12744681 888.696979164 401.268231055 824.268689654 339.234375 748.438476562 c 5
 373.484253459 759.594040973 411.836413433 765.171823178 454.290854923 765.171823178 c 132
 546.987290954 765.171823178 638.244808348 702.102052755 681.875 648.739257812 c 4
 728.839404133 591.298525504 752.321606199 526.506198968 752.321606199 454.362278204 c 4
 752.321606199 358.821019308 716.681201008 280.367577615 645.400390625 219.001953125 c 4
 588.762977433 170.243899635 526.017322862 145.86487289 457.163426912 145.86487289 c 132
 388.309530962 145.86487289 327.546721991 163.823326718 274.875 199.740234375 c 4
 167.752384988 272.78556635 114.191077482 381.078560425 114.191077482 524.619216602 c 4
 114.191077482 619.543923481 144.008569884 711.847609093 203.643554688 801.530273438 c 4
 278.868815104 914.657877605 384.844075521 985.718098959 521.569335938 1014.7109375 c 4
 563.413123193 1023.58394595 603.961841347 1028.02045018 643.215490402 1028.02045018 c 4
441.204101562 288.654296875 m 132
 536.71276896 288.654296875 615.64453125 367.588810287 615.64453125 463.094726562 c 132
 615.64453125 558.604102477 536.710017838 637.53515625 441.204101562 637.53515625 c 132
 345.694474752 637.53515625 266.763671875 558.602387922 266.763671875 463.094726562 c 132
 266.763671875 367.585021157 345.697224081 288.654296875 441.204101562 288.654296875 c 132
EndSplineSet
EndChar

StartChar: ml_u
Encoding: 96 3337 47
Width: 1329
GlyphClass: 2
Flags: HW
LayerCount: 2
Fore
SplineSet
394.5 368 m 132
 485.356225099 368 560 442.999195475 560 534 c 132
 560 618.684516292 487.264095474 700 406 700 c 132
 296.833086617 700 228 628.462785511 228 534 c 4
 228 442.994558512 303.670163043 368 394.5 368 c 132
1229 -274.5 m 132
 1229 -313.787574637 1197.41308607 -344.059716798 1158 -344 c 6
 498 -343 l 6
 259.333333333 -342.333333333 127.666666667 -272.333333333 103 -133 c 4
 93.6666666667 -81 105.666666667 -32.6666666667 139 12 c 4
 205.666666667 101.333333333 306 144.333333333 440 141 c 4
 465.333333333 140.333333333 492 140 520 140 c 6
 657 138 l 6
 853.763826406 135.629351489 974.719643526 188.310422868 1036 330.5 c 4
 1103.20204732 487.666078398 1040.60331493 651.345348649 941 750.5 c 132
 807.721090492 883.178554059 555.858656968 941.090960702 378 812 c 5
 544.998463657 821.542769352 674.093486795 688.237589753 683.5 540.5 c 132
 689.166666667 451.5 661.5 375.666666667 600.5 313 c 132
 539.5 250.333333333 468.166666667 223.333333333 386.5 232 c 132
 163.068364231 255.711112367 36.729939763 514.845167738 145 742 c 132
 179 813.333333333 226 872 286 918 c 4
 400 1005.33333333 529.833333333 1039.83333333 675.5 1021.5 c 132
 951.321799745 986.785585844 1182.98344473 781.493106656 1201 496 c 4
 1205.66666667 418 1193.16666667 344 1163.5 274 c 4
 1085.16736269 86.184904681 915.334029353 -5.81509531899 654 -2 c 6
 517 0 l 6
 420.333333333 1.33333333333 357 -4 327 -16 c 4
 263 -42 234.333333333 -72.1666666667 241 -106.5 c 132
 247.666666667 -140.833333333 271.5 -166.833333333 312.5 -184.5 c 4
 340.500342442 -196.688384357 402.333675775 -202.855051024 498 -203 c 6
 1158 -204 l 6
 1196.5954053 -204 1229 -235.732754788 1229 -274.5 c 132
EndSplineSet
EndChar

StartChar: ml_r
Encoding: 98 3339 49
Width: 1680
GlyphClass: 2
Flags: HW
LayerCount: 2
Fore
SplineSet
708 -508 m 6
 478.666666667 -510 316 -449 220 -325 c 4
 101.533731224 -178.581016119 121.925514222 6.56539689805 246 128 c 4
 286.666666667 168 336 199.666666667 394 223 c 5
 243.867152277 303.930988226 107.14735725 453.761758494 100.5 665 c 132
 97.5 760.333333333 127.5 846 190.5 922 c 132
 253.5 998 335.333333333 1031.66666667 436 1023 c 4
 612.739120258 1007.79663482 750.381981619 812.763963237 656 624 c 132
 628.666666667 569.333333333 589 528.666666667 537 502 c 4
 457.666666667 461.333333333 378 457 298 489 c 5
 301 486 l 5
 399.852634339 330.937044174 613.287198353 258.779947005 875 271 c 4
 1100.33333333 281.666666667 1262 347.666666667 1360 469 c 5
 1359.33333333 469 1358 468.333333333 1356 467 c 4
 1217.28727995 428.468688876 1089.96031653 516.853221898 1042.5 602.5 c 132
 983.145075723 709.611759902 996.769039345 831.925712824 1065.5 918 c 132
 1123.09644214 990.130123796 1234.31358246 1051.83775029 1366 1009 c 132
 1546.68541062 950.222818232 1639.03879224 705.416090102 1539 492 c 4
 1484.33333333 376.666666667 1396.33333333 287.666666667 1275 225 c 5
 1413.96377058 174.708349696 1539.64739555 55.7226352797 1545.5 -107.5 c 132
 1548.5 -191.166666667 1522.66666667 -264.333333333 1468 -327 c 5
 1373.33333333 -443.666666667 1234.66666667 -503 1052 -505 c 6
 708 -508 l 6
530.5 687 m 132
 592.428082417 810.856164833 462.774711741 921.28486774 351 870 c 4
 314.333333333 853.333333333 286.333333333 825.666666667 267 787 c 4
 267 786.333333333 265.166666667 779 261.5 765 c 132
 249.49708346 719.170682304 288.080452962 661.074195438 316 639.5 c 132
 357.797474376 607.201951618 417.154311555 597.1964971 471 625.5 c 132
 497 639.166666667 516.833333333 659.666666667 530.5 687 c 132
1434 732 m 5
 1416.14675814 826.622181858 1338.36286706 905.979558642 1242 876 c 4
 1166.15996615 853.247989844 1116.70268493 757.995118315 1164 672 c 132
 1188.80652539 626.897226568 1249.55482039 586.538842853 1321 602.5 c 132
 1380.26397921 615.739825144 1428.44869052 666.772113577 1434 732 c 5
790 128 m 6
 567.333333333 128 418 94 342 26 c 5
 270.713272856 -45.2867271435 257.685442082 -148.68977487 327 -234 c 4
 399.666666667 -323.333333333 534 -368 730 -368 c 6
 1019 -368 l 6
 1172.33333333 -368 1282 -329.666666667 1348 -253 c 4
 1422.43178871 -166.162913174 1426.2334765 -64.0939756292 1349 16 c 4
 1277.66666667 90.6666666667 1137.33333333 128 928 128 c 6
 790 128 l 6
EndSplineSet
EndChar

StartChar: ml_l
Encoding: 99 3340 50
Width: 2087
GlyphClass: 2
Flags: HW
LayerCount: 2
Fore
SplineSet
1025 -15 m 132
 992.758231419 -15 963.150298589 20.6413409334 962 54 c 5
 964 445 l 6
 964 588.81977374 955.033230288 664.48876617 897 748 c 4
 813.398318046 866.195481383 648.405611945 908.912963081 492 841 c 4
 377.333333333 791 300.666666667 703.666666667 262 579 c 5
 343.333333333 648.333333333 431.333333333 675 526 659 c 132
 678.932283784 633.152290065 795.024332256 530.507328945 823.5 379.5 c 132
 849.430587176 241.989310433 788.960027534 128.083579622 714.5 63 c 132
 626.888454559 -13.5789804593 497.524936473 -45.4688154146 357.5 10 c 132
 288.5 37.3333333333 230.333333333 86 183 156 c 4
 172.110389483 166.889610517 169.69218368 173.264072867 165 186 c 4
 39.8069021315 408.770071207 109.664125236 689.786013318 260 847 c 4
 347.323930721 938.919927075 481.509882807 1015.78753585 648.5 1013.5 c 132
 827.5010516 1011.0479308 962.784595134 917.681620674 1036 789 c 5
 1110.47345066 919.050652641 1246.59195369 1011.7198537 1427 1015 c 132
 1594.37838626 1018.04324339 1732.64139225 941.653636524 1821 851 c 4
 1926.33333333 743 1981.66666667 612 1987 458 c 4
 1990.33333333 355.333333333 1968.66666667 263.333333333 1922 182 c 5
 1916 167.333333333 1900.66666667 145.666666667 1876 117 c 4
 1806.23967313 35.4340793543 1681.90566894 -43.6269036655 1534 -15 c 132
 1409.63320843 9.07099191683 1314.06730847 94.5797391028 1276 205.5 c 132
 1232.16165746 333.235860164 1271.46738499 455.820739986 1337 534 c 4
 1391.66666667 600 1466.33333333 641 1561 657 c 132
 1655.66666667 673 1743.66666667 646.666666667 1825 578 c 5
 1803 646 1771 701.666666667 1729 745 c 4
 1642.33333333 833.666666667 1543.33333333 876.833333333 1432 874.5 c 132
 1272.98175863 871.167282366 1149.39914442 770.388346376 1119.5 622 c 132
 1110.5 577.333333333 1105.66666667 518.333333333 1105 445 c 6
 1102 53 l 6
 1101.10426623 12.6919802526 1073.61683761 -15 1025 -15 c 132
679 253 m 4
 738.323552945 427.674905893 542.63608939 590.548085091 378 490.5 c 132
 310.443344553 449.446340151 253.63858173 357.080591556 292 247 c 5
 323.333333333 195 361.666666667 159.833333333 407 141.5 c 132
 536.85579731 88.9847878526 645.381389871 154.121734916 679 253 c 4
1797 379.5 m 132
 1770.9670153 461.740565305 1679.81140888 534.763478291 1569.5 516.5 c 132
 1457.22272992 497.911048 1363.18587463 384.899953291 1409 251.5 c 132
 1443.37384225 151.41145932 1552.10867695 87.6434707785 1680.5 139 c 132
 1725.5 157 1763.66666667 191.666666667 1795 243 c 5
 1811 287.666666667 1811.66666667 333.166666667 1797 379.5 c 132
EndSplineSet
EndChar

StartChar: ml_e
Encoding: 100 3342 51
Width: 2253
GlyphClass: 2
Flags: HW
LayerCount: 2
Fore
SplineSet
431 62.5 m 128
 431 32.2030157557 398.360725532 -3 369 -3 c 128
 355 -3 344.333333333 -1.66666666667 337 1 c 0
 196.37386584 50.9745766022 73.1618264714 202.396270839 100 392.5 c 128
 123.300682161 557.546498639 262.354313472 692.191034675 438 703 c 128
 720.806412563 720.403471542 930.040501627 401.015182712 760 142 c 1
 1004 140 l 1
 1005 285 l 2
 1005 389.666666667 1009.66666667 470.333333333 1019 527 c 0
 1051 723.666666667 1142.66666667 868.333333333 1294 961 c 0
 1374 1009.66666667 1458.66666667 1033.33333333 1548 1032 c 0
 1729.33333333 1029.33333333 1878.66666667 953.333333333 1996 804 c 0
 2096 676 2148.33333333 518.666666667 2153 332 c 0
 2160.61554034 18.23973818 2024.93553134 -241.214712021 1857 -408 c 0
 1843 -422 1826.33333333 -429 1807 -429 c 128
 1768.64596132 -429 1737 -397.352938406 1737 -359 c 128
 1737 -339.666666667 1744 -323 1758 -309 c 0
 1840.66666667 -226.333333333 1904.66666667 -128.666666667 1950 -16 c 0
 2026 174 2035.33333333 359 1978 539 c 0
 1932.66666667 682.333333333 1851 784.666666667 1733 846 c 0
 1611.91369902 908.53907853 1473.32068168 906.713828792 1361 838 c 0
 1249.66666667 770 1181.66666667 659 1157 505 c 0
 1149 455.666666667 1145 382 1145 284 c 2
 1144 138 l 1
 1524 134 l 1
 1528 636 l 2
 1528 674.354038676 1559.64706159 706 1598 706 c 0
 1632 706 1654.33333333 690 1665 658 c 0
 1668.8964347 647.284804568 1668 643.63056345 1668 635 c 2
 1663 1 l 2
 1661.66666667 -130.333333333 1641.16666667 -225.166666667 1601.5 -283.5 c 128
 1538.99871648 -375.413652231 1438.22091585 -453.646110327 1292.5 -427 c 128
 1102.00802122 -392.167181023 1010.59545143 -221.020331315 1005 -0 c 1
 574 4 l 2
 538.937213285 4 504 35.6495438702 504 69 c 0
 504 103 517 125.666666667 543 137 c 0
 627.417552846 174.275283075 703.799521035 270.38092625 674 393.5 c 128
 651.140655616 487.945186006 560.387319349 570.225617569 445.5 563 c 128
 291.286063112 553.301010259 176.156731049 378.705381809 268 227.5 c 128
 295.333333333 182.5 334 151 384 133 c 0
 409.312333461 124.140683289 431 96.1320582242 431 62.5 c 128
1145 -2 m 1
 1149.66666667 -117.333333333 1178.33333333 -199 1231 -247 c 0
 1274.09448309 -285.558221716 1339.77454234 -307.262411523 1406 -278 c 0
 1496.70366758 -237.801783687 1521.13658584 -145.756061943 1523 -6 c 1
 1145 -2 l 1
EndSplineSet
EndChar

StartChar: ml_ee
Encoding: 101 3343 52
Width: 2257
GlyphClass: 2
Flags: HW
LayerCount: 2
Fore
SplineSet
1040.28125 337 m 6
 1040.28125 561.935444851 1065.26833763 686.198563661 1169.78125 817 c 132
 1265.29508732 936.538790266 1427.30515131 1022.02780138 1633.28125 1010 c 4
 1890.13324994 994.891058827 2102.7338003 818.744970279 2105.28125 564 c 4
 2106.18514593 469.090926825 2051.80927876 365.175138803 1988.28125 304 c 5
 2088.33759309 240.921001095 2159.21085904 123.007831599 2157.78125 -19 c 132
 2156.78125 -118.333333333 2117.78125 -204 2040.78125 -276 c 132
 1963.78125 -348 1872.61458333 -381 1767.28125 -375 c 4
 1677.86998197 -371.916852826 1682.4893812 -228.747208747 1776.28125 -235 c 132
 1796.28125 -236.333333333 1816.28125 -234.666666667 1836.28125 -230 c 4
 1934.87208005 -208.567210858 2015.63930735 -129.529361718 2018.28125 -8 c 4
 2019.67007251 111.438735937 1928.00541778 204.933058667 1821.28125 220 c 4
 1750.48786383 228.849173271 1740.15430961 332.303672907 1808.28125 356 c 4
 1914.4076436 391.873710514 1998.73559607 516.568755044 1951.28125 653 c 4
 1909.20665593 772.990509009 1783.569999 859.884596839 1642.28125 869 c 4
 1481.61458333 879 1359.94791667 831.666666667 1277.28125 727 c 4
 1195.25518427 624.11984976 1180.28125 523.377714416 1180.28125 337 c 6
 1180.28125 135 l 5
 1528.28125 134 l 5
 1532.28125 636 l 6
 1532.28125 697.183077244 1608.90774473 729.373505272 1652.28125 686 c 132
 1666.28125 672 1673.11458333 652.5 1672.78125 627.5 c 132
 1671.28680081 515.416310507 1667.84515095 212.302228162 1670.78125 78.5 c 132
 1673.11458333 -27.8333333333 1671.11458333 -100 1664.78125 -138 c 132
 1658.44791667 -176 1641.94791667 -213.666666667 1615.28125 -251 c 4
 1534.67098755 -366.017081783 1369.18896139 -407.910863463 1225.28125 -333 c 4
 1109.28125 -272.333333333 1047.94791667 -163 1041.28125 -5 c 5
 570.28125 -3 l 6
 494.743853218 -3 475.103424815 105.683315555 545.28125 132 c 132
 626.890143471 162.603335051 712.983614729 259.495057485 682.28125 392 c 132
 659.789639852 489.069054324 564.138621522 574.54912858 446.28125 563.5 c 132
 295.554502043 549.369367379 180.987726253 381.401694642 270.28125 228 c 132
 296.28125 183.333333333 333.614583333 151.333333333 382.28125 132 c 4
 410.994522475 121.365454639 439.749922818 83.8776514636 422.28125 41 c 132
 410.707000517 12.5904785412 373.588117114 -15.6435384538 330.28125 2 c 4
 194.983832385 55.1938564982 77.551067692 204.641554943 103.78125 392 c 132
 127.003157093 557.870764952 262.305484343 686.994678849 435.28125 703.5 c 132
 522.614583333 711.833333333 603.114583333 689.5 676.78125 636.5 c 132
 750.447916667 583.5 798.614583333 508.833333333 821.28125 412.5 c 132
 843.947916667 316.166666667 825.28125 224 765.28125 136 c 5
 1040.28125 135 l 5
 1040.28125 337 l 6
1181.28125 -5 m 5
 1186.61458333 -106.333333333 1222.94791667 -174.333333333 1290.28125 -209 c 4
 1407.5222227 -270.480022269 1512.55950416 -197.749205149 1528.28125 -101 c 4
 1531.61458333 -81.6666666667 1532.61458333 -50 1531.28125 -6 c 5
 1181.28125 -5 l 5
EndSplineSet
EndChar

StartChar: ml_n
Encoding: 103 3346 54
Width: 1289
GlyphClass: 2
Flags: HW
LayerCount: 2
Fore
SplineSet
742.262695312 58.7373046875 m 132
 742.262695312 89.3008071297 775.189203422 124.030273438 805.090820312 124.030273438 c 132
 819.626627604 124.030273438 834.40234375 120.838216146 849.41796875 114.454101562 c 132
 864.43359375 108.069335937 884.569335937 106.049153646 909.825195312 108.393554688 c 4
 960.916992187 113.135091146 998.75358073 137.589518229 1023.33496094 181.756835938 c 132
 1068.41795972 262.758894322 1049.80313084 343.976399202 980.970703125 373.42578125 c 4
 968.530598958 378.748697917 948.336588542 384.365234375 920.388671875 390.275390625 c 6
 849.009765625 405.373046875 l 6
 812.01953125 413.216145833 793.524414062 438.559570312 793.524414062 481.403320312 c 4
 793.524414062 509.176910357 825.841498504 538.307387476 851.796875 542.869140625 c 4
 956.131410607 561.202121821 1033.9811987 681.246402896 945.162109375 786.876953125 c 4
 887.865610855 855.016826929 765.288473768 901.273350286 649.353515625 890.705078125 c 132
 575.555338542 883.977213542 502.844726563 856.550130208 431.221679688 808.423828125 c 132
 343.443355134 749.441370725 275.188600682 653.047542474 249.75 528.0703125 c 5
 308.4765625 578.969401041 374.229166667 605.144856771 447.0078125 606.596679688 c 4
 606.010271947 609.769860445 736.405781554 511.919561831 773.296875 362.486328125 c 4
 793.179036459 281.948567708 783.177083334 205.297200521 743.291015625 132.532226562 c 132
 703.404947916 59.7666015623 643.945963541 10.3336588542 564.9140625 -15.7666015625 c 132
 370.149840798 -80.086894559 226.089400164 45.8905621721 161.537109375 172.4296875 c 4
 155.958333333 180.424479167 144.107421875 209.06640625 125.984375 258.35546875 c 132
 85.4126025713 368.702061185 95.6989616877 536.820155672 137.704101562 644.475585938 c 4
 219.046587207 852.949197309 420.971933744 1034.8069927 689.94921875 1032.234375 c 4
 771.563802083 1031.47591146 843.809570313 1015.58170573 906.686523438 984.551757812 c 4
 1040.79003907 918.370117187 1112.94791667 827.646484375 1123.16015625 712.380859375 c 4
 1130.39192708 630.743489584 1105.03645833 558.984375 1047.09375 497.103515625 c 5
 1171.97401252 437.084231652 1235.43662138 273.085863664 1147.1796875 115 c 4
 1088.06874751 9.1204949183 940.618434093 -75.8379939271 786.064453125 -10.89453125 c 4
 762.671859201 -1.45132568972 742.262695312 26.0552520067 742.262695312 58.7373046875 c 132
626.780273438 211.241210938 m 132
 671.545551822 292.90606296 622.430627212 395.459846106 567.689453125 432.290039062 c 132
 500.072797221 477.784180666 417.127000231 478.529823464 353.01171875 431.5703125 c 132
 303.369786179 395.212664523 262.953616075 325.941529572 283.9296875 240.552734375 c 5
 311.58203125 184.456380208 347.066731771 146.254882813 390.383789062 125.948242188 c 4
 496.042245695 76.4162659268 586.397464338 137.569811533 626.780273438 211.241210938 c 132
EndSplineSet
EndChar

StartChar: k1
Encoding: 106 3349 57
Width: 1896
GlyphClass: 2
Flags: HW
LayerCount: 2
Fore
SplineSet
1467.07253493 -23.3976462133 m 0
 1413.71306769 -23.3976462133 1373 -3.43581935238 1373 49 c 128
 1373 104.410448026 1416.92879063 117.30098801 1469.47445276 117.30098801 c 0
 1568.96973118 117.30098801 1657.13793103 200.620280115 1657.13793103 303.910956232 c 0
 1657.13793103 334.493302794 1648.75862304 365.689650716 1632 397.5 c 128
 1596 465.833333333 1524.33333333 503 1417 509 c 1
 1424.02033596 228.186561501 1265.07984535 -24.0289993123 985.53875939 -24.0289993123 c 0
 850.679524329 -24.0289993123 740.353588728 53.3080140903 679 130 c 1
 628.034901841 48.0918065305 536.625838484 -18.902572051 411.406071493 -18.902572051 c 0
 247.76617295 -18.902572051 99.8959537581 115.453462192 99.8959537581 275.393397706 c 0
 99.8959537581 533.89402794 312.460306295 640.715036835 578 647 c 1
 621.475869988 841.362712888 756.724591914 1022.71220755 988.569651592 1022.71220755 c 0
 1219.81854697 1022.71220755 1355.45118774 843.32503437 1400 650 c 1
 1569.12557689 646.683812218 1695.62483992 578.092900901 1758.5 457 c 128
 1784.68576636 406.568153671 1796.48568882 355.063796329 1796.48568882 305.402216919 c 0
 1796.48568882 129.433956267 1648.33394042 -23.3976462133 1467.07253493 -23.3976462133 c 0
723 648 m 1
 1255 650 l 1
 1218.44313395 769.640652535 1131.52304737 884.379591836 988.737301123 884.379591836 c 0
 846.107459285 884.379591836 758.862697207 767.264318616 723 648 c 1
1277 510 m 1
 702 508 l 1
 697.105218691 314.656138271 794.050523349 113.748299319 988.090147624 113.748299319 c 0
 1181.06638542 113.748299319 1283.28569144 311.372150514 1277 510 c 1
239.935163676 287.711143204 m 0
 239.935163676 196.27560208 315.787025492 122.099099099 404.79847415 122.099099099 c 0
 503.791692822 122.099099099 586.333333333 190.113575153 586.333333333 298.148148147 c 0
 586.333333333 301.753086418 586.222222222 305.370370369 586 309 c 0
 568.626793977 370.474421312 560.641309555 434.66875165 562 506 c 1
 386.156949308 498.966277973 239.935163676 431.949862623 239.935163676 287.711143204 c 0
EndSplineSet
EndChar

StartChar: k2
Encoding: 107 3350 58
Width: 1727
GlyphClass: 2
Flags: HW
LayerCount: 2
Fore
SplineSet
1623 69 m 2
 1623 30.645961324 1591.35293841 -1 1553 -1 c 2
 904 -1 l 2
 873.333333333 -1 850.666666667 15.3333333333 836 48 c 128
 821.333333333 80.6666666667 839 112 889 142 c 0
 943.746357131 174.847814278 1008.10435419 256.760885465 1035 324 c 0
 1113.99331689 519.159959386 1029.94216437 702.5247616 911.5 796.5 c 128
 840.5 852.833333333 765.333333333 882 686 884 c 0
 528 888.666666667 405.666666667 830 319 708 c 0
 276.333333333 647.333333333 251.333333333 577.666666667 244 499 c 1
 297.971239716 559.246965264 390.041502339 612.043666444 506 601 c 0
 662.982207471 586.960940795 794.738639829 452.61100943 792 283.5 c 128
 789.339041067 119.185785887 653.64617798 -16.5280216907 488 -18.5 c 128
 302.222859898 -20.7116326203 180.884374101 127.138185064 130.5 272.5 c 128
 64.9189170464 461.705193349 113.583739284 659.351730051 205.5 790 c 128
 297.27326979 920.445024985 464.137290661 1031.03921466 674 1025 c 0
 931.908548497 1017.91460032 1130.32319299 833.525944898 1187.5 616.5 c 128
 1218.5 498.833333333 1211 384 1165 272 c 0
 1145.66666667 224.666666667 1119.66666667 180.333333333 1087 139 c 1
 1483 139 l 1
 1486 955 l 1
 1486 970 l 2
 1486 996.691166731 1525.8224723 1026 1556 1026 c 128
 1586.11978459 1026 1627 996.678774682 1627 970 c 128
 1627 960 1626.66666667 955 1626 955 c 2
 1623 69 l 2
652 286 m 128
 653.2939611 373.989354791 582.18805169 452.91158086 504 461 c 0
 429.333333333 467.666666667 372.833333333 443.833333333 334.5 389.5 c 128
 296.166666667 335.166666667 289.666666667 278 315 218 c 1
 385.902018719 121.494474521 512.708248216 79.7082482162 603 170 c 128
 635 202 651.333333333 240.666666667 652 286 c 128
EndSplineSet
EndChar

StartChar: k3
Encoding: 108 3351 59
Width: 1819
GlyphClass: 2
Flags: HW
LayerCount: 2
Fore
SplineSet
1266 -22 m 128
 1239.61454217 -22 1206 13.8501219445 1206 41 c 0
 1206 83.6666666667 1230.33333333 110.333333333 1279 121 c 0
 1356.17726682 137.078597253 1440.34320503 199.66287108 1487 255 c 0
 1573.8679641 360.41281037 1608.52921057 507.244229196 1553 654 c 0
 1515 754.666666667 1448 823 1352 859 c 128
 1150.46603833 934.575235627 1002.54313393 824.161704605 974 674 c 0
 968.666666667 646 966 603.666666667 966 547 c 2
 966 455 l 2
 966 300.615932604 949.064926806 215.331100769 877.5 123.5 c 128
 811.258322341 38.4996171628 698.148823239 -24.4947576808 553.5 -17 c 128
 288.642551364 -3.27681613287 91.6666500373 233.471705327 100 492.5 c 128
 108.361337554 752.398242297 259.107067858 939.889392789 455 1019 c 0
 463.666666667 1023 475.166666667 1025 489.5 1025 c 128
 519.266915305 1025 552 990.068853141 552 959.5 c 128
 552 926.846144096 531.484566185 899.13288685 508 890 c 0
 360.813143528 830.127380418 245.811035113 688.940862367 239.5 494 c 128
 234.802108857 348.88736246 320.448449439 216.169041555 433 159 c 0
 518.333333333 114.333333333 599 108.166666667 675 140.5 c 128
 792.26881177 190.390678692 826 283.800103656 826 455 c 2
 826 547 l 2
 826 690.075721751 839.67495609 768.567644298 901 858 c 0
 995.761520356 997.241417666 1191.34778892 1069.49788256 1394 994 c 128
 1528.30640396 943.964280877 1633.26511845 837.345281952 1684 704.5 c 128
 1759.43225879 506.986585547 1708.71955159 308.631301996 1595 166 c 0
 1515.66666667 69.3333333333 1415 7.33333333333 1293 -20 c 0
 1287.66666667 -21.3333333333 1278.66666667 -22 1266 -22 c 128
EndSplineSet
EndChar

StartChar: k4
Encoding: 109 3352 60
Width: 2343
GlyphClass: 2
Flags: HW
LayerCount: 2
Fore
SplineSet
560.013671875 294 m 6
 523.836538465 294 489.994519349 324.978237462 490.013671875 360 c 132
 489.991808849 399.978103779 513.579626181 421.783142767 546.513671875 433.5 c 132
 647.668317516 469.52088991 734.099462579 615.068837684 659.013671875 750 c 4
 622.402360391 814.355070042 537.607495817 883.432743203 430.013671875 863 c 132
 330.789363363 844.16320135 253.386498503 770.330428463 241.513671875 667.5 c 132
 228.740407708 557.226203917 295.347767456 470.541950688 374.013671875 437 c 4
 417.107096241 418.955154757 431.945265366 358.955906691 395.513671875 322.5 c 132
 381.837890625 308.833333333 367.671223958 302 353.013671875 302 c 132
 338.337890625 302 326.337890625 304.333333333 317.013671875 309 c 4
 189.923086593 364.450817972 82.1851077799 504.988762367 102.513671875 684 c 132
 121.408542595 850.723632619 247.246326774 972.033877886 409.013671875 1001.5 c 132
 495.004557292 1017.16666667 578.171223958 999.666666667 658.513671875 949 c 132
 738.837890625 898.333333333 792.171223958 823 818.513671875 723 c 132
 844.837890625 623 826.337890625 527 763.013671875 435 c 5
 1005.01367188 437 l 5
 1006.01367188 517 l 5
 1005.9937923 688.577717899 1028.08448178 785.374281938 1112.01367188 882 c 4
 1200.00455729 982.666666667 1318.50455729 1029.66666667 1467.51367188 1023 c 132
 1674.04289879 1013.7587534 1833.03812134 903.721440264 1879.36411929 725.506884462 c 132
 1892.27353215 675.844807437 1897.82338301 606.675845949 1896.01367188 518 c 6
 1893.01367188 371 l 6
 1891.68535316 334.308714686 1861.63366076 303.277024955 1824.01367188 303 c 6
 1145.01367188 298 l 5
 1145.01367188 140 l 5
 2102.01367188 140 l 5
 2103.01367188 947 l 5
 2103.01367188 948 l 6
 2102.99559226 986.349451987 2134.6557532 1018 2173.01367188 1018 c 132
 2203.22504387 1018 2243.01367188 988.727520775 2243.01367188 962 c 6
 2243.01367188 947 l 5
 2242.01367188 70 l 6
 2241.99559022 31.6462215998 2210.36649807 0 2172.01367188 0 c 6
 1075.01367188 0 l 6
 1036.64971396 0 1005.01367188 31.6372384492 1005.01367188 70 c 6
 1005.01367188 297 l 5
 560.013671875 294 l 6
1747 674 m 132
 1720.19471244 803.558889894 1611.53175499 876.349513467 1462.51367188 882.5 c 132
 1310.90896377 888.75615917 1191.49833696 808.902856398 1160.51367188 679.5 c 132
 1150.83789063 639.166666667 1146.00455729 585 1146.01367188 517 c 6
 1145.01367188 438 l 5
 1755.01367188 442 l 5
 1757.01367188 522 l 6
 1758.33789063 584.666666667 1755 635.333333333 1747 674 c 132
EndSplineSet
EndChar

StartChar: ng
Encoding: 110 3353 61
Width: 2048
GlyphClass: 2
Flags: HW
LayerCount: 2
Fore
SplineSet
1147 46 m 6
 1147 7.67201365661 1114.32679438 -25 1076 -25 c 132
 1037.11160295 -25 1006.30360708 7.19539471553 1005 45 c 5
 1002 424 l 6
 1000.68431248 579.251127482 990.256825445 661.926008535 923 749.5 c 132
 867.389196096 821.909900916 770.18637467 878.54448905 649 874 c 4
 470.910336703 867.563024218 326.113617131 749.284747644 271 596 c 5
 351 660 437.666666667 684.833333333 531 670.5 c 132
 684.521168858 646.923534783 802.184966487 542.763029495 831.5 392 c 132
 858.988060309 250.632832699 798.239284023 134.347488165 722 67.5 c 132
 638.353518452 -5.84220483599 503.589253656 -45.1068466889 368.5 8.5 c 132
 196.680899188 76.6821828621 88.618959243 260.5070655 101.5 480 c 132
 109.833333333 622 165 745.5 267 850.5 c 132
 418.580781384 1006.53903966 647.708372538 1068.52366862 877.5 966.5 c 132
 957.833333333 930.833333333 1023 868.333333333 1073 779 c 5
 1157.81878952 929.311778902 1308.19634716 1024.25370896 1536.5 1016.5 c 132
 1734.86316125 1009.76313792 1900.10778481 885.548234897 1932 719 c 4
 1954.29624345 605.926193922 1907.72071986 509.717084796 1845 458 c 4
 1844 457 1844 457 1843 456 c 5
 1902.32600893 411.225653639 1958.25682168 326.118778825 1946 225 c 4
 1935.33333333 138.333333333 1895.66666667 72.6666666667 1827 28 c 132
 1712.03735792 -46.7815244616 1568.13309964 -34.1406981405 1467 36 c 4
 1446.33333333 50 1436 68.3333333333 1436 91 c 132
 1436 131.767060322 1464.48393474 166 1503 166 c 132
 1520.33333333 166 1538.16666667 159.666666667 1556.5 147 c 132
 1593.98461062 121.101541756 1682.99426202 103.417277648 1731 135 c 4
 1804.23398394 182.000915067 1843.47094947 282.727827727 1760 341 c 132
 1724.66666667 365.666666667 1670 378.333333333 1596 379 c 6
 1536 379 l 6
 1500.65299057 379 1466 410.730373096 1466 444.5 c 132
 1466 490.197578413 1496.1645719 519.059721636 1534 521 c 6
 1603 524 l 6
 1675.66666667 527.333333333 1723.33333333 539 1746 559 c 4
 1802.66666667 610.333333333 1812 671.333333333 1774 742 c 4
 1733.28073459 817.40604706 1645.66907947 870.156364103 1527 875 c 4
 1339.25953501 881.670980989 1195.58839278 780.984179346 1160 617.5 c 132
 1149.33333333 568.5 1144.33333333 503.666666667 1145 423 c 6
 1147 46 l 6
376.675649968 498.23208624 m 4
 328.828510908 471.516055912 298.995177575 429.016055912 287.175649968 370.73208624 c 4
 266.353901105 263.159310701 308.97008883 187.214034041 415.024213143 142.896256259 c 4
 504.79744215 105.381920633 575.956037769 115.91650188 628.5 174.5 c 4
 715.5 271.5 722.569198382 364.503489338 649.707595146 453.510468014 c 132
 576.84599191 542.51744669 485.835343517 557.424652765 376.675649968 498.23208624 c 4
EndSplineSet
EndChar

StartChar: ch1
Encoding: 111 3354 62
Width: 1523
GlyphClass: 2
Flags: HW
LayerCount: 2
Fore
SplineSet
523 301 m 128
 523 271.084023797 488.45002688 238 458 238 c 0
 424 238 401 252 389 280 c 0
 345.131182527 378.704839314 353.167795363 491.113079095 403 578 c 128
 448.849133622 657.942079137 554.670735164 745.44439601 676 744 c 0
 781.333333333 743.333333333 869.5 706.333333333 940.5 633 c 128
 1068.59650347 500.693752289 1065.58072389 280.022429409 951 139 c 1
 1283 140 l 1
 1283 954 l 1
 1284.98520993 993.704198535 1313.78994476 1025 1347.5 1025 c 128
 1390.36753034 1025 1423 996.18867992 1423 955 c 2
 1423 70 l 2
 1423 31.5794260145 1391.4192302 0.125085265991 1353 0 c 2
 121 -4 l 1
 105.5 -4 l 2
 79.2424518832 -4 50 36.141083695 50 66 c 128
 50 104.354038676 81.647061594 136 120 136 c 2
 121 136 l 1
 682 138 l 1
 810.898761771 154.297544592 923.568730416 283.834657054 894.5 418.5 c 128
 878.166666667 494.166666667 842 547.333333333 786 578 c 0
 716 616 651.833333333 615.666666667 593.5 577 c 128
 535.166666667 538.333333333 504.333333333 487.333333333 501 424 c 0
 499.666666667 392.666666667 503 368 511 350 c 128
 519 332 523 315.666666667 523 301 c 128
EndSplineSet
EndChar

StartChar: ch2
Encoding: 112 3355 63
Width: 2478
GlyphClass: 2
Flags: HW
LayerCount: 2
Fore
SplineSet
523 309 m 132
 523 279.084023797 488.45002688 246 458 246 c 4
 424 246 401 260 389 288 c 4
 345.015821237 386.964402217 353.241980518 498.104504244 403 585.5 c 132
 429 631.166666667 464 668.333333333 508 697 c 4
 592.666666667 753 683.666666667 767 781 739 c 4
 936.828025442 693.477206051 1047.5563795 540.180261732 1037 366 c 4
 1031.66666667 281.333333333 1001.33333333 206.333333333 946 141 c 5
 1305 139 l 5
 1151.03690664 379.853155955 1198.75343459 677.673286759 1381.5 861 c 132
 1486.5 966.333333333 1610.33333333 1022.5 1753 1029.5 c 132
 2058.04794982 1044.46730595 2288.74252762 838.557803634 2357 596 c 5
 2402.55291354 450.230676684 2372.99700528 294.67932441 2307 187 c 132
 2247.45416903 89.8462757854 2106.60915886 -18.9637444777 1958 -1 c 4
 1848 12.3333333333 1762.16666667 56.1666666667 1700.5 130.5 c 132
 1602.29063225 248.882102746 1564.37294157 416.775589314 1627 589 c 132
 1674.88992167 720.69728459 1776.40291097 823.74806752 1906 874 c 5
 1776 910 1654.66666667 889.666666667 1542 813 c 4
 1474.66666667 767 1424.33333333 706 1391 630 c 4
 1339.66666667 514.666666667 1338.66666667 398.333333333 1388 281 c 4
 1414.66666667 217.666666667 1452.66666667 164.333333333 1502 121 c 4
 1518 107 1526 89.8333333333 1526 69.5 c 132
 1526 29.9071365086 1495.1461097 -2 1456 -2 c 6
 121 4 l 5
 120 4 l 6
 81.645961324 4 50 35.647061594 50 74 c 132
 50 104.222539198 79.2639969001 144 106 144 c 6
 121 144 l 5
 661 142 l 5
 666.333333333 144 671.666666667 145 677 145 c 4
 796.898065633 157.124523491 889.191718878 255.916811947 897 381.5 c 132
 903.161551355 480.598284286 841.593434177 567.580475143 757.5 599 c 132
 656.087604919 636.890345415 562.655536664 583.050354646 524.5 516.5 c 132
 502.058225863 477.35737069 490.68825924 403.701416711 511 358 c 132
 519 340 523 323.666666667 523 309 c 132
2096 767 m 5
 1985.07904431 771.436838228 1891.3251186 720.495018982 1834 662 c 132
 1773.44610596 600.210312204 1729.31143368 504.571800489 1738.5 383 c 132
 1750.44747195 224.925755691 1915.90431616 74.6574291255 2086.5 166 c 132
 2200.89292194 227.249753481 2273.20830096 385.753896781 2222 558 c 4
 2199.33333333 638.666666667 2157.33333333 708.333333333 2096 767 c 5
EndSplineSet
EndChar

StartChar: ch3
Encoding: 113 3356 64
Width: 1529
GlyphClass: 2
Flags: HW
LayerCount: 2
Fore
SplineSet
1200.14550781 94.033203125 m 128
 1255.86678609 94.033203125 1304.81542969 133.140754264 1304.81542969 184.770507812 c 128
 1304.81542969 245.178917514 1264.44887252 289.430664062 1215.88964844 289.430664062 c 128
 1160.16780115 289.430664062 1111.21972656 250.322346506 1111.21972656 198.692382812 c 128
 1111.21972656 138.28408084 1151.58598824 94.033203125 1200.14550781 94.033203125 c 128
338.139648438 565.243164062 m 128
 397.304696899 565.243164062 446.139648438 614.079807961 446.139648438 673.243164062 c 128
 446.139648438 732.407961532 397.301961676 781.243164062 338.139648438 781.243164062 c 128
 278.975888875 781.243164062 230.139648438 732.405218114 230.139648438 673.243164062 c 128
 230.139648438 614.079153507 278.976551523 565.243164062 338.139648438 565.243164062 c 128
783.5 423 m 128
 746.417946599 423 714.446456722 456.116830073 714.787109375 492.9453125 c 2
 715.859375 608.72265625 l 2
 715.953125 634.240885417 716.16015625 647.170572917 716.48046875 647.51171875 c 0
 710.16015625 731.837239583 670.675130208 797.204427083 598.025390625 843.61328125 c 0
 549.341796875 874.537760417 497.184895833 887.4765625 441.5546875 882.4296875 c 1
 441.8515625 882.143229167 442.418945313 881.884114583 443.256835938 881.65234375 c 0
 529.683523832 842.23212518 622.305764225 722.896526591 565 587 c 0
 527.666666667 499 459.666666667 453.333333333 361 450 c 128
 262.333333333 446.666666667 193.666666667 474.666666667 155 534 c 0
 103.666666667 612.666666667 90.6666666667 694.833333333 116 780.5 c 128
 141.333333333 866.166666667 195.833333333 931.666666667 279.5 977 c 128
 467.565542975 1078.90005516 670.416581803 1002.30885852 772.74609375 871.9140625 c 1
 847.076170487 996.479328149 988.949473952 1067.78730819 1176 1009 c 128
 1297.30293452 970.87622058 1428.68389619 829.494414755 1423.56054688 675.862304688 c 0
 1419.18684896 561.287434896 1376.65494792 466.346354167 1295.96484375 391.0390625 c 1
 1373.96061301 352.615055082 1446.01036318 267.847523258 1426 148.5 c 128
 1408.66625195 45.1165741539 1313.52896255 -42.634507103 1194.5 -37 c 128
 1138.16666667 -34.3333333333 1093.55338542 -16.8111979167 1060.66015625 15.56640625 c 0
 998.88671875 75.85546875 973.361979167 143.333333333 984.0859375 218 c 1
 925.586475044 186.369421438 811.282296136 114.37382384 754.029296875 82.029296875 c 0
 534.676432292 -42.6569010417 360.98046875 -69.9251302083 232.94140625 0.224609375 c 0
 168.740408813 35.432794749 102.330402716 113.251428943 115.786132812 210.5 c 0
 134.128578615 352.302306006 262.577046072 413.33719819 423.952148438 406.470703125 c 128
 541.984049479 401.490234375 653 396.666666667 757 392 c 128
 861 387.333333333 932.137369792 387.536458333 970.412109375 392.609375 c 0
 1107.47070312 410.203125 1202.28385417 466.888671875 1254.8515625 562.666015625 c 0
 1296.2565617 639.200936087 1292.57808838 724.647629061 1240.65234375 795.583007812 c 0
 1210.21744792 835.861002604 1173.42480469 862.927734375 1130.27441406 876.783203125 c 0
 970.195373801 927.429719817 859.302548188 820.966094289 858.322265625 665.551757812 c 0
 858.107421875 639.850585937 857.655598958 620.81640625 856.966796875 608.44921875 c 2
 854.771484375 490.98828125 l 2
 853.75562977 454.134619242 821.299150341 423 783.5 423 c 128
759.146484375 248.01171875 m 1
 535.659179688 268.712890625 l 2
 425.490559896 278.478515625 352.053059896 275.346354167 315.346679688 259.31640625 c 128
 247.522738155 229.69771432 228.035930687 163.142787464 299.018554688 123.671875 c 128
 332.282226563 105.174479167 383.041992187 100.325520833 451.297851562 109.125 c 128
 519.553710937 117.924479167 622.169921875 164.220052083 759.146484375 248.01171875 c 1
EndSplineSet
EndChar

StartChar: ch4
Encoding: 114 3357 65
Width: 3144
GlyphClass: 2
Flags: HW
LayerCount: 2
Fore
SplineSet
500.481445312 47.82421875 m 132
 500.481445312 17.246627159 475.60425609 -21.6181640625 441.838867188 -21.6181640625 c 132
 422.500976563 -21.6181640625 407.653645833 -18.8313802083 397.296875 -13.2578125 c 4
 236.880467116 70.1724548611 100.255762562 246.280365673 100 475.841796875 c 132
 99.7464352653 704.736856319 236.043912197 881.8523847 395.197265625 965.07421875 c 132
 555.322693615 1048.80375135 737.310477343 1048.38350295 894.677734375 977.470703125 c 5
 1009.38411459 1023.12565104 1127.01009115 1031.63509115 1247.55566406 1002.99902344 c 132
 1414.01487014 963.455780788 1551.45973713 840.133612489 1591.10839844 667.514648438 c 132
 1602.39420573 618.377278646 1610.09960938 559.456380208 1614.22460938 490.751953125 c 6
 1618.91796875 412.55859375 l 6
 1627.72372189 265.878829018 1649.45162701 168.859335474 1749.00488281 119.03125 c 132
 1809.46321614 88.7701822917 1865.93326823 101.276692708 1918.41503906 156.55078125 c 132
 1970.89746094 211.824869791 1997.70833334 306.73046875 1998.84765625 441.267578125 c 4
 1998.94921875 467.755859375 1998.63151042 494.373046875 1997.89453125 521.119140625 c 6
 1990.2421875 918.94140625 l 6
 1990.24091063 957.317810143 2021.63989176 989.31640625 2059.76464844 989.31640625 c 132
 2097.69106418 989.31640625 2128.96686574 958.459213353 2130.21484375 921.685546875 c 6
 2138.11328125 526.3359375 l 6
 2138.85026042 489.474609375 2139.21875 462.845703125 2139.21875 446.44921875 c 4
 2155.12275082 304.87370841 2242.28280194 194.138891765 2357.30078125 140.000976562 c 4
 2457.56640625 92.8076171873 2559.74609375 89.954752604 2663.83984375 131.442382812 c 132
 2767.93359375 172.930013021 2839.75878906 246.733398437 2879.31542969 352.852539062 c 132
 2918.85970052 458.937825521 2912.59602865 562.244791667 2860.52441406 662.7734375 c 132
 2808.45214843 763.303385417 2727.68457031 828.019205729 2618.22167969 856.920898438 c 4
 2564.67154948 871.060221354 2511.79752605 873.938802083 2459.59960938 865.556640625 c 4
 2455.6171875 864.862630208 2447.78678385 864.515625 2436.10839844 864.515625 c 132
 2408.21010598 864.515625 2377.56542969 902.360824491 2377.56542969 932.55078125 c 132
 2377.56542969 968.980199553 2405.39309364 999.087994477 2437.40234375 1003.78710938 c 4
 2606.84311655 1030.99493212 2751.63744903 972.572709382 2847.97070312 895.3828125 c 132
 2993.8284822 778.514225582 3100.74711705 544.724195603 3010.93457031 303.791015625 c 132
 2958.9906533 164.446383203 2851.30010227 54.9904807872 2714.24902344 0.3671875 c 4
 2573.47233073 -55.7408854167 2434.55859375 -51.5416666667 2297.5078125 12.96484375 c 4
 2215.53580729 51.5475260417 2148.39583333 107.133463542 2096.08789062 179.72265625 c 5
 2046.16015625 58.837890625 1966.67024739 -11.0592447917 1857.61816406 -29.96875 c 4
 1796.36425781 -40.58984375 1738.88639323 -32.4612630208 1685.18457031 -5.5830078125 c 4
 1543.2544022 65.4527369758 1491.63236594 196.545552042 1479.16992188 404.16796875 c 6
 1474.4765625 482.361328125 l 6
 1467.46728373 599.133593125 1458.5195902 662.322739183 1410.65527344 734.15625 c 4
 1345.81308684 831.469173666 1219.35470739 898.534523404 1050.85546875 874.474609375 c 5
 1174.38541666 761.091796875 1241.42513021 619.852864583 1251.97460938 450.7578125 c 4
 1264.4553721 250.735665032 1177.32179069 89.7232431684 1041.73046875 13.0849609375 c 132
 934.968960744 -47.2582709522 803.291630475 -41.7326631373 703.348632812 21.521484375 c 132
 573.499797374 103.703103732 492.124813478 268.480176649 515.01953125 470.3984375 c 4
 534.766102694 644.54770734 623.581730563 789.319257322 734.34765625 881.947265625 c 5
 531.559687226 919.322939198 372.617591848 810.625925329 299.458984375 689.6640625 c 132
 220.535595484 559.167614268 220.852469397 392.570167526 299.93359375 262.466796875 c 132
 339.8046875 196.873046875 393.791015625 146.3671875 461.892578125 110.94921875 c 4
 480.579287942 101.565312572 500.481445312 74.7552828759 500.481445312 47.82421875 c 132
891.435546875 820.7890625 m 5
 763.018421795 749.043721756 672.514480745 616.768888445 651.9453125 435.364257812 c 132
 643.078125 357.157226563 659.573567708 283.912109375 701.431640625 215.62890625 c 132
 743.290364583 147.346354167 801.089518229 112.3125 874.829101562 110.52734375 c 132
 948.569335937 108.7421875 1007.99479167 140.776692708 1053.10546875 206.630859375 c 132
 1144.24750114 339.684546798 1122.38387836 526.041141198 1045.4921875 658.650390625 c 132
 1005.72005208 727.243489583 954.367838542 781.289713541 891.435546875 820.7890625 c 5
EndSplineSet
EndChar

StartChar: nj
Encoding: 115 3358 66
Width: 2517
GlyphClass: 2
Flags: HW
LayerCount: 2
Fore
SplineSet
1039 802 m 5
 1091.66666667 892.666666667 1160.66666667 955.333333333 1246 990 c 4
 1374.66666667 1043.33333333 1512 1035.66666667 1658 967 c 5
 1756 1013 1840.66666667 1032.66666667 1912 1026 c 4
 2066.66666667 1012 2190 949.833333333 2282 839.5 c 132
 2374 729.166666667 2419 606.666666667 2417 472 c 4
 2414.33333333 270.666666667 2334 108 2176 -16 c 4
 2126.27845924 -55.2538479666 2063 -11.5260618183 2063 42 c 132
 2063 63.3333333333 2072.66666667 81.3333333333 2092 96 c 4
 2183.40051246 164.550384341 2274.39651854 301.686668518 2276 446 c 4
 2278 607.333333333 2220.66666667 730 2104 814 c 4
 2012.66666667 879.333333333 1913.33333333 900 1806 876 c 5
 1921.33333333 772 1990.66666667 640 2014 480 c 4
 2044.92887157 267.916309249 1965.37104498 98.4812145505 1831.5 14.5 c 132
 1727.15370196 -50.9594788945 1592.88768746 -46.9062448708 1493.5 18 c 132
 1370.59327893 98.265613761 1296.73368399 252.661211572 1311 448 c 4
 1324.33333333 622.666666667 1391 765.333333333 1511 876 c 5
 1437 893.333333333 1372 890.666666667 1316 868 c 4
 1198.66666667 820.666666667 1135.66666667 749.833333333 1127 655.5 c 132
 1118.33333333 561.166666667 1114 502.666666667 1114 480 c 6
 1115 38 l 6
 1115 11.3333333333 1101.5 -9.66666666667 1074.5 -25 c 132
 1021.72524321 -54.9708495358 976.371256874 -2.39519248087 975 36 c 5
 975 38 l 5
 973 476 l 6
 972.333333333 578 962.333333333 649.333333333 943 690 c 4
 884.301335718 812.832390071 758.670773284 904.311736881 586 878 c 132
 516 867.333333333 453 839.333333333 397 794 c 4
 309 722.666666667 253.333333333 613.333333333 230 466 c 5
 273.333333333 547.333333333 345 597 445 615 c 132
 545 633 629.5 612.666666667 698.5 554 c 132
 830.726880986 441.575212302 856.252501201 232.029103583 732.5 90.5 c 132
 672.166666667 21.5 596.666666667 -15.3333333333 506 -20 c 4
 380.666666667 -26 286 14.6666666667 222 102 c 5
 91.9620777058 232.037922294 63.4566150858 483.11617021 144 680 c 132
 212.129526181 846.538841775 366.38229407 987.9450219 567 1017 c 132
 781.228088273 1048.02613692 956.41848057 933.432559093 1039 802 c 5
1658 814 m 5
 1532 730 1462.33333333 597.333333333 1449 416 c 4
 1443 340.666666667 1459.5 270.833333333 1498.5 206.5 c 132
 1552.81817932 116.898217011 1660.58022061 71.2376378801 1761 134 c 132
 1870.3205295 202.32533094 1911.77198707 364.806520095 1859.5 535.5 c 132
 1821.83333333 658.5 1754.66666667 751.333333333 1658 814 c 5
607 448 m 4
 539 506.666666667 465.666666667 513.333333333 387 468 c 4
 348.333333333 445.333333333 322.666666667 417.333333333 310 384 c 4
 282.666666667 310.666666667 289 246.666666667 329 192 c 5
 378.333333333 140 431.833333333 115.666666667 489.5 119 c 132
 595.524367797 125.128576173 681.802676279 208.583475134 672.5 319.5 c 132
 668.166666667 371.166666667 646.333333333 414 607 448 c 4
EndSplineSet
EndChar

StartChar: t1
Encoding: 116 3359 67
Width: 1134
GlyphClass: 2
Flags: HW
LayerCount: 2
Fore
SplineSet
1034.63934426 283.965063149 m 4
 1034.63934426 64.4632264834 811.185944757 -29.3168316832 588.568669738 -29.3168316832 c 4
 392.717609385 -29.3168316832 236.528052805 32.7887788779 120 157 c 4
 106.666666667 170.333333333 100 186.666666667 100 206 c 132
 100 244.882062309 131.8229278 276 171 276 c 132
 191 276 208 268.333333333 222 253 c 4
 311.696969696 158.177489178 434.335525943 110.766233767 589.915668742 110.766233767 c 4
 741.860634005 110.766233767 895.537735849 157.645266956 895.537735849 287.743147028 c 4
 895.537735849 420.868496262 747.340225457 446 574 446 c 4
 297.828741402 446.989861142 112.867903768 527.009622402 112.867903768 739.616939512 c 4
 112.867903768 919.324462577 314.28692618 1037.12315271 549.153004381 1037.12315271 c 4
 734.880170117 1037.12315271 877.16250199 972.748846092 976 844 c 4
 986 831.333333333 991 816.166666667 991 798.5 c 132
 991 760.697863281 957.424416127 731 918 731 c 132
 896.666666667 731 879 740.333333333 865 759 c 4
 794.324200913 851.073059361 687.07143304 897.109589041 543.241696381 897.109589041 c 4
 402.144750864 897.109589041 252.597132829 841.214167845 252.597132829 736.119421589 c 4
 252.597132829 607.39790235 411.935455609 588.795958367 561 587 c 4
 837.703753771 583.065823406 1034.63934426 509.264600341 1034.63934426 283.965063149 c 4
EndSplineSet
EndChar

StartChar: t2
Encoding: 117 3360 68
Width: 1238
GlyphClass: 2
Flags: HW
LayerCount: 2
Fore
SplineSet
99.9518085323 499.012009898 m 4
 99.9518085323 799.511542635 320.46552013 1021 622.454101562 1021 c 128
 915.640485332 1021 1138.45410156 796.323885285 1138.45410156 503 c 0
 1138.45410156 219.183847468 903.968214994 -16 620.454101562 -16 c 0
 326.486122614 -16 99.9518085323 205.963794456 99.9518085323 499.012009898 c 4
617.954101562 124 m 132
 838.235693053 124 998.454101562 298.039926674 998.454101562 502.5 c 128
 998.454101562 704.067726432 838.877306484 881 621.454101562 881 c 128
 400.852243426 881 240.361649025 711.239014735 240.361649025 503.904959059 c 0
 240.361649025 288.498551126 404.669253985 124 617.954101562 124 c 132
EndSplineSet
EndChar

StartChar: t4
Encoding: 119 3362 70
Width: 2654
GlyphClass: 2
Flags: HW
LayerCount: 2
Fore
SplineSet
634.305664062 139.321289062 m 132
 661.068439666 139.321289062 690.505859375 99.6246612224 690.505859375 69.47265625 c 132
 690.505859375 31.2708560072 659.087404958 -0.27230428677 621.268554688 -0.6884765625 c 4
 458.845834788 -4.73413363638 325.665114059 67.710314988 240.975585938 156.299804688 c 132
 156.83148725 244.31758181 89.8078840006 379.808369522 101.256835938 543.272460938 c 132
 122.028475695 839.881459698 393.174397045 1059.12814589 692.013671875 1009.44238281 c 4
 843.744273063 984.218213604 983.736143715 880.98566219 1028.38378906 750.155273438 c 132
 1050.59212239 685.080403646 1059.46940104 607.074869792 1055.015625 516.138671875 c 132
 1050.56184896 425.202473958 1051.62695313 357.991210937 1058.2109375 314.504882812 c 132
 1064.79492187 271.017903645 1080.24772135 236.073242187 1104.56933594 209.670898438 c 4
 1175.48186949 132.689279 1259.53067499 112.376287654 1340.05371094 179.901367188 c 4
 1414.52376302 242.349934896 1452.39322917 353.651041667 1453.66210938 513.8046875 c 4
 1453.99739583 556.215494792 1454.19140625 578.938476563 1454.24414062 581.973632812 c 6
 1460.32226562 933.598632812 l 6
 1460.95433519 973.325728608 1489.52675982 1003.40722656 1535.61132812 1003.40722656 c 132
 1569.52273105 1003.40722656 1600.33300781 968.806435332 1600.33300781 933.400390625 c 6
 1600.33300781 933.204101562 l 5
 1594.42675781 579.057617188 l 6
 1594.37011719 575.687825521 1593.99641927 554.439127605 1593.30566406 515.311523438 c 4
 1589.01806724 272.525467258 1740.02541796 115.71372332 1978.06152344 135.020507812 c 4
 2147.22528783 148.741538137 2285.73066155 247.923315327 2357.29980469 373.813476562 c 5
 2262.12207031 312.617513021 2161.64811198 301.358072917 2055.87792969 340.03515625 c 4
 1998.82324219 360.899088542 1953.32714844 391.477539063 1919.38964844 431.770507812 c 4
 1789.94573669 585.456219267 1808.99100407 798.018568516 1950.07910156 919.877929688 c 132
 2072.20907927 1025.36521023 2252.35447976 1029.44727329 2381.55273438 935.759765625 c 132
 2478.80609709 865.237776045 2549.28397409 749.120747564 2554.13085938 597.540039062 c 132
 2556.26106771 530.920247395 2547.09928386 468.946940104 2526.64550781 411.620117188 c 4
 2454.70988469 193.184952283 2249.89594555 16.6093574655 1989.37988281 -4.5205078125 c 4
 1773.66967333 -22.0157470199 1618.18608832 70.0655432105 1532.45996094 206.655273438 c 5
 1481.21292325 100.366311113 1383.51633329 0.669809039894 1226.11425781 -0.3115234375 c 132
 1027.15917977 -1.55193083187 908.972044881 206.843916357 910.524414062 402.599609375 c 4
 910.737955729 429.548177084 911.4921875 454.813476563 912.787109375 478.395507812 c 4
 922.974432374 663.884384151 909.463041595 736.988052573 813.912109375 809.97265625 c 132
 741.709184589 865.123634175 634.639631454 894.213539824 517.010742188 863.96875 c 132
 410.219784691 836.510266044 330.898915373 769.433651678 283.432617188 679.649414062 c 132
 236.670195769 591.196585075 224.619622938 488.15741665 262.646484375 382.833984375 c 132
 298.877339008 282.48859693 371.177416026 207.830832248 468.254882812 167.7578125 c 132
 524.305316609 144.61946514 572.594497226 139.321289062 634.305664062 139.321289062 c 132
2153.98925781 860.166992188 m 4
 2151.56803386 859.914388021 2149.28352865 859.788085938 2147.13574219 859.788085938 c 132
 2144.98860677 859.788085938 2142.98730469 859.862304688 2141.13183594 860.010742188 c 4
 2062.61686198 846.415039063 2009.97949219 802.316731771 1983.21972656 727.715820312 c 4
 1942.34989349 613.779064749 2011.63380594 518.124726723 2080.08203125 482.474609375 c 4
 2209.71075758 414.959647747 2336.8733005 506.097399416 2363.11816406 597.149414062 c 132
 2377.99707031 648.769205729 2377.5452474 692.363932291 2361.76269531 727.93359375 c 4
 2318.68457031 825.01953125 2249.42675781 869.097330729 2153.98925781 860.166992188 c 4
EndSplineSet
EndChar

StartChar: nh
Encoding: 120 3363 71
Width: 2763
GlyphClass: 2
Flags: HW
LayerCount: 2
Fore
SplineSet
1132 44.1015625 m 6
 1131.77086686 8.91411116297 1101.00946228 -25.4482421875 1067.07910156 -25.4482421875 c 132
 1021.5945838 -25.4482421875 992.789999492 4.31061114304 992.001953125 43.138671875 c 6
 989.25390625 411.677734375 l 6
 988.050192333 574.171494686 980.430779105 653.993001513 915.862304688 749.703125 c 132
 885.822591146 794.231119792 846.957682292 829.153645834 799.267578125 854.470703125 c 4
 701.32421875 906.465494792 598.581380208 907.983072917 491.0390625 859.0234375 c 4
 355.616636902 797.371388854 254.291050193 659.557866179 241.27734375 478.603515625 c 5
 297.258445451 552.545109342 400.598950052 610.41582721 511.213867188 602.362304688 c 132
 721.648453262 587.039370895 884.70849644 357.037898857 765.755859375 140.793945312 c 132
 730.940104166 77.503580729 678.282877604 31.171875 607.784179688 1.798828125 c 4
 516.149414063 -36.380859375 419.659830729 -28.8492838542 318.315429688 24.3935546875 c 4
 187.44244037 93.1499740983 91.7297051763 264.263417596 100.595703125 472.750976562 c 4
 110.569676092 707.277265257 247.226019172 902.47389212 434.095703125 987.447265625 c 132
 578.498734005 1053.10881885 735.749186863 1046.69440044 873.166015625 973.745117188 c 132
 946.55859375 934.784830729 1005.99869791 875.694661458 1051.48632812 796.474609375 c 5
 1110.15881624 916.03584208 1241.23232813 1039.42020233 1413.64648438 1028.27148438 c 132
 1570.9716068 1018.09845998 1680.04808723 913.053033262 1736.66992188 797.162109375 c 5
 1815.02908539 932.665869864 1972.84921616 1045.24310898 2181.60253906 1024.55566406 c 132
 2417.56522752 1001.1738104 2582.90850688 850.838739154 2642.06347656 649.404296875 c 132
 2712.41786583 409.82574899 2601.03907762 198.52711348 2464.79296875 90.576171875 c 4
 2350.37955729 -0.0774739583333 2220.71809896 -36.6028645833 2075.80859375 -19 c 4
 2042.18938041 -15.3993451036 2013.25878906 15.0983233215 2013.25878906 52.078125 c 132
 2013.25878906 82.2939383147 2043.52096826 120.615234375 2071.14160156 120.615234375 c 132
 2082.38118489 120.615234375 2089.56380208 120.402994792 2092.68945312 119.978515625 c 4
 2260.1735794 99.6344855782 2406.81264949 192.696052012 2474.95410156 315.874023438 c 4
 2517.67089844 393.092122396 2532.86686198 470.499348958 2520.54199219 548.095703125 c 132
 2508.21777344 625.692708334 2483.43522135 687.465494792 2446.19433594 733.4140625 c 4
 2373.20410157 823.471354167 2283.46419271 873.776041667 2176.97460938 884.328125 c 4
 2118.40234375 890.132161459 2063.23079427 882.541015625 2011.45996094 861.5546875 c 4
 1905.3968099 818.559895833 1839.62174479 734.484375 1814.13476562 609.328125 c 4
 1805.62630208 567.548177083 1801.58398437 505.305338542 1802.0078125 422.599609375 c 6
 1803.94726562 44.11328125 l 6
 1803.66203888 3.13715565687 1775.52697882 -25.6005859375 1726.80761719 -25.6005859375 c 132
 1694.80945174 -25.6005859375 1664.62037674 9.74495105338 1663.94921875 42.994140625 c 6
 1660.953125 418.01953125 l 6
 1659.81184896 560.814453125 1646.34635417 659.944986979 1620.55664062 715.411132812 c 4
 1569.68294271 824.827148437 1499.00911458 882.459635417 1408.53515625 888.30859375 c 4
 1362.44335938 891.288411458 1318.95084636 879.342773437 1278.05761719 852.471679688 c 4
 1154.99448535 771.6062967 1128.30020059 633.125276617 1129.671875 413.912109375 c 6
 1132 44.1015625 l 6
643.15625 208.392578125 m 132
 729.619935743 365.570091751 539.883573859 538.228517805 389.84375 430.244140625 c 132
 335.496780139 391.127422725 292.092976138 303.068675908 332.116210938 219.380859375 c 4
 367.239860326 145.937016567 456.048665008 90.2446978854 558.131835938 132.778320312 c 132
 595.694335938 148.428710937 624.035807292 173.633463542 643.15625 208.392578125 c 132
EndSplineSet
EndChar

StartChar: th1
Encoding: 121 3364 72
Width: 1790
GlyphClass: 2
Flags: HW
LayerCount: 2
Fore
SplineSet
542 39.5 m 128
 542 9.20301575569 509.360725532 -26 480 -26 c 128
 466 -26 454.666666667 -24.3333333333 446 -21 c 0
 256.929373818 52.9223500861 99.7607142802 233.17942649 99.7607142802 488.580545448 c 0
 99.7607142802 797.949073917 347.409128478 1026.11032156 656.982230512 1026.11032156 c 0
 735.951090623 1026.11032156 816.383481483 1010.00377467 891 974 c 1
 892 974 l 1
 971.241307559 1010.3399627 1054.69497969 1026.84665263 1135.69779973 1026.84665263 c 0
 1443.80060553 1026.84665263 1690.91140098 796.166147715 1690.91140098 488.230992057 c 0
 1690.91140098 235.263438376 1539.7077816 57.9009318347 1356 -19 c 0
 1347.33333333 -23 1335.83333333 -25 1321.5 -25 c 128
 1291.99632937 -25 1259 9.8313671186 1259 40 c 128
 1259 72.2065212564 1278.7184775 100.946074581 1302 110 c 0
 1432.67950562 164.449794007 1551.61713967 303.910928227 1551.61713967 478.166629029 c 0
 1551.61713967 707.740962127 1376.23480224 887.853841776 1141.32722881 887.853841776 c 0
 1109.32524982 887.853841776 1075.83371207 884.402163814 1041 877 c 1
 1170.95363837 762.069903638 1254.2365882 611.443846677 1254.2365882 403.994849262 c 0
 1254.2365882 184.674099088 1118.96616829 -18.1255816862 894.601693746 -18.1255816862 c 0
 670.576540172 -18.1255816862 532.814688073 186.893008749 532.814688073 404.738261799 c 0
 532.814688073 608.693508106 618.075525309 763.747325419 744 876 c 1
 709.785905521 883.39764205 676.76337851 886.857387918 645.11430612 886.857387918 c 0
 417.210954662 886.857387918 238.901457976 710.611595779 238.901457976 480.569728777 c 0
 238.901457976 305.099011605 360.550550825 162.374536047 497 110 c 0
 521.415287735 101.004893992 542 72.6412740323 542 39.5 c 128
893 814 m 1
 778.169093453 739.515087645 673.13757648 601.530854583 673.13757648 406.368104799 c 0
 673.13757648 264.927572327 751.790542417 119.492063492 894.412698415 119.492063492 c 1
 1046 120 1114.67013816 231.658814742 1114.67013816 404.09590843 c 0
 1114.67013816 600.279426095 1009.28043716 739.580520219 893 814 c 1
EndSplineSet
EndChar

StartChar: th2
Encoding: 122 3365 73
Width: 1549
GlyphClass: 2
Flags: HW
LayerCount: 2
Fore
SplineSet
241 968 m 0
 244.333333333 448 246 172.666666667 246 142 c 1
 521 141 l 1
 519.666666667 309 518.666666667 405.666666667 518 431 c 0
 512 619.666666667 553 766.166666667 641 870.5 c 128
 729 974.833333333 843.5 1025.83333333 984.5 1023.5 c 128
 1125.5 1021.16666667 1235.66666667 976 1315 888 c 128
 1394.33333333 800 1438 695.666666667 1446 575 c 0
 1447.40900234 554.569466018 1446.79969944 120.103155851 1449 97 c 128
 1453.91151347 45.429108557 1425.24140376 0.965138289303 1384 1 c 2
 201 2 l 1
 156.580935411 -4.73016130132 108.301955238 22.3374323787 107 64 c 0
 104.651110723 193.971873316 103.592487342 814.785987295 102 939 c 1
 93.5743350923 983.936879508 121.655427798 1030.49310856 172 1031.5 c 128
 204.945621046 1032.15891242 241 1000.87368035 241 968 c 0
990 883 m 0
 876.666666667 885 789.333333333 842.333333333 728 755 c 0
 689.333333333 699.666666667 668.166666667 645 664.5 591 c 128
 654.827474765 448.550082898 661 288.978873214 661 141 c 1
 1307 141 l 1
 1307 304 l 2
 1307 331.333333333 1307.83333333 385.166666667 1309.5 465.5 c 128
 1313.06079094 637.130123318 1279.07196414 750.522708072 1175 823.5 c 128
 1120.33333333 861.833333333 1058.66666667 881.666666667 990 883 c 0
EndSplineSet
EndChar

StartChar: th3
Encoding: 123 3366 74
Width: 1206
GlyphClass: 2
Flags: HW
LayerCount: 2
Fore
SplineSet
362 35.5 m 128
 362 -2.56191894196 328.945188598 -32 289 -32 c 128
 267.666666667 -32 249.985351563 -22.744140625 235.956054688 -4.232421875 c 0
 118.866339121 147.852185204 57.9394778177 371.116814656 134 611 c 128
 197.280768839 810.577809416 392.219138141 1003.62083609 627.91796875 1021.79003906 c 0
 803.028240781 1035.19107109 932.693605365 981.269847129 1016.9140625 860.026367188 c 0
 1100.92374565 739.086316749 1085.1177813 574.154542905 981.348632812 472.412109375 c 1
 1060.16177741 422.548320775 1102.37838008 350.294066884 1105.38769531 243.958007812 c 0
 1109.31412773 128.28604281 1019.5434123 24.3495052585 933.854492188 -11 c 0
 834.09409126 -52.387680851 738.284195427 -44.1871600177 646.424804688 13.6015625 c 0
 624.808268229 27.2005208333 614 45.1666666667 614 67.5 c 128
 614 107.576742456 642.65264725 142 680.5 142 c 128
 697.5 142 714.333333333 136.5 731 125.5 c 128
 747.666666667 114.5 769.833333333 107.666666667 797.5 105 c 0
 859.941103833 98.9815803534 907.864606437 120.872205353 941.270507812 170.671875 c 0
 957.756835937 195.557291667 965.762369792 220.465494792 965.287109375 245.396484375 c 0
 962.220221733 346.724046658 889.574424102 379.466978806 769.381835938 381.48046875 c 2
 736.270507812 382.03515625 l 2
 698.997792051 383.353882953 668 413.204202103 668 450.5 c 128
 668 484.131066591 695.971509435 518.397052593 726.202148438 521.1171875 c 2
 753.704101562 523.591796875 l 2
 863.975112034 533.320547611 943.849836031 594.443803557 929 712.5 c 128
 914.187767609 830.257247509 781.75214249 892.699330144 638.5 882 c 128
 462.3901687 868.846568617 314.319861454 717.078481006 266.572265625 566.537109375 c 128
 207.693746534 381.455107827 257.443274537 195.62780728 347.084960938 80.916015625 c 0
 357.028320313 68.3053385417 362 53.1666666667 362 35.5 c 128
EndSplineSet
EndChar

StartChar: th4
Encoding: 124 3367 75
Width: 1908
GlyphClass: 2
Flags: HW
LayerCount: 2
Fore
SplineSet
1199 952 m 132
 1199 990.354038676 1230.64706159 1022 1269 1022 c 4
 1402.33333333 1023.33333333 1519.5 980.666666667 1620.5 894 c 132
 1784.15994063 753.565727511 1873.36348985 500.632328604 1754 257 c 4
 1692.66666667 133 1599.33333333 50 1474 8 c 132
 1235.81375779 -71.8177301014 1034.1166672 38.9292298809 945 187 c 5
 875.024102733 70.3735045545 752.649235648 -16.1740061107 584.5 -21.5 c 132
 415.492062937 -26.8531925767 276.939538222 66.8819592992 200.5 170.5 c 132
 126.058794599 271.409189543 73.2523788798 424.880181605 113 595 c 4
 162.84119845 814.812464961 351.27484182 996.38038155 592 1021 c 4
 619.331222612 1021 628.911082516 1022.0910862 649.5 1001 c 132
 663.166666667 987 670 970.833333333 670 952.5 c 132
 670 915.889429097 641.08578532 884.621983486 607 882 c 4
 428.152220377 862.886496834 287.131311246 728.889925498 250 565 c 4
 238 512.333333333 237.333333333 458 248 402 c 4
 270.666666667 286 332.333333333 203 433 153 c 4
 581.110100675 77.930496918 739.685956428 128.57388533 818 247 c 4
 850.666666667 296.333333333 869.666666667 358 875 432 c 5
 873.666666667 458 873 493.333333333 873 538 c 6
 878 953 l 6
 879.212224931 986.942298068 908.78787611 1022 942.5 1022 c 132
 987.506968662 1022 1017.03585911 990.565635602 1018 952 c 6
 1018 539 l 6
 1018 493 1017 457 1015 431 c 5
 1023.3179627 302.071578227 1084.21569665 197.848646936 1183 150 c 4
 1275 106 1365.5 106.5 1454.5 151.5 c 132
 1543.5 196.5 1603 255.833333333 1633 329.5 c 132
 1747.97442826 611.826096067 1548.17599177 883.885550964 1271 882 c 4
 1270 882 1270 882 1255 882 c 132
 1228.30883327 882 1199 921.822472301 1199 952 c 132
EndSplineSet
EndChar

StartChar: n1
Encoding: 125 3368 76
Width: 1908
GlyphClass: 2
Flags: HW
LayerCount: 2
Fore
SplineSet
1295.5 -21 m 4
 1270.46029982 -21 1238 16.5798646425 1238 43 c 132
 1238 87.1385007891 1265.9158228 115.0833298 1301.66308594 118.3359375 c 4
 1389.22102865 127.4453125 1465.66015625 161.197916667 1530.98046875 219.59375 c 4
 1622.03856771 300.792332167 1667.56761719 400.928933135 1667.56761719 520.003552904 c 4
 1667.56761719 681.783520016 1591.30240141 789.381593478 1475.66308594 847.310546875 c 4
 1430.09096824 870.321076287 1383.57044981 881.826340993 1336.10153066 881.826340993 c 4
 1228.81794885 881.826340993 1146.95630582 838.944774204 1090.51660156 753.181640625 c 4
 1054.80040821 699.002206801 1036.23237436 602.112883884 1034.8125 462.513671875 c 6
 1030.58691406 47.0625 l 6
 1029.81328911 10.0726721215 998.208907016 -22 960.5 -22 c 132
 922.992861329 -22 890.6287587 10.3195195998 890.590820312 47.703125 c 6
 890.170898438 461.484375 l 6
 890.056966146 555.828125 886.833333333 619.833333333 880.5 653.5 c 132
 865.121716236 735.247718955 795.940941716 815.666073045 724.281519668 850.086082391 c 132
 681.135866113 870.810137318 635.917650998 881.172164782 588.626874323 881.172164782 c 132
 541.336097648 881.172164782 492.07245204 868.299021313 440.8359375 842.552734375 c 4
 317.940470095 780.570085757 240.322685757 672.117555531 240.322685757 497.190889401 c 132
 240.322685757 456.217842939 250.048457171 411.939369389 269.5 364.35546875 c 4
 314.5 255.451822917 391.229166667 181.599609375 499.6875 142.798828125 c 4
 562.959819819 120.594750122 613.345404087 109.492711121 650.844252804 109.492711121 c 6
 653.500898646 109.50444846 l 6
 690.501712861 109.50444846 709.080840396 91.1032260567 709.23828125 54.30078125 c 4
 708.994535999 19.2134525889 682.457793638 -20.8059183493 652.398069888 -21.2094405568 c 132
 641.996783146 -21.3490675947 635.986749479 -21.4188811137 634.367968888 -21.4188811137 c 4
 334.296629891 -21.4188811137 98.3157116451 216.17950361 98.3157116451 524.777368329 c 4
 98.3157116451 636.105780201 135.89797443 738.933897008 211.0625 833.26171875 c 4
 287.771774334 928.941013146 427.000778267 1020.80065143 586.971438149 1020.80065143 c 132
 758.770655835 1020.80065143 891.315195055 933.125630517 963.235351562 813.427734375 c 5
 1032.32181218 928.530819356 1163.38087127 1021.72072072 1330.63183183 1021.72072072 c 132
 1499.06333343 1021.72072072 1630.37208915 933.955203574 1708 829.5 c 4
 1774.41306253 740.135364385 1807.6195938 637.582680762 1807.6195938 521.841949129 c 4
 1807.6195938 359.217027939 1743.74639587 221.103044896 1616 107.5 c 4
 1519.66800535 21.8333333333 1412.83467202 -21 1295.5 -21 c 4
EndSplineSet
EndChar

StartChar: p1
Encoding: 127 3370 77
Width: 1671
GlyphClass: 2
Flags: HW
LayerCount: 2
Fore
SplineSet
430 76 m 128
 430 34.23937648 404.475999303 -4 368 -4 c 128
 354 -4 343 -2.66666666667 335 0 c 0
 194.611847341 50.6317927622 72.8676406302 204.482917289 106 396.5 c 128
 133.424726589 555.438756369 273.654779813 691.600426302 453.5 693 c 128
 725.680410256 695.118135488 917.772122982 391.196790622 757 142 c 1
 1431 139 l 1
 1430 956 l 1
 1430 971.5 l 2
 1430 997.757548117 1470.14108369 1027 1500 1027 c 128
 1529.90623018 1027 1570 997.803956229 1570 971.5 c 2
 1570 957 l 1
 1572 69 l 2
 1572 30.6895032217 1540.22162917 -1.16457106209 1502 -1 c 2
 573 3 l 2
 539.323450526 3 504 34.0203085052 504 65.5 c 128
 504 113.459323832 521.828627434 127.36634055 568.5 148 c 128
 631.118100716 175.683791896 691.100960126 282.659243058 669.5 381.5 c 128
 649.128326747 474.715838218 565.200313168 553.206412264 455 552.5 c 128
 298.137967556 551.494474151 182.256726661 377.190951571 269.5 227 c 128
 295.833333333 181.666666667 329.166666667 151.666666667 369.5 137 c 128
 409.833333333 122.333333333 430 102 430 76 c 128
EndSplineSet
EndChar

StartChar: p2
Encoding: 128 3371 78
Width: 2188
GlyphClass: 2
Flags: HW
LayerCount: 2
Fore
SplineSet
2085 71 m 2
 2085 36.2887490006 2057.19110006 -1 2018 -1 c 2
 580 3 l 2
 541.188232675 3 500.048356779 39.1934271179 511.5 85 c 128
 517.833333333 110.333333333 531 127.666666667 551 137 c 0
 629.35513879 172.819492018 699.134727824 267.431061724 673 383.5 c 128
 651.986994413 476.822465987 567.353187329 556.409534017 456 555 c 128
 296.924135629 552.986381464 180.301260949 373.032858433 271.5 222.5 c 128
 299.166666667 176.833333333 338.333333333 145.333333333 389 128 c 0
 419.893965211 118.069796896 448.246975601 82.4647701938 433.5 39 c 128
 423.320178031 8.99631419575 386.961405207 -19.9116315583 344 -4 c 0
 200.266363582 44.6839736255 73.6349345497 199.08209639 105 392.5 c 128
 131.237715701 554.299246822 272.582131399 692.404426232 453.5 694.5 c 128
 726.681473019 697.664264166 923.969311832 393.95226285 762 142 c 1
 1062 141 l 1
 1062 415 l 2
 1062 613.713397262 1084.85388405 723.024335709 1178 838.5 c 128
 1263.65914822 944.693875538 1403.95491071 1019.52612723 1585 1015 c 0
 1756.33333333 1011 1888.66666667 947.333333333 1982 824 c 0
 2068.32955803 709.323422912 2089.43289787 600.441211991 2088 407 c 2
 2085 71 l 2
1934 602 m 128
 1900.75818637 765.992947262 1760.99229206 871.23640255 1580.5 875.5 c 128
 1398.05981337 879.809610708 1254.03564434 774.634718949 1219 611.5 c 128
 1208.33333333 561.833333333 1202.66666667 496.333333333 1202 415 c 2
 1202 140 l 1
 1946 140 l 1
 1948 408 l 2
 1948.66666667 488 1944 552.666666667 1934 602 c 128
EndSplineSet
EndChar

StartChar: p3
Encoding: 129 3372 79
Width: 2550
GlyphClass: 2
Flags: HW
LayerCount: 2
Fore
SplineSet
1112 -2 m 132
 1074.71477228 -2 1042 30.319579692 1042 67 c 6
 1041 439 l 6
 1041 592.595694183 1031.25885089 668.856645318 969 758 c 4
 908.333333333 844.666666667 823 891 713 897 c 132
 495.992527316 908.836771237 332.823547173 768.316695312 271 596 c 4
 263.666666667 576 258.333333333 554.666666667 255 532 c 5
 295.768668058 604.95445863 422.036727696 689.403661325 554 653 c 5
 633.333333333 637.666666667 700.5 590.333333333 755.5 511 c 132
 810.5 431.666666667 824.333333333 342.666666667 797 244 c 4
 755.043158217 95.0532116695 589.827759519 -44.626221989 382.5 23 c 132
 304.833333333 48.3333333333 242.333333333 92.3333333333 195 155 c 4
 103.666666667 275 78.3333333333 417.333333333 119 582 c 4
 153 719.333333333 225.333333333 831.333333333 336 918 c 132
 506.333068801 1051.39336713 734.761306539 1078.18904153 934 974 c 132
 1006.66666667 936 1065.66666667 876.333333333 1111 795 c 5
 1172.31196353 907.052898866 1299.24654676 1013.1971898 1439 1027 c 4
 1609.66666667 1044.33333333 1749.66666667 997.333333333 1859 886 c 4
 1943.10222042 799.684563255 2014.52979588 660.829931332 2005 502 c 4
 1996.33333333 356 1940.66666667 235 1838 139 c 5
 2310 138 l 5
 2311 945 l 6
 2311 995.441040586 2366.1654448 1035.69381957 2410 1009.5 c 132
 2437.33333333 993.166666667 2451 971.666666667 2451 945 c 6
 2450 67 l 6
 2450 28.645961324 2418.35293841 -3 2380 -3 c 6
 1536 0 l 6
 1501.54394612 0 1469.86394057 28.9286239884 1467 59 c 4
 1463.66666667 107 1490.33333333 134.666666667 1547 142 c 4
 1625.81477328 152.061460419 1713.68938533 209.483997361 1761 261 c 4
 1852.91372393 359.686314115 1897.73437546 504.225724189 1842 656.5 c 132
 1804.92308043 757.799440958 1731.41973821 833.802068412 1630 870.5 c 132
 1413.49905926 948.839156189 1227.0196213 813.202978138 1193.5 615 c 132
 1185.83333333 569.666666667 1182 510.666666667 1182 438 c 6
 1182 67 l 6
 1182 28.6199089915 1150.35293841 -2 1112 -2 c 132
666 363 m 4
 644.077796673 497.664963297 467.945740648 581.214610053 347 473 c 4
 299.775975874 429.711311217 261.025368469 348.935169468 297 257 c 5
 346.047232537 158.905534926 503.642356745 104.755446312 605 192 c 132
 657.666666667 237.333333333 678 294.333333333 666 363 c 4
EndSplineSet
EndChar

StartChar: p4
Encoding: 130 3373 80
Width: 1335
GlyphClass: 2
Flags: HW
LayerCount: 2
Fore
SplineSet
418.784179688 48 m 132
 418.784179688 8.81459570332 388.434810898 -24 350.284179688 -24 c 132
 331.950846355 -24 316.117513021 -18.3333333333 302.784179688 -7 c 4
 194.117513021 84.3333333333 128.950846355 200.5 107.284179688 341.5 c 132
 85.617513021 482.5 112.284179688 613.666666667 187.284179688 735 c 132
 262.284179688 856.333333333 368.784179688 940.5 506.784179688 987.5 c 132
 737.839732795 1066.1928333 1047.20397951 1030.29561046 1169.78417969 892 c 4
 1237.41488402 814.532102309 1263.84696045 686.923422475 1190.78417969 597 c 4
 1130.11751302 523.666666667 1039.78417969 498.333333333 919.784179688 521 c 4
 894.450846355 525.666666667 861.117513021 533.333333333 819.784179688 544 c 4
 738.450846355 564.666666667 681.117513021 561.333333333 647.784179688 534 c 132
 614.450846355 506.666666667 609.784179688 476.666666667 633.784179688 444 c 132
 669.904343467 394.836443745 755.950503125 395.493305875 849.784179688 403 c 4
 1031.29051927 418.64709824 1134.62872994 389.507410494 1200.28417969 291.5 c 132
 1246.61912816 222.333337793 1236.00438529 126.991817006 1186.78417969 70 c 4
 1147.45084636 24 1088.95084636 -6 1011.28417969 -20 c 132
 933.617513022 -34 787.450846355 -29.6666666667 572.784179688 -7 c 4
 535.157897378 -3.41654454191 508.784179688 23.2183510583 508.784179688 70.5 c 132
 508.784179688 95.8153952638 542.211761143 133 566.284179688 133 c 132
 577.284179688 133 610.617513021 130 666.284179688 124 c 132
 721.950846355 118 791.617513021 115 875.284179688 115 c 132
 958.950846356 115 1011.11751302 119.333333333 1031.78417969 128 c 4
 1088.45084636 152 1104.11751302 183.166666667 1078.78417969 221.5 c 132
 1053.45084636 259.833333333 990.450846356 274.666666667 889.784179688 266 c 4
 837.117513021 261.333333333 801.450846355 258.666666667 782.784179688 258 c 4
 661.450846355 254.666666667 575.284179688 287.333333333 524.284179688 356 c 132
 473.284179688 424.666666667 464.784179688 494.666666667 498.784179688 566 c 4
 545.165385212 665.719591877 661.905682722 717.059335041 799.784179688 693 c 4
 827.117513021 688.333333333 855.450846355 682 884.784179688 674 c 4
 986.784179689 645.333333333 1051.78417969 648.333333333 1079.78417969 683 c 4
 1091.78417969 697.666666667 1096.45084636 715.666666667 1093.78417969 737 c 4
 1086.45084636 805 1022.78417969 851.5 902.784179688 876.5 c 132
 633.089095078 932.686475961 407.226082686 824.290699054 306.284179688 661.5 c 132
 182.548058137 461.948682585 243.294060153 226.398149851 392.784179688 100 c 4
 410.117513021 86 418.784179688 68.6666666667 418.784179688 48 c 132
EndSplineSet
EndChar

StartChar: m1
Encoding: 131 3374 81
Width: 1398
GlyphClass: 2
Flags: HW
LayerCount: 2
Fore
SplineSet
170 -7 m 2
 131.645961324 -7 100 24.647061594 100 63 c 2
 100 449 l 2
 100 765.120942541 369.837110106 1022.59891599 677.411101863 1022.59891599 c 0
 1042.68419569 1022.59891599 1298 767.318680423 1298 411 c 1
 1296 63 l 2
 1296 24.645961324 1264.35293841 -7 1226 -7 c 2
 170 -7 l 2
638 882 m 1
 421.651944432 852.212948871 250.21035803 683.390824169 240 446 c 1
 240 133 l 1
 508.555450339 133 818.348780488 406.120432886 818.348780488 675.278479741 c 0
 818.348780488 800.251098536 747.40328623 882 638 882 c 1
931 823 m 1
 950.885601578 773.986193294 960.828402367 723.61922435 960.828402367 671.899093169 c 0
 960.828402367 434.393656739 781.507709966 234.955657812 635 133 c 1
 1156 133 l 1
 1156 447 l 1
 1157 447 l 1
 1149.82802945 611.955322558 1054.50537633 750.019550348 931 823 c 1
EndSplineSet
EndChar

StartChar: y1
Encoding: 132 3375 82
Width: 1915
GlyphClass: 2
Flags: HW
LayerCount: 2
Fore
SplineSet
440 1029 m 4
 557 1029 658 950 712 853 c 5
 779 955 879 1028 1025 1028 c 4
 1238 1028 1383 834 1383 615 c 4
 1383 400 1289 234 1153 120 c 5
 1181 115 1208 113 1234 113 c 4
 1483 113 1673 323 1673 563 c 4
 1673 705 1602 830 1521 901 c 4
 1505 915 1497 932 1497 952 c 132
 1497 991 1528 1024 1566 1024 c 132
 1585 1024 1601 1018 1614 1006 c 4
 1718 914 1815 753 1815 575 c 4
 1815 235 1569 -28 1227 -28 c 4
 1148 -28 1070 -11 992 23 c 5
 908 -12 824 -28 745 -28 c 4
 395 -28 100 274 100 636 c 4
 100 847 221 1029 440 1029 c 4
447 890 m 4
 310 890 241 775 241 633 c 4
 241 349 464 114 749 114 c 4
 778 114 807 117 836 122 c 5
 709 235 632 371 632 613 c 4
 632 729 566 890 447 890 c 4
786 680 m 132
 775 645 770 608 770 571 c 4
 770 401 880 248 994 179 c 5
 1126 253 1242 404 1242 606 c 4
 1242 748 1160 888 1026 888 c 4
 895 888 823 800 786 680 c 132
EndSplineSet
EndChar

StartChar: r3
Encoding: 133 3376 83
Width: 1453
GlyphClass: 2
Flags: HW
LayerCount: 2
Fore
SplineSet
459.401712485 50.3042746328 m 4
 459.401712485 15.6919585483 434.503110037 -20.3777777778 389.661728395 -20.3777777778 c 4
 376.598353909 -20.3777777778 364.377777777 -16.5851851852 353 -9 c 4
 218.226258782 75.7149230514 99.6799638379 238.965018901 99.6799638379 444.399763987 c 4
 99.6799638379 796.166207662 380.781963311 1025.56179775 724.803155478 1025.56179775 c 4
 1089.67130071 1025.56179775 1352.93209877 765.024459283 1352.93209877 437.18014716 c 4
 1352.93209877 193.463774013 1172.58885704 -26.0548871482 916.204385271 -26.0548871482 c 4
 683.571388682 -26.0548871482 519.769217449 163.581738716 519.769217449 375.502953509 c 4
 519.769217449 575.579327285 689.817281329 784.543209876 918.127572014 784.543209876 c 4
 966.165980794 784.543209876 1015.79012346 775.028806583 1067 756 c 5
 973.146606155 841.012132105 863.490453001 883.553907281 732.379439373 883.553907281 c 4
 465.73502207 883.553907281 239.208587789 710.066723445 239.208587789 444.832139741 c 4
 239.208587789 292.446889051 326.741492186 171.661567384 427 109 c 4
 448.96991157 95.8180530581 459.401712485 73.0788358353 459.401712485 50.3042746328 c 4
926.5 111 m 132
 1072.62189987 111 1194 232.382363677 1194 378.5 c 132
 1194 524.647952202 1072.61763632 645 926.5 645 c 132
 780.352047798 645 660 524.643780345 660 378.5 c 132
 660 232.378100131 780.356219655 111 926.5 111 c 132
EndSplineSet
EndChar

StartChar: rh
Encoding: 134 3377 84
Width: 1328
GlyphClass: 2
Flags: HW
LayerCount: 2
Fore
SplineSet
667.58686962 878.070213975 m 0
 435.611850982 878.070213975 239.761496323 709.22795568 239.761496323 478.927700935 c 0
 239.761496323 296.086170524 364.141219375 157.930101969 512 116 c 0
 539.003040833 108.284845476 563 79.974314284 563 45.5 c 128
 563 15.6709351181 531.377386599 -22 503 -22 c 0
 467.666666667 -22 417.166666667 -3.33333333333 351.5 34 c 128
 211.182211195 113.774580437 100.166064982 288.003986046 100.166064982 480.085547837 c 0
 100.166064982 782.876718018 347.151937636 1019.03628377 668.590839722 1019.03628377 c 0
 991.893935681 1019.03628377 1228.28983018 768.676090188 1228.28983018 485.299677602 c 0
 1228.28983018 228.362142895 1056.49079666 37.0931641328 847 -19 c 0
 841 -21 831.5 -22 818.5 -22 c 128
 791.703620795 -22 758 13.5637026474 758 41 c 0
 758 81.6666666667 781.333333333 108.333333333 828 121 c 0
 971.217397013 157.566143919 1088.13043478 308.383991756 1088.13043478 480.688869459 c 0
 1088.13043478 703.72262463 892.138467103 878.070213975 667.58686962 878.070213975 c 0
EndSplineSet
EndChar

StartChar: l3
Encoding: 135 3378 85
Width: 1647
GlyphClass: 2
Flags: HW
LayerCount: 2
Fore
SplineSet
170 1 m 2
 131.645961324 1 100 32.647061594 100 71 c 2
 100 389 l 2
 100 592.597077801 118.32717244 703.142127397 206.5 828 c 128
 280.0996841 932.221450477 418.651327491 1023.82481156 584.684716612 1023.82481156 c 0
 868.068920862 1023.82481156 1082.56846295 815.128095206 1082.56846295 532.003323199 c 0
 1082.56846295 463.605201914 1075.99011626 367 1002 367 c 2
 240 366 l 1
 240 141 l 1
 1407 144 l 1
 1405 958 l 1
 1405 973 l 2
 1405 998.895583942 1445.39345054 1029 1475 1029 c 128
 1513.35403868 1029 1545 997.352938406 1545 959 c 2
 1545 958 l 1
 1547 75 l 2
 1547 37.3496878289 1518.73042452 6.19633813237 1477 4 c 1
 170 1 l 2
589.63159892 884.733766234 m 0
 370.56580665 884.733766234 257.784250681 717.907593094 243 506 c 1
 941 507 l 1
 953.615164685 715.150217307 792.58738772 884.733766234 589.63159892 884.733766234 c 0
EndSplineSet
EndChar

StartChar: lh
Encoding: 136 3379 86
Width: 1272
GlyphClass: 2
Flags: HW
LayerCount: 2
Fore
SplineSet
1163 -239.5 m 128
 1163 -278.798105254 1131.44560263 -310 1092 -310 c 2
 384 -310 l 2
 314.666666667 -310 262.666666667 -301 228 -283 c 0
 159.333333333 -247.666666667 118 -196 104 -128 c 0
 95.3333333333 -85.3333333333 99.3333333333 -44.3333333333 116 -5 c 0
 159.651636771 100.491455531 247.956064025 144 398 144 c 2
 780 144 l 2
 868 144 927.333333333 153.333333333 958 172 c 0
 1016.66666667 208 1042.66666667 252.333333333 1036 305 c 0
 1026.66666667 381 968.666666667 419 862 419 c 1
 824 421 l 2
 780.667781707 423.34228207 747.220230636 451.184382086 749.5 494.5 c 128
 751.4464412 531.482382809 782.925972745 562.34738025 822 561 c 0
 922 557.666666667 980.5 580.166666667 997.5 628.5 c 128
 1014.5 676.833333333 1004.66666667 725.333333333 968 774 c 0
 911.333333333 849.333333333 817.666666667 886.333333333 687 885 c 0
 527 883.666666667 405.666666667 838.333333333 323 749 c 1
 449.779745584 778.524050341 553.315049274 720.293405155 609 644.5 c 128
 681.878623514 545.304095772 677.459381123 407.158402548 601 314.5 c 128
 561.666666667 266.833333333 515.666666667 237.666666667 463 227 c 0
 363 207 279.666666667 228.333333333 213 291 c 128
 146.333333333 353.666666667 109.833333333 426.333333333 103.5 509 c 128
 89.5101724833 691.604064429 178.90546844 821.796454092 286 903 c 0
 391.333333333 983 521.666666667 1023.66666667 677 1025 c 0
 861 1027 995.333333333 971.333333333 1080 858 c 0
 1166.17139512 743.657187243 1170.77268285 603.662757516 1062 496 c 1
 1120 451.333333333 1155 397.833333333 1167 335.5 c 128
 1179 273.166666667 1172.33333333 218.666666667 1147 172 c 0
 1080.03414997 46.4390311887 969.477583214 4 780 4 c 2
 397 4 l 2
 337.666666667 4 299.333333333 -2.33333333333 282 -15 c 0
 248.666666667 -39 235.666666667 -68.6666666667 243 -104 c 0
 251.666666667 -148 298.333333333 -170 383 -170 c 2
 1092 -170 l 2
 1130.59730935 -170 1163 -200.70398113 1163 -239.5 c 128
305.22170143 587.84134052 m 128
 240.576236865 536.908550258 236.045573163 458.267961858 296 406 c 0
 358.499012702 346.625937933 442.701482843 342.923229167 493 404 c 128
 592.902951022 525.310726241 424.918102856 682.14759619 305.22170143 587.84134052 c 128
EndSplineSet
EndChar

StartChar: zh
Encoding: 137 3380 87
Width: 1248
GlyphClass: 2
Flags: HW
LayerCount: 2
Fore
SplineSet
836.023762583 1027.70885889 m 4
 1001.13747869 1027.70885889 1148.36673317 891.583644652 1148.36673317 725.669290365 c 4
 1148.36673317 578.165489435 1055.27258564 460.376896918 920.596679688 397 c 5
 944.884055173 352.571874112 956.467986284 306.17553416 956.467986284 261.476230167 c 4
 956.467986284 76.5510664199 769.939931786 -30.9751708774 577.010235199 -30.9751708774 c 4
 427.392104165 -30.9751708774 318.183918311 23.7264141933 231.596679688 104 c 4
 216.263346355 118 208.596679688 132.333333333 208.596679688 147 c 4
 208.596679688 192.438983229 235.511830163 226 278.096679688 226 c 132
 297.096679688 226 313.263346355 219.666666667 326.596679688 207 c 4
 382.446882187 155.936957716 474.460398317 107.177264201 576.249486799 107.177264201 c 4
 700.405267583 107.177264201 817.829340053 178.423563009 817.829340053 260.797093159 c 4
 817.829340053 288.789429611 806.754182899 319.701819898 782.596679688 353 c 5
 726.275449225 342.409683161 671.636212897 337.324716152 619.415356477 337.324716152 c 4
 345.932384811 337.324716152 99.8910366313 478.398018797 99.8910366313 748.127534424 c 4
 99.8910366313 855.311386172 148.873068372 951.099782273 215.596679688 1013 c 4
 228.930013021 1026.33333333 245.096679688 1033 264.096679688 1033 c 132
 295.779704492 1033 333.596679688 1003.06304165 333.596679688 974 c 4
 333.596679688 946 326.263346355 925 311.596679688 911 c 4
 266.539246434 868.593003996 241.158961404 809.338905294 241.158961404 748.17820093 c 4
 241.158961404 562.957052967 428.533412672 478.165517241 619.746025708 478.165517241 c 4
 631.770599627 478.165517241 644.054150955 478.443678161 656.596679688 479 c 5
 565.840377167 564.714285714 520.462225906 651.381893934 520.462225906 739.00282466 c 4
 520.462225906 912.63287851 658.909555073 1027.70885889 836.023762583 1027.70885889 c 4
1009.23470752 722.459817263 m 4
 1009.23470752 812.6111567 922.876064436 887.569793145 827.954943782 887.569793145 c 4
 744.302524882 887.569793145 661.416149444 825.194327497 661.416149444 739.508478795 c 4
 661.416149444 639.600303799 773.518295158 561.980349573 829.596679688 511 c 5
 922.702500061 542.740620582 1009.23470752 624.949925829 1009.23470752 722.459817263 c 4
EndSplineSet
EndChar

StartChar: v1
Encoding: 138 3381 88
Width: 1719
GlyphClass: 2
Flags: HW
LayerCount: 2
Fore
SplineSet
1479 962 m 2
 1479 995.719210189 1516.32085296 1023.50703792 1543.98819154 1023.50703792 c 0
 1578.7919377 1023.50703792 1619 997.467573226 1619 968 c 2
 1619 953 l 1
 1618 63 l 2
 1618 24.645961324 1586.35293841 -7 1548 -7 c 2
 826 -4 l 2
 787.61087359 -4 756 23.8120332509 756 69 c 128
 756 95.5574985577 781.177970964 123.328726145 802 131 c 0
 940.917533475 182.495292581 1050.44539552 314.038966325 1050.44539552 498.055253077 c 0
 1050.44539552 749.147566915 852.395507812 875.912109375 652.104492188 875.912109375 c 0
 447.608398438 875.912109375 240.569800266 744.388495596 240.569800266 498.726055373 c 0
 240.569800266 303.291947717 388.883970301 149.790669966 567 130 c 0
 600.575230382 126.125934956 630 95.6304971227 630 58.5 c 128
 630 28.8195726255 599.886787675 -10 573 -10 c 0
 304.044618462 -10 100.183292154 242.519964258 100.183292154 495.999872785 c 0
 100.183292154 799.258950721 352.070599606 1023.67968705 637.193978517 1023.67968705 c 0
 944.591043093 1023.67968705 1190.96763754 789.091940202 1190.96763754 482.729579702 c 0
 1190.96763754 350.448155476 1144.97842502 234.538295575 1053 135 c 1
 1478 134 l 1
 1479 953 l 1
 1479 962 l 2
EndSplineSet
EndChar

StartChar: z1
Encoding: 139 3382 89
Width: 1909
GlyphClass: 2
Flags: HW
LayerCount: 2
Fore
SplineSet
1810.00512821 406.002288826 m 0
 1810.00512821 181.563810902 1659.0276651 -23.8358208955 1441.29494319 -23.8358208955 c 0
 1237.35364949 -23.8358208955 1092.65451616 151.097900749 1092.65451616 361.634028963 c 4
 1092.65451616 594.281013513 1248.00037328 775.428731408 1422 850 c 1
 1368.51207508 876.436560594 1312.33833755 889.60846547 1257.60743226 889.60846547 c 0
 1058.93040656 889.60846547 946.375120124 746.667265068 946.375120124 546.868168743 c 0
 946.375120124 489.998990285 948 427.367245485 948 404 c 0
 948 175.722442237 796.78267475 -17.1415708397 557.817805889 -17.1415708397 c 0
 281.989664325 -17.1415708397 100.057692308 236.259732365 100.057692308 515.482433432 c 0
 100.057692308 769.992835645 249.960714739 944.330794306 416 1030 c 0
 426 1035.33333333 439 1038 455 1038 c 128
 486.557110346 1038 520 1004.55555163 520 973 c 0
 520 940.333333333 507 917.666666667 481 905 c 0
 348.397659851 836.857130757 240.718008584 705.995078224 240.718008584 513.020546382 c 0
 240.718008584 317.21916916 363.727190669 121.814494385 555.373410983 121.814494385 c 0
 750.698635597 121.814494385 808.156862743 263.362448428 808.156862743 472.984236807 c 0
 808.156862743 800.985285133 935.679143783 1029.39263804 1244.60679738 1029.39263804 c 0
 1583.80571299 1029.39263804 1810.00512821 736.804450723 1810.00512821 406.002288826 c 0
1553 745 m 1
 1384.12278295 710.626761132 1234.67194486 565.840900913 1234.67194486 363.836464948 c 0
 1234.67194486 232.40303577 1309.37113656 117.554726601 1438.01852071 117.554726601 c 0
 1589.02477949 117.554726601 1670.73021133 275.517522329 1670.73021133 418.198093467 c 0
 1670.73021133 542.020710988 1617.89980714 666.965708082 1553 745 c 1
EndSplineSet
EndChar

StartChar: sh
Encoding: 140 3383 90
Width: 1928
GlyphClass: 2
Flags: HW
LayerCount: 2
Fore
SplineSet
398.327148438 76.5 m 128
 398.327148438 35.2973223634 372.02955622 -2 335.327148438 -2 c 128
 320.660481771 -2 308.993815105 0 300.327148438 4 c 0
 179.336798135 56.0145431209 72.7411957861 194.963699899 106.327148438 369 c 128
 134.111558742 512.973762484 259.281293218 632.466524078 421.827148438 638 c 128
 668.215815181 646.387699293 854.744122927 373.136091302 715.327148438 138 c 1
 1231.32714844 138 l 1
 1233.32714844 376 l 1
 1026.78954304 351.16319935 877.113736395 439.743782942 805.327148438 563 c 0
 751.993815105 653 745.660481771 745.333333333 786.327148438 840 c 0
 836.266519033 957.5044014 970.494503042 1048.45092591 1127.32714844 1027.5 c 128
 1214.66048177 1015.83333333 1280.32714844 977.333333333 1324.32714844 912 c 0
 1349.66048177 874.666666667 1363.82714844 842.5 1366.82714844 815.5 c 0
 1372.56347656 749.697265625 1375.39680989 711.863932292 1375.32714844 702 c 2
 1374.32714844 561 l 1
 1487.66048177 613.666666667 1573.66048177 695 1632.32714844 805 c 0
 1660.32714844 857.666666667 1677.32714844 900.833333333 1683.32714844 934.5 c 128
 1692.1133523 983.8003661 1704.9175136 1027 1751.32714844 1027 c 128
 1799.21374437 1027 1828.32714844 998.501327781 1828.32714844 957 c 2
 1828.32714844 68 l 2
 1828.32714844 29.645961324 1796.68008685 -2 1758.32714844 -2 c 2
 534.327148438 -2 l 2
 507.660481771 -2 487.660481771 9.66666666667 474.327148438 33 c 0
 448.792593864 78.3937074052 478.6740991 120.613450273 506.327148438 132 c 0
 577.027575751 162.300183134 640.337022139 246.222564137 617.327148438 349 c 128
 599.101206965 430.409205247 522.58385677 500.866865432 425.827148438 498 c 128
 293.971125048 494.093154863 191.672527661 351.273734154 262.827148438 218 c 128
 283.827148438 178.666666667 311.660481771 151.5 346.327148438 136.5 c 128
 380.993815105 121.5 398.327148438 101.5 398.327148438 76.5 c 128
1109.32714844 888 m 0
 971.392867159 906.217735263 845.012473205 770.338977375 927.827148438 631 c 128
 977.664100065 547.147351231 1082.77752577 494.327221806 1234.32714844 517 c 1
 1235.32714844 703 l 2
 1235.32714844 762.856119792 1228.32714844 803.189453125 1214.32714844 824 c 0
 1189.66048177 860.666666667 1154.66048177 882 1109.32714844 888 c 0
1688.32714844 635 m 1
 1604.99381511 529 1499.99381511 453.666666667 1373.32714844 409 c 1
 1371.32714844 138 l 1
 1688.32714844 138 l 1
 1688.32714844 635 l 1
EndSplineSet
EndChar

StartChar: s1
Encoding: 141 3384 91
Width: 2443
GlyphClass: 2
Flags: HW
LayerCount: 2
Fore
SplineSet
1786.04145748 1026.0647482 m 0
 2099.14492016 1026.0647482 2343.16438356 778.106863395 2343.16438356 460.587727534 c 0
 2343.16438356 200.389353195 2152.70806481 -23.6609247826 1883.62886093 -23.6609247826 c 0
 1597.14402707 -23.6609247826 1447 192.889386062 1447 493 c 128
 1447 701.28578316 1427.70524869 888.036363636 1246.96628099 888.036363636 c 0
 1082.45624252 888.036363636 1041.26757812 613.830078125 1041 488 c 2
 1041 46 l 1
 1042.20647383 7.90989778736 1009.44172911 -23 971.5 -23 c 128
 933.027428059 -23 902.295507923 8.4302702294 901 46 c 1
 901 467 l 2
 901 700.668923162 832.174683292 887.333398508 607.13161486 887.333398508 c 0
 394.603746359 887.333398508 240.991666667 723.240114804 240.991666667 510.716493057 c 0
 240.991666667 286.101721581 407.381810696 116.542857143 634.457142855 116.542857143 c 1
 694.65631581 120.580606548 766 124.643727832 766 57 c 128
 766 -15.1036337423 705.696188275 -23.8343282204 632.075833717 -23.8343282204 c 0
 327.778117914 -23.8343282204 100.790225586 211.250097113 100.790225586 511.584740631 c 0
 100.790225586 806.275891495 325.56703174 1024.4516129 596.515074031 1024.4516129 c 0
 769.409893944 1024.4516129 884.504811249 950.100104004 961 831 c 1
 1006.51450301 922.029006012 1104.43216156 1027.21088961 1235.99004571 1027.21088961 c 0
 1463.17191733 1027.21088961 1581.31300986 831.128381987 1587 590 c 1
 1587 436 l 6
 1587 266.294593528 1703.80835322 114.822525597 1879.21612366 114.822525597 c 0
 2077.6776458 114.822525597 2203.94520548 274.0760678 2203.94520548 472.230249578 c 0
 2203.94520548 706.07956119 2015.9391275 889.201880353 1779 886 c 0
 1732.98088957 886 1707 917.975255543 1707 959 c 0
 1707 1000.11930247 1743.48132853 1026.0647482 1786.04145748 1026.0647482 c 0
EndSplineSet
EndChar

StartChar: h1
Encoding: 142 3385 92
Width: 2151
GlyphClass: 2
Flags: HW
LayerCount: 2
Fore
SplineSet
431 63 m 132
 431 19.6993087668 399.03516603 -8 361 -8 c 4
 352.333333333 -8 344 -6.66666666667 336 -4 c 4
 246 28.6666666667 179.666666667 88 137 174 c 132
 94.3333333333 260 87.3333333333 348.666666667 116 440 c 132
 144.666666667 531.333333333 200.833333333 600.333333333 284.5 647 c 132
 368.166666667 693.666666667 451.666666667 706 535 684 c 132
 687.061056026 643.855881209 802.945441283 528.934516583 816 358.5 c 132
 822 280.166666667 803 207 759 139 c 5
 1174 138 l 5
 1108.66666667 204 1066.5 274.5 1047.5 349.5 c 132
 987.53801084 586.192062475 1063.77070837 777.342432061 1204.5 897.5 c 132
 1304.83333333 983.166666667 1423.33333333 1023.83333333 1560 1019.5 c 132
 1696.66666667 1015.16666667 1813.33333333 961.166666667 1910 857.5 c 132
 2006.66666667 753.833333333 2053.66666667 626.666666667 2051 476 c 4
 2046.46994761 237.417241001 1902.82411964 80.4448863275 1724 -2 c 4
 1715.33333333 -6 1703.66666667 -8 1689 -8 c 132
 1658.81939632 -8 1626 26.6484147557 1626 57.5 c 132
 1626 90.6592286471 1646.5781261 118.002467509 1671 127 c 4
 1789.29595534 175.645065746 1907.83659105 306.738074811 1911 457 c 4
 1913 584.333333333 1878.83333333 685.833333333 1808.5 761.5 c 132
 1738.16666667 837.166666667 1653.33333333 876.666666667 1554 880 c 132
 1346.71647279 886.955823061 1191.63671817 736.381722592 1169 549 c 132
 1143.50045462 337.920429926 1286.13913402 171.827328425 1458 135 c 4
 1487.41511214 128.605410404 1513 99.3856229582 1513 64 c 132
 1513 28.1733152592 1479.6137542 -3.12639961171 1443 -3 c 6
 574 0 l 6
 538.338218544 0 505 30.7934536912 505 65 c 4
 505 99 518.666666667 122 546 134 c 4
 620.40786965 166.553442972 684.715099129 246.691020096 676.5 350.5 c 132
 669.550519388 438.316164096 601.063377189 521.700239988 528 541 c 4
 386.590988277 578.13772025 281.504772348 499.678788119 250 398.5 c 132
 210.025786217 270.121274966 293.901014423 159.145328347 384 128 c 4
 407.216269044 119.874305835 431 92.7524330446 431 63 c 132
EndSplineSet
EndChar

StartChar: avagraha
Encoding: 144 3389 93
Width: 1438
GlyphClass: 2
Flags: HW
LayerCount: 2
Fore
SplineSet
388.224609375 583.44921875 m 132
 388.224609375 613.496967454 417.485983559 653.456054688 443.99609375 653.456054688 c 132
 453.827473958 653.456054688 458.902669271 653.453776042 459.221679688 653.44921875 c 6
 689.678710938 653.44921875 l 5
 735.979492188 960.01171875 l 6
 758.837392945 1111.35777301 766.609709771 1141.02860761 814.076171875 1237.55175781 c 132
 830.536458333 1271.02246094 855.793294271 1304.26106771 889.846679688 1337.26757812 c 4
 973.943684896 1418.77604167 1070.6344401 1449.16927083 1179.91894531 1428.44726562 c 4
 1291.6513702 1407.26275482 1379.7718785 1328.05163997 1417.31347656 1230.02539062 c 132
 1437.00292969 1178.61523437 1442.92285156 1125.6640625 1435.07324219 1071.171875 c 4
 1429.82259114 1030.47135417 1404.63378906 1010.12109375 1359.50683594 1010.12109375 c 4
 1332.68550337 1010.12109375 1295.63476562 1043.00592579 1295.63476562 1068.40625 c 132
 1295.63476562 1079.91276041 1296.87727864 1094.19368489 1299.36230469 1111.24902344 c 132
 1306.9823549 1163.56098761 1266.59103655 1225.97256397 1234.63183594 1252.68554688 c 4
 1183.96907552 1295.03125 1128.76822917 1306.25813802 1069.02929688 1286.36621094 c 132
 1009.29036459 1266.47363281 962.982096355 1223.09960937 930.104492188 1156.24414062 c 4
 908.070638021 1111.43815104 889.505533855 1039.05794271 874.409179688 939.103515625 c 6
 831.266601562 653.44921875 l 5
 1035.22167969 653.44921875 l 6
 1035.5406901 653.453776042 1040.61588541 653.456054688 1050.44726562 653.456054688 c 132
 1076.91209054 653.456054688 1106.21875 613.45195221 1106.21875 583.44921875 c 132
 1106.21875 553.400360186 1076.95771885 513.442382812 1050.44726562 513.442382812 c 132
 1040.61588541 513.442382812 1035.5406901 513.444661458 1035.22167969 513.44921875 c 6
 810.122070312 513.44921875 l 5
 729.608398438 -19.65625 l 6
 700.837939312 -210.158891531 655.254000817 -344.313267614 534.517578125 -416.119140625 c 132
 414.935029716 -487.240035543 279.039865169 -481.016744483 175.538085938 -403.212890625 c 132
 92.8498120934 -341.055659343 22.2378116001 -219.831820499 60.4384765625 -73.25 c 4
 67.3977157081 -44.8962433945 96.5454115817 -19.9296875 131.5546875 -19.9296875 c 132
 161.867888462 -19.9296875 198.434570312 -51.4065085028 198.434570312 -80.1845703125 c 132
 198.434570312 -93.0055338542 197.594075521 -102.462890625 195.913085938 -108.556640625 c 4
 154.850738304 -266.122232428 321.397157347 -379.980474632 461.072265625 -296.912109375 c 132
 548.336441661 -245.012922373 570.588745125 -135.086307518 591.178710938 1.25 c 6
 668.536132812 513.44921875 l 5
 459.221679688 513.44921875 l 6
 458.902669271 513.444661458 453.827473958 513.442382812 443.99609375 513.442382812 c 132
 417.531602878 513.442382812 388.224609375 553.447603228 388.224609375 583.44921875 c 132
EndSplineSet
EndChar

StartChar: a2
Encoding: 145 3390 94
Width: 1000
GlyphClass: 2
Flags: HW
LayerCount: 2
Fore
SplineSet
460.344795939 125.379509848 m 0
 646.303515906 125.379509848 760.625542559 311.150518382 760.625542559 502.397599207 c 0
 760.625542559 697.080001626 650.546875 884.068359375 460.516601562 884.068359375 c 0
 349.803710938 884.068359375 258.923969143 775.442172143 249 670 c 0
 246.392690688 634.801324289 215.554469871 606 178 606 c 128
 147.929611962 606 109 635.87482344 109 663 c 0
 109 865.798951047 283.786132812 1024.36425781 473.9375 1024.36425781 c 0
 742.341796875 1024.36425781 900.664766137 765.701902368 900.664766137 502.651103516 c 0
 900.664766137 228.283708098 722.034208447 -14.9090909091 460.929292929 -14.9090909091 c 0
 265.282353783 -14.9090909091 100 140.437553039 100 340 c 0
 100 364.882647308 137.983440153 397 164.5 397 c 128
 209.25517557 397 238.030898243 368.412933386 240 331 c 0
 248.432883176 217.156077117 340.275016217 125.379509848 460.344795939 125.379509848 c 0
EndSplineSet
EndChar

StartChar: i1
Encoding: 146 3391 95
Width: 340
GlyphClass: 2
Flags: HW
LayerCount: 2
Fore
SplineSet
-157.299833175 1411.50436648 m 4
 127.890030281 1411.50436648 238 1173.92910576 238 896 c 6
 240 47 l 5
 240 46 l 6
 240 7.64596132405 208.352938406 -24 170 -24 c 132
 131.645961324 -24 100 7.64706159402 100 46 c 6
 98 895 l 6
 98 1103.64407757 41.3399778391 1270.98488667 -161.005573331 1270.98488667 c 4
 -274.912130634 1270.98488667 -362.177097732 1195.98259954 -394 1109 c 4
 -403.441322523 1078.31597764 -432.235639165 1062 -468 1062 c 132
 -495.478953349 1062 -530 1096.52288043 -530 1124 c 132
 -530 1138 -528.666666667 1149 -526 1157 c 4
 -475.491047094 1295.63095585 -342.187801833 1411.50436648 -157.299833175 1411.50436648 c 4
EndSplineSet
EndChar

StartChar: i2
Encoding: 147 3392 96
Width: 398
GlyphClass: 2
Flags: HW
LayerCount: 2
Fore
SplineSet
7.22352941178 1206.65204152 m 0
 7.22352941178 1097.55668782 -96.855423811 1014.73495463 -193.396294975 1014.73495463 c 0
 -292.053871852 1014.73495463 -379.117188001 1102.74119324 -379.117188001 1199.6989025 c 0
 -379.117188001 1345.88034767 -247.176650046 1420.65853659 -101.22784057 1420.65853659 c 0
 163.730736954 1420.65853659 298 1273.17564618 298 1003 c 6
 295 49 l 2
 295 3.62747791574 260.20837311 -19.1038586088 225.313025335 -19.1038586088 c 0
 190.20899524 -19.1038586088 155 3.90016825152 155 50 c 2
 158 1003 l 2
 158 1157.72835639 124.310270438 1235.38516996 -2 1269 c 1
 4.14901960785 1247.25882353 7.22352941178 1226.4761707 7.22352941178 1206.65204152 c 0
-172.299804688 1291.51367188 m 0
 -223.750976562 1291.51367188 -277 1250.35253906 -277 1201 c 128
 -277 1155.83984375 -224.856445312 1119 -179.5 1119 c 128
 -131.098632812 1119 -88 1152.08789062 -88 1202 c 128
 -88 1254.83398438 -119.938476562 1291.51367188 -172.299804688 1291.51367188 c 0
EndSplineSet
EndChar

StartChar: u1
Encoding: 148 3393 97
Width: 794
GlyphClass: 2
Flags: HW
LayerCount: 2
Fore
SplineSet
193.842773438 958.834960938 m 132
 193.842773438 989.094686553 224.785819162 1026.41992188 253.05078125 1026.41992188 c 4
 394.913218018 1026.41992188 522.023667301 890.974899378 565.254882812 781.529296875 c 132
 591.660481771 714.681640625 604.400716146 647.364257813 603.475585938 579.577148438 c 4
 601.584059413 440.921021681 544.766262187 257.776409669 435.529296875 38.41796875 c 5
 556.579315238 22.7337470927 653.812278767 -68.1109131862 683.57421875 -177.880859375 c 132
 718.462698462 -306.545950863 662.678800279 -414.512768403 597.841796875 -474 c 132
 533.339119895 -533.180311272 428.807636435 -574.807696551 311.521484375 -539.341796875 c 132
 261.379557292 -524.178385417 219.038085937 -498.394205729 184.497070312 -461.989257812 c 4
 80.267701497 -352.135581482 74.5628438838 -190.852077326 160.798828125 -76.8544921875 c 132
 188.193359375 -40.6402994792 221.963541667 -12.2330729167 262.109375 8.3671875 c 5
 306.0625 89.6165364587 350.300130208 182.453125 394.822265625 286.876953125 c 4
 469.328776042 461.625651042 483.62890625 607.106119792 437.72265625 723.318359375 c 4
 401.374348958 815.33984375 339.1953125 870.087239584 251.185546875 887.560546875 c 4
 220.601971283 893.186616396 193.842773438 922.930244964 193.842773438 958.834960938 c 132
340.841796875 -102 m 156
 287.508463542 -126 255.341796875 -165.666666667 244.341796875 -221 c 132
 222.221106102 -332.273777826 317.991426272 -434.172498989 431.841796875 -408 c 132
 489.841796875 -394.666666667 528.282552083 -359.000976563 547.1640625 -301.002929688 c 4
 588.344994806 -174.540479351 447.828339263 -53.8560559255 340.841796875 -102 c 156
EndSplineSet
EndChar

StartChar: u2
Encoding: 149 3394 98
Width: 974
GlyphClass: 2
Flags: HW
LayerCount: 2
Fore
SplineSet
193.341796875 955 m 4
 193.341796875 987.678396607 223.190535507 1025 253.341796875 1025 c 4
 394.730921597 1025 521.900855673 889.64536477 565.341796875 780.5 c 132
 592.008463542 713.5 604.841796875 635 603.841796875 545 c 132
 602.841796875 455 570.675130208 337.666666667 507.341796875 193 c 4
 496.675130208 168.333333333 476.675130208 124.666666667 447.341796875 62 c 5
 570.675130208 80 682.675130208 50.3333333333 783.341796875 -27 c 4
 890.454783689 -109.974848941 977.863224778 -256.623842077 974.341796875 -428 c 4
 971.008463542 -576.666666667 913.675130208 -699.666666667 802.341796875 -797 c 4
 732.341796875 -858.333333333 657.675130208 -896.333333333 578.341796875 -911 c 4
 425.675130208 -939.666666667 291.008463542 -912.333333333 174.341796875 -829 c 4
 119.31853268 -790.483715064 147.030023892 -701 210.341796875 -701 c 132
 227.675130208 -701 249.341796875 -710.333333333 275.341796875 -729 c 132
 325.604010796 -765.085692046 441.491034164 -794.125668484 534.841796875 -776.5 c 132
 645.936213698 -755.524131089 725.477862928 -690.835617758 782.841796875 -604.5 c 132
 844.546117778 -511.631880661 852.918853774 -346.93771746 792.341796875 -248.5 c 132
 763.008463542 -200.833333333 731.341796875 -164 697.341796875 -138 c 5
 751.341796875 -236.666666667 751.341796875 -338.666666667 697.341796875 -444 c 4
 631.278475532 -572.351595753 434.944669277 -659.201559847 268.841796875 -569 c 132
 218.508463542 -541.666666667 180.008463542 -506.333333333 153.341796875 -463 c 4
 44.0955395462 -284.61054183 122.765448445 -93.191617427 259.341796875 -13 c 5
 325.028658801 135.403651018 461.463934786 393.034378242 464.341796875 547 c 4
 465.675130208 681.666666667 429.008463542 778.666666667 354.341796875 838 c 4
 323.675130208 862.666666667 294.675130208 877.666666667 267.341796875 883 c 4
 218.008463542 893 193.341796875 917 193.341796875 955 c 4
320.341796875 -146 m 5
 286.341796875 -177.333333333 262.008463542 -214 247.341796875 -256 c 4
 214.719397061 -337.555999534 286.690390655 -419.436746668 335.341796875 -445.5 c 132
 475.857233066 -520.776126531 645.257732113 -385.42937457 584.841796875 -227.5 c 132
 550.472919382 -137.658548309 426.950924788 -70.6628829417 320.341796875 -146 c 5
EndSplineSet
EndChar

StartChar: r1
Encoding: 150 3395 99
Width: 392
GlyphClass: 2
Flags: HW
LayerCount: 2
Fore
SplineSet
76 999 m 128
 98.6666666667 999 116 986.666666667 128 962 c 0
 278 663.333333333 325.666666667 355.333333333 271 38 c 0
 240.333333333 -128.666666667 168 -268.333333333 54 -381 c 0
 -43.3489602603 -477.290819388 -147.600566627 -530.84243503 -285.5 -555 c 128
 -453.224178421 -584.382337826 -604.344303334 -519.311393332 -658.5 -411 c 128
 -700.033648962 -327.932702077 -684.431491434 -235.269846228 -630 -176 c 0
 -551.333333333 -86 -423.666666667 -60.6666666667 -247 -100 c 0
 -149 -122 -58.3333333333 -160.666666667 25 -216 c 1
 85 -134 124.666666667 -41.3333333333 144 62 c 0
 193.333333333 349.333333333 149.333333333 630 12 904 c 0
 -17.2096226418 961.091535163 30.8040083172 999 76 999 c 128
-64 -313 m 1
 -170.666666667 -247 -279.333333333 -213.333333333 -390 -212 c 0
 -455.333333333 -210.666666667 -503 -227.333333333 -533 -262 c 0
 -533 -262.666666667 -533.333333333 -263 -534 -263 c 0
 -570.324979233 -304.063020003 -539.58276427 -370.961310947 -506 -393 c 1
 -505.333333333 -393 -505.333333333 -393 -506 -393 c 1
 -427.333333333 -445 -324 -445.666666667 -196 -395 c 0
 -148.666666667 -375 -104.666666667 -347.666666667 -64 -313 c 1
EndSplineSet
EndChar

StartChar: e1
Encoding: 152 3398 100
Width: 1378
GlyphClass: 2
Flags: HW
LayerCount: 2
Fore
SplineSet
486.5 127 m 128
 610.163651863 127 712 227.813734148 712 351.5 c 128
 712 466.383658417 612.828134572 577 502.5 577 c 128
 351.837766447 577 261 486.583197679 261 336 c 128
 261 226.129546564 371.952594029 127 486.5 127 c 128
847.840206186 353.381390157 m 0
 847.840206186 141.538060914 681.483003948 -7.02898769011 494.518966821 -7.02898769011 c 0
 254.957857216 -7.02898769011 99.8309859155 198.438105566 99.8309859155 440.588772069 c 0
 99.8309859155 763.675387347 361.145261723 1011.47208122 691.658412548 1011.47208122 c 0
 1014.3515262 1011.47208122 1278.49211066 748.265115843 1278.49211066 421.282980011 c 0
 1278.49211066 250.108812582 1221.84621859 128.02827742 1126 21 c 0
 1112.62330289 5.51119282774 1092.74937454 -2.99310430038 1072.69834723 -2.99310430038 c 0
 1034.44042274 -2.99310430038 1003.5637238 30.4703205562 1003.5637238 67.5870380593 c 0
 1003.5637238 84.3446147602 1009.49616757 101.245784325 1022 115 c 0
 1092.94315108 193.654363149 1138.14877981 302.626501758 1138.14877981 418.536509033 c 0
 1138.14877981 675.061047886 939.474312368 869.38465145 683.001246701 869.38465145 c 0
 515.171565915 869.38465145 378.758497197 776.608373833 305 657 c 1
 362.406060606 690.187878788 421.924077136 706.781818182 483.554049589 706.781818182 c 0
 694.426598428 706.781818182 847.840206186 533.702804638 847.840206186 353.381390157 c 0
EndSplineSet
EndChar

StartChar: e2
Encoding: 153 3399 101
Width: 1022
GlyphClass: 2
Flags: HW
LayerCount: 2
Fore
SplineSet
687.157226562 654 m 128
 747.757043429 654 797.157226562 704.075209959 797.157226562 764.5 c 128
 797.157226562 824.925304237 747.754136432 875 687.157226562 875 c 128
 626.585104491 875 576.157226562 824.923580171 576.157226562 764.5 c 128
 576.157226562 704.075899924 626.588126695 654 687.157226562 654 c 128
695.657226562 127 m 128
 754.2421875 127 803.157226562 175.563476562 803.157226562 234 c 128
 803.157226562 292.4375 754.239257812 341 695.657226562 341 c 128
 637.043945312 341 589.157226562 292.4375 589.157226562 234 c 128
 589.157226562 175.561523438 637.046875 127 695.657226562 127 c 128
577.607175217 1019.00699301 m 0
 750.190083523 1019.00699301 908.084295365 924.766216894 908.084295365 750.731272417 c 0
 908.084295365 630.87637272 809.82734566 534.780373112 685.979533905 534.780373112 c 0
 559.693923989 534.780373112 464.508577913 634.425307795 464.508577913 758.696128561 c 0
 464.508577913 814.430241052 480.724794129 859.864864865 513.157226562 895 c 1
 366.631789161 851.708393496 242.386012264 670.915629766 242.386012264 513.338335652 c 0
 242.386012264 322.537766721 376.413658296 169.675352258 523.157226562 108 c 1
 486.375213302 161.721201879 469.778623872 212.602399061 469.778623872 258.778444438 c 0
 469.778623872 356.268815601 565.76697987 469.399420398 690.729098618 469.399420398 c 0
 824.446464197 469.399420398 922.303270304 362.27331624 922.303270304 236.381343578 c 0
 922.303270304 79.242346708 783.30768059 -22.3082951031 624.35497147 -22.3082951031 c 0
 331.003280313 -22.3082951031 99.8785165214 230.01442894 99.8785165214 526.057575272 c 0
 99.8785165214 793.19989311 309.57160841 1019.00699301 577.607175217 1019.00699301 c 0
EndSplineSet
EndChar

StartChar: xx
Encoding: 158 3405 106
Width: 142
GlyphClass: 4
Flags: HW
LayerCount: 2
Fore
SplineSet
184 1365 m 128
 184 1393.88734547 220.829365608 1425 251.5 1425 c 128
 339.031300876 1425 341.889423656 1303.76763059 322 1222 c 128
 297.240800278 1120.21217892 226.684517624 1040.31740181 136 1002 c 0
 57.3333333333 968.666666667 -17 964.833333333 -87 990.5 c 128
 -157 1016.16666667 -208.666666667 1051.66666667 -242 1097 c 0
 -306 1185 -325.666666667 1277.66666667 -301 1375 c 0
 -294.597196498 1404.45289611 -265.401081363 1429 -230 1429 c 128
 -199.965968869 1429 -163 1396.77167775 -163 1368.5 c 128
 -163 1331.41003402 -176.264530455 1309.48071858 -167 1262 c 128
 -146.432308461 1156.59058086 -34.068734482 1080.48201901 81 1131 c 128
 154.947215185 1163.46463106 209.259107123 1244.96357151 186 1338 c 0
 184.666666667 1343.33333333 184 1352.33333333 184 1365 c 128
EndSplineSet
EndChar

StartChar: au2
Encoding: 160 3415 108
Width: 1530
GlyphClass: 2
Flags: HW
LayerCount: 2
Fore
SplineSet
368 1006 m 4
 423.333333333 1024.66666667 482.333333333 1027.33333333 545 1014 c 4
 636.333333333 995.333333333 709 947.333333333 763 870 c 5
 817.666666667 940.666666667 889 986.666666667 977 1008 c 4
 1097.66666667 1037.33333333 1206.66666667 1012.66666667 1304 934 c 4
 1413.08965855 848.050572049 1493.84182763 680.557802098 1461.5 503.5 c 132
 1420.63527917 279.782969038 1259.82596582 126.616131435 1069 47 c 132
 866.022214343 -37.6860960025 625.906798031 -34.5372517508 428 54 c 4
 399.141771179 65.7570561865 371.976430918 104.196969567 391 147 c 132
 404.039200501 176.338201128 442.424352622 200.922509946 485 182 c 4
 646.078312518 110.553974286 849.963428365 106.22844126 1015 176 c 132
 1163.03288254 238.583007254 1292.48210916 352.971751043 1323 523 c 132
 1337 601 1325.16666667 674 1287.5 742 c 132
 1249.83333333 810 1195 852.666666667 1123 870 c 4
 1086.33333333 879.333333333 1048.33333333 879.333333333 1009 870 c 4
 890.333333333 842 829.666666667 749.333333333 827 592 c 5
 817.459533416 542.389573763 750.452360656 517.676710958 710 556 c 132
 681.110154993 583.369326849 688 594.622321608 688 656 c 4
 685.863669545 771.36184457 616.910720788 854.461439833 515.5 876 c 132
 477.833333333 884 442.333333333 882.666666667 409 872 c 4
 341 850 294.5 807.5 269.5 744.5 c 132
 244.5 681.5 248 620 280 560 c 4
 309.030065032 506.087022084 261.402517499 438.620619375 198 459 c 132
 179.333333333 465 165.666666667 476.666666667 157 494 c 4
 104.333333333 592 98.5 692.666666667 139.5 796 c 132
 180.5 899.333333333 256.666666667 969.333333333 368 1006 c 4
EndSplineSet
EndChar

StartChar: datemark
Encoding: 164 3449 109
Width: 2321
GlyphClass: 2
Flags: HW
LayerCount: 2
Fore
SplineSet
984.5 -6 m 128
 952.241687606 -6 922 28.8013870765 922 63 c 2
 924 433 l 2
 925.312248728 573.410613937 917.38006627 647.248903909 861 729 c 0
 782.510260084 843.424801564 625.476152163 894.771980992 467.5 832 c 128
 368.061525839 792.488023512 294.896118722 716.346197752 260 613 c 128
 199.810432563 434.746281053 288.408633628 273.897954652 396.5 199 c 128
 469.218620722 148.612294303 580.745779463 117.532207857 695 148 c 0
 738.897023638 162.632341213 784 122.760107519 784 87 c 0
 784 45.6666666667 766.333333333 20.6666666667 731 12 c 0
 474.528212904 -56.392476559 265.405802838 81.4238713343 170.5 241 c 128
 101.624740294 356.807958797 75.2354084054 506.37233472 126.5 658 c 128
 174.343712654 799.509572638 276.48136359 902.336748748 409.5 960 c 128
 477.166666667 989.333333333 548.333333333 1002 623 998 c 0
 795 989.333333333 920.333333333 914 999 772 c 1
 999 772.666666667 999.333333333 773.333333333 1000 774 c 0
 1061.33333333 882.666666667 1165.66666667 953.333333333 1313 986 c 0
 1496.97636217 1026.88363604 1664.73066033 953.719054778 1769 867 c 128
 1836.33333333 811 1887.33333333 739.666666667 1922 653 c 1
 2152 649 l 2
 2187.60925547 649 2222 618.186848443 2222 584 c 128
 2222 537.662995921 2192.36921508 509 2152 509 c 0
 2151 509 2151 509 2150 509 c 2
 1957 512 l 1
 1986.21369901 260.762188522 1849.15345824 78.9318352263 1685 22 c 0
 1487.46029643 -47.4645111453 1316.99460584 65.0793686788 1261.5 207 c 128
 1217.30697682 320.018223205 1246.87342043 439.887816591 1308 513 c 0
 1403.55731639 625.358602794 1549.44617592 658.716445243 1765 655 c 1
 1708.33333333 753.666666667 1623.66666667 816.666666667 1511 844 c 0
 1449 859.333333333 1392 861 1340 849 c 0
 1189.33333333 815 1101 725 1075 579 c 0
 1069 546.333333333 1065.66666667 497.666666667 1065 433 c 2
 1062 63 l 1
 1062 62 l 2
 1061.09805398 21.4124291693 1033.47467708 -6 984.5 -6 c 128
1815 514 m 1
 1711.66666667 516 1639.33333333 514 1598 508 c 0
 1468 489.333333333 1396 435.333333333 1382 346 c 0
 1372 280.666666667 1394.16666667 226 1448.5 182 c 128
 1502.83333333 138 1566.66666667 128.833333333 1640 154.5 c 128
 1758.55156954 195.99304934 1843.58454984 340.811256824 1815 514 c 1
EndSplineSet
EndChar

StartChar: ZWNJ
Encoding: 171 8204 110
Width: 321
GlyphClass: 2
Flags: HW
LayerCount: 2
Fore
SplineSet
66 992 m 5
 225 992 l 5
 225 3 l 5
 66 3 l 5
 66 992 l 5
EndSplineSet
EndChar

StartChar: ZWJ
Encoding: 172 8205 111
Width: 321
GlyphClass: 2
Flags: HW
LayerCount: 2
Fore
SplineSet
148 1003 m 5
 14 795 l 5
 -90 795 l 5
 96 1067 l 5
 -76 1315 l 5
 33 1315 l 5
 111 1194 l 6
 117 1184.66666667 128.333333333 1165 145 1135 c 5
 270 1315 l 5
 377 1315 l 5
 199 1071 l 5
 387 795 l 5
 283 795 l 5
 148 1003 l 5
70 879 m 5
 224 879 l 5
 224 4 l 5
 70 4 l 5
 70 879 l 5
EndSplineSet
EndChar

StartChar: rupee
Encoding: 173 8377 112
Width: 1231
GlyphClass: 2
Flags: HW
LayerCount: 2
Fore
SplineSet
100 1245.5 m 128
 100 1280.23993121 130.405443994 1311 165 1311 c 0
 266.333333333 1310.33333333 368 1310 470 1310 c 2
 1059 1308 l 2
 1094.44898207 1308 1124 1277.77579624 1124 1242.5 c 128
 1124 1207.96715079 1093.79662442 1176.66166829 1059 1178 c 0
 957 1178 855.333333333 1178.33333333 754 1179 c 1
 803.333333333 1108.33333333 821.333333333 1027.33333333 808 936 c 1
 894 936 980.333333333 935.666666667 1067 935 c 0
 1102.44694088 935 1132 905.799119049 1132 870.5 c 128
 1132 835.760068792 1101.59455601 805 1067 805 c 0
 967.666666667 805.666666667 868 806 768 806 c 1
 698.258860536 660.258900864 565.017263634 535.885327134 399 473 c 1
 891 82 l 2
 956.13262556 29.2735888322 874.687881671 -72.3663804003 810 -20 c 2
 218 450 l 2
 174.60795603 484.256876818 196.033933773 557.301323522 248 565 c 0
 407.462022976 592.29530123 541.108075068 690.162112602 619 807 c 1
 470.333333333 807.666666667 321.666666667 808 173 808 c 0
 137.551017933 808 108 838.224203764 108 873.5 c 128
 108 908.580495197 137.352990793 939.3202596 173 938 c 1
 676 937 l 1
 703.687284229 1067.52576851 627.981327888 1164.00266744 523 1179 c 1
 477 1180 l 2
 465.871589726 1180 454.879511488 1175.72938108 441 1180 c 1
 349 1180 257 1180.33333333 165 1181 c 0
 129.553059122 1181 100 1210.20088095 100 1245.5 c 128
EndSplineSet
EndChar

StartChar: uni25CC
Encoding: 174 9676 113
Width: 1131
GlyphClass: 2
Flags: HW
LayerCount: 2
Fore
SplineSet
930 710 m 1
 887.333333333 781.333333333 842 825.666666667 794 843 c 1
 868 944 l 1
 921.333333333 909.333333333 958.666666667 881.333333333 980 860 c 1
 984 858 l 1
 1009.33333333 826.666666667 1027.33333333 802 1038 784 c 1
 930 710 l 1
686 1017 m 1
 666 897 l 1
 623.333333333 903.666666667 590.666666667 907 568 907 c 128
 545.333333333 907 512.666666667 903.666666667 470 897 c 1
 450 1017 l 1
 497.333333333 1027.66666667 537.333333333 1033 570 1033 c 128
 602.666666667 1033 641.333333333 1027.66666667 686 1017 c 1
1098 630 m 1
 1107.33333333 592 1112 554.5 1112 517.5 c 128
 1112 480.5 1107.33333333 443 1098 405 c 1
 972 426 l 1
 978 466 981 495.5 981 514.5 c 128
 981 533.5 978 565 972 609 c 1
 1098 630 l 1
1038 250 m 1
 999.333333333 196.666666667 971.333333333 160.666666667 954 142 c 1
 952 142 l 1
 950.666666667 140.666666667 922.666666667 123.666666667 868 91 c 1
 794 192 l 1
 842 221.333333333 873.333333333 244 888 260 c 1
 912 294.666666667 926 316.333333333 930 325 c 1
 1038 250 l 1
348 843 m 1
 292 811.666666667 260 787.666666667 252 771 c 1
 212 710 l 1
 104 784 l 1
 138.666666667 834.666666667 166 869.333333333 186 888 c 0
 194 894 222 912.666666667 270 944 c 1
 348 843 l 1
170 426 m 1
 42 405 l 1
 34 442.333333333 30 479.666666667 30 517 c 128
 30 554.333333333 34 592 42 630 c 1
 170 609 l 1
 162 587 158 556.5 158 517.5 c 128
 158 478.5 162 448 170 426 c 1
686 18 m 1
 655.333333333 8.66666666667 617 4 571 4 c 128
 525 4 484.666666667 8.66666666667 450 18 c 1
 470 138 l 1
 513.333333333 131.333333333 546.166666667 128 568.5 128 c 128
 590.833333333 128 623.333333333 131.333333333 666 138 c 1
 686 18 l 1
212 325 m 1
 277.523568095 224.093705134 259.200389211 247.910866053 348 192 c 1
 270 91 l 1
 208.666666667 130.333333333 171.333333333 158.333333333 158 175 c 1
 156 175 l 1
 104 250 l 1
 212 325 l 1
EndSplineSet
EndChar

StartChar: r4
Encoding: 178 -1 114
Width: 615
GlyphClass: 2
LigCaretCntFixed: 1
Flags: HW
LayerCount: 2
Fore
SplineSet
453 -166 m 4
 503.854871725 -167.883513768 540.37839806 -236.524981795 495 -278.5 c 132
 481.666666667 -290.833333333 466 -296.666666667 448 -296 c 4
 290 -290 185.666666667 -228 135 -110 c 4
 94.3333333333 -15.3333333333 88.6666666667 135.333333333 118 342 c 4
 129.333333333 424 150.5 543.166666667 181.5 699.5 c 132
 212.5 855.833333333 230 944.833333333 234 966.5 c 132
 240.663112958 1002.59186186 269.512508678 1032.92216817 311.5 1025 c 132
 345.812851634 1018.52587705 370.1183631 985.297936533 362 942 c 4
 300.666666667 635.333333333 262.333333333 429.333333333 247 324 c 4
 221.666666667 141.333333333 223.833333333 14.8333333333 253.5 -55.5 c 132
 283.166666667 -125.833333333 349.666666667 -162.666666667 453 -166 c 4
EndSplineSet
LCarets2: 1 0
EndChar

StartChar: y2
Encoding: 179 -1 115
Width: 598
GlyphClass: 2
LigCaretCntFixed: 1
Flags: HW
LayerCount: 2
Fore
SplineSet
125 975 m 4
 136.712889791 1021.85155917 203.537964235 1043.46203576 242 1005 c 132
 255.333333333 991.666666667 262 978.333333333 262 965 c 132
 262 951.666666667 261 941.666666667 259 935 c 4
 207.666666667 739.666666667 225 559.333333333 311 394 c 4
 358.320447683 301.612459286 439.00546513 179.809735709 490 101 c 4
 618.666666667 -96.3333333333 634.333333333 -269.666666667 537 -419 c 4
 465.711585694 -531.784655469 301.111054707 -635.074053393 110 -565 c 132
 -25.0476336661 -515.482534322 -151.198681997 -356.035217532 -98 -163 c 132
 -74.6666666667 -78.3333333333 -25.3333333333 -13 50 33 c 4
 100.26895072 63.5984917424 158 26.5259726966 158 -31 c 132
 158 -53.6666666667 147 -71.6666666667 125 -85 c 4
 51.2042021091 -130.15862259 -1.76191982214 -237.734665478 53 -341 c 132
 90.7541999782 -412.193634245 189.333907099 -473.712445828 304.5 -434 c 132
 352.833333333 -417.333333333 391.333333333 -387 420 -343 c 4
 513.242944582 -198.228059728 412.751293211 -35.1011223418 341 75 c 132
 302.333333333 134.333333333 270.666666667 183.666666667 246 223 c 4
 90.6666666667 474.333333333 50.3333333333 725 125 975 c 4
EndSplineSet
LCarets2: 1 3
EndChar

StartChar: v2
Encoding: 182 -1 118
Width: 437
GlyphClass: 3
LigCaretCntFixed: 1
Flags: HW
LayerCount: 2
Fore
SplineSet
-303 -246 m 128
 -303 -211.079391928 -276.725791372 -170 -247 -170 c 0
 -24.5 -170 -24.5 -170 198 -170 c 1
 194 954 l 1
 194 969 l 2
 194 994.895583942 234.393450545 1025 264 1025 c 128
 302.354038676 1025 334 993.352938406 334 955 c 2
 334 954 l 1
 338 -240 l 2
 338 -276.620152512 310.984851599 -310 268 -310 c 0
 13 -310 13 -310 -242 -310 c 0
 -275.358433106 -310 -303 -273.122894595 -303 -246 c 128
EndSplineSet
LCarets2: 1 0
EndChar

StartChar: k1cil
Encoding: 170 3455 119
Width: 1964
GlyphClass: 3
Flags: HW
LayerCount: 2
Fore
SplineSet
1340 1381 m 0
 1352 1410.33333333 1370.33333333 1425 1395 1425 c 128
 1419.66666667 1425 1439 1418.66666667 1453 1406 c 0
 1613.66666667 1257.33333333 1647.33333333 1053 1554 793 c 0
 1548.8650605 778.501347307 1498 647 1498 647 c 1
 1630 632.333333333 1731 576 1801 478 c 0
 1896.29068009 345.651833214 1882.067874 163.883587674 1767 53 c 128
 1693.66666667 -17.6666666667 1604 -40 1498 -14 c 0
 1420.60545559 5.34863610197 1349.48586636 72.184674261 1310 147 c 1
 1244.78564719 60.0475295918 1131.87366817 -22.4259579434 985 -21 c 128
 846.997401919 -19.6601689507 741.495074105 56.1831380794 679 133 c 1
 624.956109357 46.1437471815 524.315606784 -25.6886428268 386 -14 c 0
 304.666666667 -7.33333333333 236.166666667 26 180.5 86 c 128
 124.833333333 146 98 212.833333333 100 286.5 c 128
 104.333972471 446.134652682 198.198138998 543.254581496 313.5 600 c 128
 377.166666667 631.333333333 465.333333333 648.333333333 578 651 c 1
 596 730.333333333 625.666666667 797.333333333 667 852 c 0
 753 966.666666667 859 1025 985 1027 c 0
 1048.33333333 1027.66666667 1107.66666667 1013 1163 983 c 0
 1263 929 1334.66666667 844 1378 728 c 1
 1398.66666667 776.666666667 1413.66666667 814 1423 840 c 0
 1495 1042 1473.33333333 1196.33333333 1358 1303 c 0
 1334.31683168 1324.62376237 1328.31683168 1350.62376237 1340 1381 c 0
1255 654 m 1
 1217.04993231 776.475218438 1117.31867517 888.115520767 987 886.5 c 128
 857.915730457 884.899781783 759.84106646 774.803554865 723 652 c 1
 1255 654 l 1
1277 514 m 1
 702 512 l 1
 699.719820231 419.652719365 714.586373569 379.695152111 731.5 320 c 128
 749.092014543 257.910536906 805.9089822 190.054924535 864 155 c 0
 946 105.666666667 1028.33333333 105 1111 153 c 0
 1218.94001535 216.275181411 1282.20136771 349.636780395 1277 514 c 1
1443 512 m 1
 1443 511.333333333 1442.66666667 510 1442 508 c 0
 1389.33333333 360.666666667 1395.66666667 248.333333333 1461 171 c 0
 1548.69620073 67.991764225 1678.39225784 121.673378537 1716.5 228.5 c 128
 1736.83333333 285.5 1724.5 345 1679.5 407 c 128
 1634.5 469 1555.66666667 504 1443 512 c 1
562 510 m 1
 478.666666667 506.666666667 415.666666667 494.333333333 373 473 c 0
 286.333333333 430.333333333 242 371 240 295 c 0
 237.472440181 211.590525967 308.676939115 132.917269895 382 126 c 0
 501.793981986 116.22089943 593.261322633 198.723366923 586 312 c 1
 568.666666667 374 560.666666667 440 562 510 c 1
EndSplineSet
LCarets2: 2 0 0
EndChar

StartChar: nhcil
Encoding: 165 3450 120
Width: 2758
GlyphClass: 2
Flags: HW
LayerCount: 2
Fore
SplineSet
2064 1291.5 m 128
 2064 1322.77076354 2092.64155081 1364 2120 1364 c 128
 2151.07369336 1364 2158.55014472 1364.06303603 2180 1346 c 0
 2270.07586699 1268.46634234 2346.171285 1136.96893992 2337 978 c 1
 2506.79237365 893.912348289 2628.44912202 709.737916706 2654 492 c 128
 2679.36585448 275.838805302 2601.27446502 105.297870495 2463 22 c 128
 2407.66666667 -11.3333333333 2350.33333333 -26 2291 -22 c 0
 2175 -14 2087 41.3333333333 2027 144 c 0
 1947.66666667 280 1954 438.666666667 2046 620 c 0
 2060.21141508 647.53461672 2155.8396305 821.526528146 2166.5 853 c 128
 2173.5 873.666666667 2175.66666667 884 2173 884 c 0
 2116.33333333 892 2062 886 2010 866 c 0
 1904 824.666666667 1838.66666667 740 1814 612 c 0
 1806 569.333333333 1802 506 1802 422 c 2
 1804 44 l 2
 1804 5.91250840849 1772.43980355 -26 1734.5 -26 c 128
 1695.51380691 -26 1665.2799611 5.6011670039 1664 44 c 2
 1661 418 l 2
 1659.66666667 560.666666667 1646.33333333 660 1621 716 c 0
 1570.33333333 825.333333333 1499.66666667 882.666666667 1409 888 c 0
 1363 890.666666667 1319.33333333 878.666666667 1278 852 c 0
 1155.04070757 771.404833535 1128.17901738 632.517914126 1130 414 c 2
 1132 44 l 2
 1132 5.91250840849 1100.43980355 -26 1062.5 -26 c 128
 1023.51380691 -26 993.2799611 5.6011670039 992 44 c 2
 989 412 l 2
 987.698556515 574.680435638 980.522891986 652.932583044 916 749 c 128
 851.89911382 844.439097201 703.832146855 925.653969438 556.5 882 c 128
 475.5 858 414 823.333333333 372 778 c 0
 293.333333333 691.333333333 249.666666667 591.333333333 241 478 c 1
 297.596241853 552.160592773 399.176849358 611.063034058 511 602.5 c 128
 721.39195634 586.388904244 885.064374512 358.521453436 766 141 c 128
 731.333333333 77.6666666667 678.666666667 31.3333333333 608 2 c 0
 516.666666667 -36.6666666667 420 -29.3333333333 318 24 c 0
 188.090166884 93.1009750619 90.9873470586 263.73681882 101 472 c 0
 111.338047532 707.707483726 246.368809322 903.382012047 434 988 c 128
 578.659402894 1053.23855425 735.633608747 1046.42955175 873 974 c 128
 946.333333333 935.333333333 1006 876 1052 796 c 1
 1052 796 1052 796 1053 800 c 0
 1108.87440429 918.590572373 1245.99681321 1039.50019917 1414 1029 c 128
 1570.283587 1019.23227581 1679.06683315 914.352252217 1735 800 c 1
 1787.66666667 892.666666667 1858.33333333 956.833333333 1947 992.5 c 128
 2035.66666667 1028.16666667 2118.66666667 1038.66666667 2196 1024 c 0
 2196.66666667 1024 2197 1023.33333333 2197 1022 c 1
 2189.66666667 1111.33333333 2153.66666667 1184 2089 1240 c 0
 2072.33333333 1254 2064 1271.16666667 2064 1291.5 c 128
2308 832 m 1
 2278.89481758 747.215338165 2201.71271056 612.927826881 2163 538 c 128
 2142.33333333 498 2126.5 448 2115.5 388 c 128
 2104.5 328 2115.83333333 269 2149.5 211 c 128
 2198.10634585 127.262334879 2299.79999716 85.4226786576 2394.5 144 c 128
 2490.02573826 203.088085523 2533.27464028 322.642670939 2515 479.5 c 128
 2497.06656623 633.428639898 2421.06356781 761.822613081 2308 832 c 1
643.5 208 m 128
 729.338417565 364.617463628 539.726233308 539.624914361 390 431 c 128
 335.934294825 391.775860951 291.679068542 303.867537432 332 220 c 0
 367.232416345 146.51524591 455.857318811 91.2162536751 558.5 133 c 128
 596.166666667 148.333333333 624.5 173.333333333 643.5 208 c 128
EndSplineSet
LCarets2: 2 0 0
EndChar

StartChar: n1cil
Encoding: 166 3451 121
Width: 2051
GlyphClass: 2
Flags: HW
LayerCount: 2
Fore
SplineSet
988 -22 m 128
 950.184641927 -22 918 8.453255048 918 46 c 2
 916 508 l 1
 916 516 l 1
 918.400765184 660.045911047 867.167623147 764.057388809 762.300573888 828.034433286 c 128
 657.433524629 892.011477762 553.166666667 898.333333333 449.5 847 c 128
 345.833333333 795.666666667 280.666666667 717 254 611 c 128
 227.333333333 505 241.666666667 406 297 314 c 128
 352.333333333 222 431.333333333 162.333333333 534 135 c 0
 584.666666667 121.666666667 635 118.333333333 685 125 c 0
 688.333333333 125.666666667 695.5 126 706.5 126 c 128
 733.820631261 126 765 87.5017015136 765 57.5 c 128
 765 20.3720758182 735.569846674 -10.126556153 702 -14 c 0
 558.666666667 -32.6666666667 429.333333333 1.33333333333 314 88 c 128
 198.666666667 174.666666667 129.666666667 290 107 434 c 0
 95.6666666667 503.333333333 99 573.333333333 117 644 c 0
 166.857980309 841.264182961 343.888809851 1016.35978782 585 1018 c 0
 777.796214353 1019.94743651 917.662210489 915.156745216 992 788 c 1
 1081.19432041 932.252542889 1268.87733137 1054.55693187 1499 1012 c 1
 1505.39392279 1130.28757158 1441.80165299 1223.34067946 1362 1271 c 0
 1338.66666667 1284.33333333 1327 1302.5 1327 1325.5 c 128
 1327 1365.72897932 1355.05439614 1402 1392.5 1402 c 128
 1408.83333333 1402 1422.66666667 1398.33333333 1434 1391 c 0
 1554.09010571 1318.72354749 1665.87188837 1159.86211346 1635 970 c 1
 1635 967 l 1
 1812.93962483 878.947402147 1942.79221203 702.912222091 1952 452 c 0
 1958.49261415 251.811063814 1870.43705546 93.0374150623 1732.5 18.5 c 128
 1625.54685855 -39.2945546982 1497.22066262 -31.791243999 1401 29.5 c 128
 1352.33333333 60.5 1313.66666667 100 1285 148 c 0
 1217.66666667 261.333333333 1209.66666667 388.666666667 1261 530 c 0
 1309.19654689 661.094607548 1402.91346805 755.97655226 1460 877 c 1
 1396 886.333333333 1337.16666667 879.5 1283.5 856.5 c 0
 1132.5 791.785714286 1057 675.285714286 1057 507 c 2
 1058 47 l 2
 1058 8.61990899149 1026.35293841 -22 988 -22 c 128
1594 830 m 1
 1576 789.333333333 1550.16666667 743.666666667 1516.5 693 c 128
 1482.83333333 642.333333333 1460 607.666666667 1448 589 c 0
 1358 445 1343.33333333 322.666666667 1404 222 c 0
 1443.33333333 156 1498.83333333 121.5 1570.5 118.5 c 128
 1727.42942013 111.930861483 1817.91767358 284.672209133 1812 448 c 0
 1806.29237921 618.277353513 1720.45676282 758.050462536 1594 830 c 1
EndSplineSet
LCarets2: 2 0 0
EndChar

StartChar: l3cil
Encoding: 168 3453 122
Width: 2092
GlyphClass: 3
Flags: HW
LayerCount: 2
Fore
SplineSet
1314 1347 m 4
 1314 1371.99946941 1348.49792952 1408 1373 1408 c 132
 1385 1408 1393.33333333 1407.66666667 1398 1407 c 4
 1537.07201317 1380.5763175 1641.88043761 1277.10886152 1681 1146.5 c 132
 1701.66666667 1077.5 1701.33333333 1000 1680 914 c 5
 1826.1177395 818.552121778 1944.78162509 663.146468301 1981 473 c 4
 2019.90493012 271.805932798 1946.72630177 106.056777482 1822 24 c 132
 1721.43083505 -42.1639243061 1588.85307421 -39.1169420308 1491 27 c 132
 1441.66666667 60.3333333333 1403.33333333 103.666666667 1376 157 c 4
 1311.33333333 281 1313.33333333 424.666666667 1382 588 c 4
 1406.77413074 645.806305063 1485.24665321 791.507027956 1509 846 c 5
 1359.66666667 908.666666667 1208 914.666666667 1054 864 c 5
 1171.91210937 754.314453125 1237.91210937 615.647786459 1252 448 c 4
 1267.33490017 256.313747895 1189.63951965 103.180102393 1067.5 24 c 132
 972.500718903 -37.5857408492 844.149547516 -44.7510268038 740 14 c 132
 607.075378732 88.9831196895 522.261684133 252.268241399 544 449 c 4
 564.453995391 625.780960161 659.222678612 770.219059684 772 865 c 5
 498.697565871 939.79856092 285.594648262 757.804649995 247 540.5 c 132
 211.583233663 341.08820693 321.228604297 179.852111585 449 107 c 4
 473 93.6666666667 485 75.3333333333 485 52 c 132
 485 11.5831067637 457.291508341 -24 420 -24 c 132
 404 -24 390.333333333 -21 379 -15 c 4
 207.876202746 83.4241448259 61.0782738205 297.565850675 109 565 c 132
 168.321617611 896.052898281 544.615697695 1146.28099414 917 959 c 5
 1105.86218597 1050.84393975 1344.10336766 1063.84046539 1551 980 c 5
 1567 1078.66666667 1543.33333333 1157 1480 1215 c 4
 1448.66666667 1243 1416.33333333 1260 1383 1266 c 4
 1336.33333333 1274.66666667 1313.33333333 1301.66666667 1314 1347 c 4
915 797 m 5
 777.666666667 707.666666667 699.666666667 580.333333333 681 415 c 4
 667.452012629 297.236725162 723.729615251 185.289138875 806 137 c 4
 915.985207068 75.1333210244 1021.36001071 144.031741498 1067 218 c 4
 1103.66666667 277.333333333 1119 345 1113 421 c 4
 1100.33333333 586.333333333 1034.33333333 711.666666667 915 797 c 5
1631 777 m 5
 1619.66666667 751.666666667 1594.66666667 701.833333333 1556 627.5 c 132
 1492.38951103 505.214318625 1428.37837181 359.766904624 1500 221 c 4
 1539.12813315 145.873984343 1643.51062271 75.2025800303 1749 144 c 4
 1830.66753846 197.178862255 1869.36040357 313.111485281 1844 446 c 4
 1818 580.666666667 1747 691 1631 777 c 5
EndSplineSet
LCarets2: 2 0 0
EndChar

StartChar: lhcil
Encoding: 169 3454 123
Width: 1929
GlyphClass: 3
Flags: HW
LayerCount: 2
Fore
SplineSet
1200 1344.5 m 132
 1200 1383.22558242 1232.18336768 1414 1271.5 1414 c 132
 1291.83333333 1414 1309 1406 1323 1390 c 4
 1403.6051795 1301.44783098 1465.01642978 1164.42955704 1448 1002 c 5
 1647.46912916 927.199076567 1801.78809857 734.276634027 1826 497 c 132
 1847.70365016 284.304228401 1762.17326612 113.15623196 1624.5 28.5 c 132
 1517.28753993 -37.4256742063 1379.3484594 -38.6197453901 1269.5 26.5 c 132
 1168.17854625 86.5648138975 1095.0892763 193.509820739 1079 331 c 132
 1064.70706426 453.139632672 1091.67012104 531.388848083 1126.5 611 c 132
 1153.54858449 672.82533597 1247.95590277 834.230439794 1274 895 c 5
 1120.05345648 898.1851009 999.446785987 800.020706887 960.5 670.5 c 132
 946.166666667 622.833333333 935.666666667 559.333333333 929 480 c 6
 926 439 l 6
 916.132799558 313.545594376 901.932832936 241.756398539 848.5 156 c 132
 769.858188692 29.7847472828 587.89670589 -72.6691988267 390 5.5 c 132
 207.939850038 77.4137592348 86.5221979636 272.457553568 101 501 c 4
 116.745802167 754.364271231 286.921368712 950.09016625 489 1028 c 4
 497 1031.33333333 508.166666667 1033 522.5 1033 c 132
 550.383722616 1033 585 998.752245609 585 971 c 4
 585 933 569.666666667 908.333333333 539 897 c 4
 376.427076357 834.765052668 253.622455879 685.196671777 240.5 478 c 132
 230.853321167 325.684018423 315.435068079 184.410775023 438.5 136.5 c 132
 482.166666667 119.5 523.333333333 114.333333333 562 121 c 4
 674 140.333333333 743.666666667 210.666666667 771 332 c 4
 777 358 782 397.666666667 786 451 c 5
 790 492 l 5
 805.543205711 681.344505939 833.001320042 788.472741701 935.5 897.5 c 132
 1020.72929964 988.157917449 1148.2094901 1048.1678603 1310 1033 c 5
 1316 1135 1285.66666667 1222.66666667 1219 1296 c 4
 1206.33333333 1309.33333333 1200 1325.5 1200 1344.5 c 132
1413 865 m 5
 1390.33786505 806.456151385 1312.13087884 667.035581906 1286 620 c 4
 1176.80878864 418.214641398 1197.43753024 234.047775738 1339 148 c 4
 1410.33333333 105.333333333 1482.33333333 106 1555 150 c 4
 1650.98592124 209.511271167 1702.22363763 332.835764879 1686.5 485 c 132
 1668.4446576 659.729119992 1557.5353798 803.495583063 1413 865 c 5
EndSplineSet
LCarets2: 2 0 0
EndChar

StartChar: r3cil
Encoding: 167 3452 124
Width: 1405
GlyphClass: 3
Flags: HW
LayerCount: 2
Fore
SplineSet
495 46 m 0
 495 14.9886319855 461.739434057 -19 431 -19 c 128
 415.666666667 -19 403 -16.3333333333 393 -11 c 0
 222.811246059 72.9444529573 77.3353027846 266.411156275 103 514 c 0
 117.666666667 656 179 774.166666667 287 868.5 c 128
 395 962.833333333 521 1013 665 1019 c 0
 715.666666667 1021 753.666666667 1019.5 779 1014.5 c 128
 804.333333333 1009.5 817 1007.66666667 817 1009 c 0
 840.378025435 1129.00719723 769.464820252 1232.00702279 695 1278 c 0
 672.333333333 1291.33333333 661 1309.33333333 661 1332 c 128
 661 1371.82894763 689.293276105 1408 726.5 1408 c 128
 742.833333333 1408 757 1404.33333333 769 1397 c 0
 888.370032232 1322.82832949 993.803005637 1162.25537107 951 963 c 1
 1055 916.333333333 1142.5 841 1213.5 737 c 128
 1284.5 633 1314.66666667 514.833333333 1304 382.5 c 128
 1288.42210776 189.236774455 1159.60493939 23.798791908 970 -11.5 c 128
 823.266216048 -38.8174597782 702.013060549 24.6121957572 629.5 101 c 128
 497.167202736 240.404015439 481.702540578 450.092231055 609 648 c 0
 644.098937701 702.463868846 729.930602559 816.6595451 763 873 c 1
 678.333333333 885.666666667 603.5 879.5 538.5 854.5 c 128
 473.5 829.5 425 803 393 775 c 0
 256.431370832 655.757241697 184.448695307 462.537406794 288.5 274 c 128
 327.5 203.333333333 383 150 455 114 c 0
 481.666666667 101.333333333 495 78.6666666667 495 46 c 0
901 831 m 1
 864.152257653 760.989289542 745.430847084 604.424116998 706 536 c 0
 660 455.333333333 649.166666667 375 673.5 295 c 128
 697.833333333 215 750.166666667 161.5 830.5 134.5 c 128
 910.833333333 107.5 984.666666667 120.833333333 1052 174.5 c 128
 1185.65317168 281.025547728 1201.4868664 505.956976785 1095.5 660 c 128
 1041.83333333 738 977 795 901 831 c 1
EndSplineSet
LCarets2: 2 0 0
EndChar

StartChar: k1u1
Encoding: 183 -1 125
Width: 1925
GlyphClass: 3
LigCaretCntFixed: 1
Flags: HW
LayerCount: 2
Fore
SplineSet
1684.5078125 160 m 4
 1685.50260417 198.666666667 1650.33333333 218.166666667 1579 218.5 c 132
 1507.66666667 218.833333333 1472.16927083 241.666666667 1472.5078125 287 c 4
 1472.8359375 328.333333333 1494.16927083 349.666666667 1536.5078125 351 c 6
 1590.5078125 352 l 6
 1654.8359375 353.333333333 1685.50260417 376.666666667 1682.5078125 422 c 4
 1678.8359375 487.333333333 1593.50260417 518.333333333 1426.5078125 515 c 5
 1432.51567954 294.033555892 1327.71421954 116.402138667 1173 34 c 132
 990.242726624 -63.3381129939 796.334875816 0.484250842049 678.5078125 139 c 5
 636.169270833 68.3333333333 575.169270833 21.3333333333 495.5078125 -2 c 4
 348.614450408 -44.2667199005 228.510519969 20.4502762522 160.5078125 109 c 4
 111.502604167 173.666666667 92.3359375 243.166666667 103.0078125 317.5 c 4
 114.3359375 391.833333333 143.8359375 453 191.5078125 501 c 4
 279.8359375 587.666666667 407.169270833 635.333333333 573.5078125 644 c 5
 592.502604167 725.333333333 623.8359375 793.333333333 667.5078125 848 c 4
 756.502604167 959.333333333 863.666666667 1015.66666667 989 1017 c 132
 1114.33333333 1018.33333333 1222.16927083 963.666666667 1312.5078125 853 c 4
 1356.16927083 799.666666667 1387.8359375 733.666666667 1407.5078125 655 c 5
 1530.47588912 657.876709094 1651.08145058 651.649269165 1722.5078125 597 c 4
 1827.40572406 517.153623597 1868.51037409 369.821683802 1756.5078125 288 c 5
 1801.50260417 258.666666667 1823 216.5 1821 161.5 c 132
 1816.75684736 44.8133023142 1745.84342581 4.40098192046 1648.5 -23.5 c 132
 1587.27945478 -41.0472900319 1386.02122582 -39.3636470998 1422.0078125 70.5 c 4
 1436.65804447 110.819637633 1475.98565838 128.190238661 1533 106.5 c 132
 1593.09949621 83.6360612228 1682.48086449 99.5066292414 1684.5078125 160 c 4
719.5078125 647 m 5
 1241.5078125 650 l 5
 1263.5078125 650 l 5
 1232.84114583 744 1179.5078125 810.333333333 1103.5078125 849 c 132
 1027.5078125 887.666666667 952.0078125 887.166666667 877.0078125 847.5 c 132
 802.0078125 807.833333333 749.5078125 741 719.5078125 647 c 5
697.5078125 507 m 5
 693.474215072 310.698258505 806.941578277 134.210932365 981.5078125 129 c 4
 1085.26837152 125.855740636 1166.01670132 185.837777687 1213.5078125 251 c 4
 1264.84114583 321 1289.17447917 407.333333333 1286.5078125 510 c 5
 899.841145833 508 703.5078125 507 697.5078125 507 c 5
557.5078125 502 m 5
 438.841145833 492.666666667 352.174479167 461.333333333 297.5078125 408 c 4
 241.196061467 351.688248967 216.971790879 265.768939855 273.0078125 192 c 132
 299.341145833 157.333333333 329.841145833 137 364.5078125 131 c 4
 489.238239154 109.363089254 591.806792631 195.431114808 583.5078125 313 c 4
 583.5078125 314 583.5078125 314 583.5078125 315 c 4
 565.5078125 373.666666667 556.841145833 436 557.5078125 502 c 5
EndSplineSet
LCarets2: 1 0
EndChar

StartChar: k1u2
Encoding: 184 -1 126
Width: 1933
GlyphClass: 3
LigCaretCntFixed: 1
Flags: HW
LayerCount: 2
Fore
SplineSet
1777 -389 m 2
 1803.69116673 -389 1833 -428.822472301 1833 -459 c 128
 1833 -497.303302632 1801.65714264 -528.425419185 1764 -529 c 2
 912 -542 l 1
 882 -542 l 2
 862 -542 791.333333333 -543.333333333 670 -546 c 128
 548.666666667 -548.666666667 453.5 -548.166666667 384.5 -544.5 c 128
 271.509296306 -538.495663089 174.776406052 -479.936775191 129.5 -393.5 c 128
 66.1354326236 -272.531280463 132.754528093 -155.9101568 230 -96 c 0
 288 -60.6666666667 361.453761522 -41.9130240856 450.361284567 -39.7390722569 c 128
 539.268807612 -37.5651204282 728.148379423 -35.3187630092 1017 -33 c 2
 1453 -29.5 l 2
 1609 -28.5 1688.66666667 18.6666666667 1692 112 c 0
 1694.62486169 183.863381743 1651.95819502 222.863381743 1564 229 c 1
 1497.33333333 229.666666667 1463.66666667 254 1463 302 c 0
 1462.33333333 346 1495.16666667 369 1561.5 371 c 128
 1627.83333333 373 1661.16666667 400.333333333 1661.5 453 c 0
 1661.83218396 501.498858394 1625.33218396 525.498858394 1552 525 c 2
 1405 524 l 1
 1411.01973947 308.794314034 1311.57647014 142.556798194 1168 59 c 128
 978.295023887 -51.4020762624 799.455553831 23.5444461687 671 152 c 0
 670.333333333 152.666666667 670 153.333333333 670 154 c 1
 612.882852914 60.4250994545 508.594978433 -7.79947141397 358.5 8 c 128
 288.833333333 15.3333333333 229.666666667 45.6666666667 181 99 c 0
 101 187 79.6666666667 285.333333333 117 394 c 0
 145.666666667 476.666666667 202.666666667 540.333333333 288 585 c 128
 373.333333333 629.666666667 460.666666667 652 550 652 c 0
 560 652 565 652.333333333 565 653 c 0
 604.333333333 801.666666667 679.666666667 907.666666667 791 971 c 0
 942.376354216 1056.48311767 1124.53103892 1024.31533683 1239.5 916.5 c 128
 1314.5 846.166666667 1363 762.666666667 1385 666 c 1
 1591 674 1721.33333333 623 1776 513 c 0
 1814.6747753 435.650449403 1776.09459835 332.586715151 1734 294 c 1
 1786.38115849 243.714087846 1836.33279176 153.100022875 1815 53 c 0
 1799 -23.6666666667 1760.66666667 -80.6666666667 1700 -118 c 128
 1639.33333333 -155.333333333 1575.33333333 -172.333333333 1508 -169 c 1
 1193.7059755 -171.910129856 823.313290625 -174.201769671 430 -180 c 0
 350.045968834 -181.095260701 252.700889945 -221.770132488 248 -291.5 c 128
 243.464332116 -358.779073611 325.40770101 -402.746923367 393 -405 c 0
 586.333333333 -412.333333333 686.5 -412.5 693.5 -405.5 c 0
 693.630469371 -405.369530629 765.797136038 -404.202863962 910 -402 c 2
 1761 -389 l 1
 1777 -389 l 2
1242 659 m 1
 1207.90534224 764.693439047 1106.03813838 881.500433391 974 880 c 1
 973 880 l 2
 933.666666667 879.333333333 895.333333333 868.333333333 858 847 c 0
 790 808.333333333 741.666666667 744.666666667 713 656 c 1
 830.333333333 658 931.333333333 659 1016 659 c 2
 1242 659 l 1
780 240 m 1
 844.140434352 162.115186859 986.244572321 113.648726411 1097 181 c 0
 1097.66666667 181.666666667 1098.33333333 182 1099 182 c 0
 1198.10969279 239.508093347 1267.86284243 367.269350976 1265 519 c 1
 1237.66666667 518.333333333 1149.83333333 518 1001.5 518 c 128
 853.166666667 518 749 517.333333333 689 516 c 1
 687 406 717.333333333 314.333333333 780 241 c 1
 780 240 l 1
544 512 m 1
 412.88979576 508.105637498 283.861417497 446.220957492 249 347 c 0
 249 346 249 346 249 345 c 0
 223.466844333 276.911584889 265.206654396 211.972713149 301 181.5 c 128
 325.666666667 160.5 352.333333333 149 381 147 c 0
 382.333333333 147 384 146.666666667 386 146 c 0
 460.438685889 134.913387208 523.117068574 185.861780957 552 234 c 128
 570 264 577.666666667 294.666666667 575 326 c 1
 575 327 l 1
 555.666666667 386.333333333 546.333333333 448 547 512 c 1
 544 512 l 1
EndSplineSet
LCarets2: 1 0
EndChar

StartChar: k1r1
Encoding: 185 -1 127
Width: 1920
GlyphClass: 3
LigCaretCntFixed: 1
Flags: HW
LayerCount: 2
Fore
SplineSet
814 971 m 4
 932.666666667 1034.33333333 1052 1035.66666667 1172 975 c 4
 1291.33924583 914.593715076 1381.5913932 795.844291631 1417 642 c 5
 1541.66666667 629.333333333 1643.33333333 573.166666667 1722 473.5 c 132
 1900.15301625 247.789187037 1810.49995633 -53.858477566 1652.5 -251.5 c 132
 1559.5 -367.833333333 1438 -453.666666667 1288 -509 c 4
 1184 -547.666666667 1084.83333333 -566 990.5 -564 c 132
 896.166666667 -562 828.666666667 -552.333333333 788 -535 c 4
 699.333333333 -497 649.333333333 -438.333333333 638 -359 c 4
 631.333333333 -311.666666667 640 -268 664 -228 c 4
 720 -134 824.333333333 -87.6666666667 977 -89 c 132
 1129.66666667 -90.3333333333 1232.33333333 -136 1285 -226 c 4
 1307 -263.333333333 1317.33333333 -302.666666667 1316 -344 c 5
 1484.39678257 -258.598774553 1650.20356667 -86.8365481391 1676 131 c 132
 1697.29360173 310.812636862 1591.29083586 470.627114327 1433 499 c 5
 1434.11118693 283.429735764 1329.00147231 110.254833981 1177.5 30 c 132
 993.590211015 -67.4224828139 798.406809848 -2.57852965688 681 136 c 5
 638.333333333 64.6666666667 577 17.3333333333 497 -6 c 4
 348.684809579 -48.3757686917 229.327589031 14.4616949656 160.5 105 c 132
 110.833333333 170.333333333 91.5 240.333333333 102.5 315 c 132
 113.5 389.666666667 143.333333333 451 192 499 c 4
 280.666666667 587 408.666666667 635 576 643 c 5
 611.585493085 793.931574118 698.06474845 909.363537151 814 971 c 4
1271 646 m 5
 1232.16246525 769.266958114 1128.19071501 880.182705551 994.5 878 c 132
 862.066513758 875.837820633 761.722731192 768.622344113 722 646 c 5
 1271 646 l 5
1293 506 m 5
 996 506 996 506 699 506 c 5
 695.836244467 350.975978879 760.46085546 223.163700252 863 162 c 4
 945.666666667 112.666666667 1029.66666667 110.333333333 1115 155 c 4
 1225.82615471 213.138310665 1296.12354867 346.699018074 1293 506 c 5
559 502 m 5
 439 493.333333333 351.666666667 461.333333333 297 406 c 4
 240.332709738 349.332709738 216.567583844 262.567546204 273 188.5 c 132
 299.666666667 153.5 330.333333333 133 365 127 c 4
 491.044180259 105.356049855 594.295898536 191.092120982 586 310 c 4
 586 311 586 311 586 312 c 4
 567.333333333 372 558.333333333 435.333333333 559 502 c 5
1165 -298 m 4
 1138.33333333 -253.333333333 1075.33333333 -230.5 976 -229.5 c 132
 876.666666667 -228.5 813.666666667 -250.333333333 787 -295 c 4
 769.666666667 -323.666666667 774 -352.333333333 800 -381 c 132
 826 -409.666666667 885 -424 977 -424 c 4
 1069 -424 1127.66666667 -410.333333333 1153 -383 c 132
 1178.33333333 -355.666666667 1182.33333333 -327.333333333 1165 -298 c 4
EndSplineSet
LCarets2: 1 0
EndChar

StartChar: k1k1
Encoding: 187 -1 129
Width: 2529
GlyphClass: 3
LigCaretCntFixed: 1
Flags: HW
LayerCount: 2
Fore
SplineSet
2031.98339844 -28.2294921875 m 132
 2002.7189204 -28.2294921875 1970.37890625 7.35604689906 1970.37890625 37.80078125 c 132
 1970.37890625 84.4717323422 1998.14469599 101.626719689 2041.828125 116.42578125 c 132
 2112.46914362 140.357528529 2194.53883689 218.070696847 2232.80957031 283.2109375 c 4
 2342.333828 469.637643841 2276.16069061 683.399150252 2140.78222656 793.4921875 c 132
 2064.53157552 855.501302083 1973.46516927 885.083984375 1867.58300781 882.240234375 c 132
 1761.70084635 879.395833333 1666.66764323 835.055989583 1582.48339844 749.220703125 c 4
 1550.51660156 716.627604167 1523.1110026 678.955078125 1500.26660156 636.203125 c 5
 1635.40983073 618.895833333 1736.82649739 578.230794271 1804.51660156 514.208007812 c 4
 1910.29720052 414.157877604 1946.3515625 304.626953125 1912.6796875 185.615234375 c 4
 1878.85093278 66.0453184725 1783.21779049 -20.9340248153 1629.70410156 -25.9990234375 c 132
 1499.85630256 -30.2814846309 1390.96643632 71.7983373257 1342.65332031 168.720703125 c 5
 1273.76788118 70.8756965123 1146.11033329 -24.589050652 986.768554688 -18.7666015625 c 132
 850.45258059 -13.7868692007 748.232600905 57.3860700597 684.026367188 133.369140625 c 5
 641.166992188 61.3157552083 579.401041667 13.7203776042 498.728515625 -9.4169921875 c 4
 350.056775455 -52.0562188849 229.275227737 12.0077839267 160.875 102.19921875 c 132
 111.335286458 167.521484375 92.0319010417 237.656575521 102.96484375 312.604492188 c 132
 113.897786458 387.552408855 143.656901041 449.180013021 192.2421875 497.487304688 c 4
 281.182291667 585.918294271 410.041341146 634.317708333 578.819335938 642.685546875 c 5
 597.958658854 724.934895833 629.331054687 793.419596354 672.936523438 848.139648438 c 4
 762.448242187 960.468424479 870.023763021 1017.44921875 995.663085938 1019.08203125 c 4
 1058.54264323 1019.89973958 1118.06412761 1006.0094401 1174.22753906 977.411132812 c 4
 1274.78808594 926.205403645 1348.10449219 844.738932291 1394.17675781 733.01171875 c 5
 1499.72680491 907.042013047 1760.71964878 1104.2510263 2060.82714844 994.7578125 c 132
 2190.22298177 947.548828125 2288.11295573 867.712565105 2354.49707031 755.249023438 c 132
 2420.88053385 642.784830729 2443.44466145 526.924479167 2422.18945312 407.66796875 c 132
 2400.93424479 288.410807291 2356.29166666 193.608072916 2288.26171875 123.259765625 c 132
 2220.23177084 52.9114583333 2145.48860677 3.78645833333 2064.03222656 -24.115234375 c 4
 2056.38639323 -26.8580729167 2045.70345052 -28.2294921875 2031.98339844 -28.2294921875 c 132
724.659179688 644.923828125 m 5
 1252.73925781 645.693359375 l 6
 1257.02623626 645.700368059 1272.53973602 645.661802555 1276.91503906 645.673828125 c 5
 1246.03417969 742.9609375 1191.83333333 811.341471355 1114.3125 850.815429688 c 132
 1036.79166667 890.289388021 960.017578125 889.756835938 883.990234375 849.217773438 c 132
 807.962890625 808.678710938 754.852539063 740.580729167 724.659179688 644.923828125 c 5
1252.94238281 505.693359375 m 6
 711.499023438 504.904296875 l 6
 709.851976365 504.902526808 703.532620979 504.87068206 701.967773438 504.865234375 c 4
 698.38633295 348.2933022 763.64643667 220.805863163 866.98046875 158.544921875 c 4
 949.858072917 108.609375 1034.3186849 106.535807292 1120.36230469 152.32421875 c 4
 1231.84113815 211.649024739 1302.72843528 344.453515333 1299.55761719 505.521484375 c 5
 1288.72578182 505.550570226 1264.23168118 505.710629551 1252.94238281 505.693359375 c 6
561.918945312 500.8828125 m 5
 441.167643229 491.984375 353.133789063 460.03515625 297.817382812 405.03515625 c 4
 240.48966731 348.037427598 216.989688102 259.895503025 273.555664062 185.30859375 c 132
 300.213216146 150.157552083 331.122395834 129.489583333 366.283203125 123.3046875 c 4
 497.069380188 100.298851918 592.954283176 189.837313743 588.540039062 310.060546875 c 5
 569.903971354 370.110026042 561.030273437 433.717447917 561.918945312 500.8828125 c 5
1449.58496094 500.263671875 m 5
 1410.27806306 328.924398385 1452.94374467 200.257939153 1558.16894531 133.8359375 c 132
 1594.70540364 110.7734375 1636.79915364 107.270507813 1684.45019531 123.327148438 c 132
 1732.10058594 139.384440105 1764.1077474 176.349934896 1780.47167969 234.223632812 c 132
 1796.83561198 292.096679687 1776.2594401 348.233723958 1718.74316406 402.634765625 c 132
 1661.22688802 457.03515625 1571.50748698 489.578125 1449.58496094 500.263671875 c 5
EndSplineSet
LCarets2: 2 0 0
EndChar

StartChar: k1k1u1
Encoding: 188 -1 130
Width: 2550
GlyphClass: 3
LigCaretCntFixed: 1
Flags: HW
LayerCount: 2
Fore
SplineSet
2083 373 m 6
 2045.72250559 373 2013 404.30404602 2013 441 c 132
 2013 477.204942451 2040.47909017 508.097490821 2073 512 c 5
 2099 516 l 6
 2102.33333333 516.666666667 2105.5 517 2108.5 517 c 132
 2135.93011765 517 2148.40799464 514.148361686 2181 526 c 132
 2240.81883639 547.752304142 2286.19489598 610.271922337 2278.5 678.5 c 132
 2266.95548063 780.86140509 2178.89259653 838.796295138 2083 867 c 132
 1941.37877676 908.653300953 1812.81179595 873.794653676 1702 813.5 c 132
 1634 776.5 1573.33333333 717.333333333 1520 636 c 5
 1645.33333333 617.333333333 1741 576.666666667 1807 514 c 4
 1911 416 1945.66666667 307.666666667 1911 189 c 4
 1878.51335332 78.0039571731 1783.67974068 -15.1796848847 1645 -22 c 4
 1495.40570472 -30.0861781235 1387.23974103 68.385113411 1337 165 c 5
 1266.81748429 67.6500588496 1143.47572962 -20.8601468649 986.5 -15.5 c 132
 850.777620651 -10.8655772905 747.701472996 60.3545008171 684 136 c 5
 641.333333333 64 579.666666667 16.6666666667 499 -6 c 4
 349.747422629 -48.0429795413 229.691023204 14.030807108 161 105 c 132
 111.666666667 170.333333333 92.5 240.5 103.5 315.5 c 132
 114.5 390.5 144.333333333 452 193 500 c 4
 281.666666667 588.666666667 410.333333333 637 579 645 c 5
 598.333333333 727 629.666666667 795.666666667 673 851 c 4
 762.333333333 963 869.666666667 1019.66666667 995 1021 c 4
 1057.66666667 1021.66666667 1117.33333333 1008 1174 980 c 4
 1282 925.333333333 1358 836 1402 712 c 5
 1467.33333333 812.666666667 1548.66666667 889.333333333 1646 942 c 4
 1805.33333333 1028.66666667 1970 1046.66666667 2140 996 c 4
 2206.66666667 976 2267.33333333 940.333333333 2322 889 c 132
 2376.66666667 837.666666667 2408.66666667 769.833333333 2418 685.5 c 132
 2427.33333333 601.166666667 2399.33333333 526.333333333 2334 461 c 5
 2394.66666667 420.333333333 2431.66666667 366.833333333 2445 300.5 c 132
 2473.50534262 158.685920447 2395.29040385 40.747137952 2305 -5 c 4
 2204.33333333 -56.3333333333 2107.66666667 -55 2015 -1 c 4
 1991.66666667 12.3333333333 1980 30.6666666667 1980 54 c 132
 1980 94.4168932363 2007.70849166 130 2045 130 c 132
 2061 130 2077.5 125 2094.5 115 c 132
 2134.83927241 91.2710162301 2192.96788034 95.4839401706 2237 117.5 c 132
 2286.81208207 142.406041033 2340.49343202 220.451136697 2296 300 c 132
 2262.61413225 359.68988476 2205.55168318 374.911033664 2110 373 c 5
 2083 373 l 6
725 648 m 5
 1001 648 1001 648 1276 648 c 5
 1245.33333333 745.333333333 1191.33333333 813.666666667 1114 853 c 132
 1036.66666667 892.333333333 960 891.833333333 884 851.5 c 132
 808 811.166666667 755 743.333333333 725 648 c 5
1299 508 m 5
 1001 508 1001 508 702 508 c 5
 698.815627423 350.904286218 763.668573018 224.355171455 867 162 c 4
 949.666666667 112 1034 110 1120 156 c 4
 1230.93488517 216.013954273 1301.09313164 346.828863968 1299 508 c 5
562 504 m 5
 441.333333333 495.333333333 353.333333333 463.333333333 298 408 c 4
 240.163723101 351.394282184 217.45613173 262.713827105 274 188.5 c 132
 300.666666667 153.5 331.666666667 133 367 127 c 4
 493.024881615 105.359363763 597.294850658 192.107140562 589 311 c 4
 589 312 589 312 589 313 c 4
 570.333333333 373 561.333333333 436.666666667 562 504 c 5
1455 503 m 5
 1404.28355705 351.953202533 1438.57304108 218.828182483 1525.5 153 c 132
 1559.83333333 127 1592.33333333 115 1623 117 c 4
 1718.93942838 121.679972116 1794.3950993 190.390417114 1781.5 289 c 132
 1775.83333333 332.333333333 1755.66666667 370.333333333 1721 403 c 4
 1663 458.333333333 1574.33333333 491.666666667 1455 503 c 5
EndSplineSet
LCarets2: 1 0
EndChar

StartChar: k1k1u2
Encoding: 189 -1 131
Width: 2523
GlyphClass: 3
LigCaretCntFixed: 1
Flags: HW
LayerCount: 2
Fore
SplineSet
2415 -481 m 132
 2415 -511.222539198 2385.7360031 -551 2359 -551 c 6
 2344 -551 l 5
 450 -547 l 6
 285.969475001 -547 204.588550209 -520.977734612 139.5 -435.5 c 132
 62.9508324304 -334.971575119 106.057792757 -213.215373504 196 -146.5 c 132
 256.666666667 -101.5 349.333333333 -80 474 -82 c 5
 604 -83 l 5
 1855 -74 l 6
 1974.33333333 -73.3333333333 2058 -62 2106 -40 c 4
 2196.66666667 1.33333333333 2252.5 59 2273.5 133 c 132
 2305.12606289 244.444221629 2252.35274903 331.867885626 2165.5 361.5 c 132
 2137.16666667 371.166666667 2091 379 2027 385 c 4
 1995.84237382 387.396740476 1964 417.027168827 1964 449 c 4
 1964 492.333333333 1983.66666667 517 2023 523 c 6
 2049 527 l 6
 2052.33333333 527.666666667 2055.16666667 528 2057.5 528 c 132
 2153.69181932 528 2229.2001378 593.598346359 2221.5 686 c 132
 2212.96854686 788.37743763 2125.86539572 848.046288705 2032.5 876 c 132
 1976.83333333 892.666666667 1917.66666667 897 1855 889 c 4
 1700.33333333 869 1577.66666667 787.333333333 1487 644 c 5
 1609 625.333333333 1702.33333333 585.666666667 1767 525 c 4
 1868.33333333 429 1902 322.666666667 1868 206 c 4
 1836.43141168 97.7648400501 1743.51205605 6.89044352783 1608 0 c 4
 1462.00247179 -6.6971343216 1358.46333229 87.2800019775 1309 181 c 5
 1239.80540356 86.8499753419 1120.85601883 1.4143194351 968 6 c 4
 852 10 754 59 674 153 c 5
 632 83.6666666667 572 38 494 16 c 4
 349.030050065 -26.0202753434 231.409618267 36.3638821444 164.5 124.5 c 132
 116.166666667 188.166666667 97.3333333333 256.666666667 108 330 c 132
 118.666666667 403.333333333 147.666666667 463.666666667 195 511 c 4
 281.666666667 597 406.666666667 644.333333333 570 653 c 5
 588.666666667 732.333333333 619.333333333 798.666666667 662 852 c 4
 749.333333333 961.333333333 854 1016.66666667 976 1018 c 4
 1037.33333333 1018.66666667 1095.33333333 1005 1150 977 c 4
 1253.33333333 924.333333333 1327 839.666666667 1371 723 c 5
 1433.66666667 821.666666667 1511.66666667 897.333333333 1605 950 c 4
 1760.33333333 1038 1922 1056.33333333 2090 1005 c 4
 2156 985 2216 948.166666667 2270 894.5 c 132
 2324 840.833333333 2354.33333333 771.833333333 2361 687.5 c 132
 2367.66666667 603.166666667 2337.33333333 529.333333333 2270 466 c 5
 2383.09904627 400.02555634 2458.13772508 269.212515578 2408.5 97 c 132
 2363.94651106 -57.5733289781 2228.99882249 -162.981131722 2067 -196 c 4
 2011 -207.333333333 1940.66666667 -213.333333333 1856 -214 c 6
 605 -223 l 5
 476 -223 l 6
 351.333333333 -223.666666667 275.666666667 -246 249 -290 c 4
 216.79421513 -343.139545036 273.440627781 -376.508220397 306.5 -391 c 132
 330.833333333 -401.666666667 379 -407 451 -407 c 6
 2344 -411 l 6
 2383.18061622 -411 2415 -442.116577151 2415 -481 c 132
1090 851 m 132
 1016 889 942.5 888.5 869.5 849.5 c 132
 796.5 810.5 745.333333333 745.666666667 716 655 c 5
 1226 656 l 6
 1236 656 1236 656 1246 656 c 5
 1216 748 1164 813 1090 851 c 132
1269 515 m 5
 981 515 981 515 693 515 c 5
 688.953438768 323.462768374 801.591119615 152.465987801 971 146 c 4
 1072.4369467 142.878863179 1150.41422864 201.776453157 1197 265 c 4
 1246.33333333 333 1270.33333333 416.333333333 1269 515 c 5
553 511 m 5
 437.666666667 502.333333333 353.333333333 471.333333333 300 418 c 4
 244.826593568 362.826593568 223.059027801 279.184713054 277 207.5 c 132
 302.333333333 173.833333333 332 154 366 148 c 4
 452.666666667 132.666666667 515.666666667 159 555 227 c 4
 573.666666667 259 581.666666667 292 579 326 c 5
 579 327 l 5
 561 385 552.333333333 446.333333333 553 511 c 5
1425 510 m 5
 1378.42498602 362.512455742 1410.28009468 238.15013066 1493 174 c 4
 1554.33333333 127.333333333 1615.33333333 124.666666667 1676 166 c 4
 1710.66666667 189.333333333 1731.66666667 225.5 1739 274.5 c 132
 1746.33333333 323.5 1724.33333333 372.333333333 1673 421 c 132
 1621.66666667 469.666666667 1539 499.333333333 1425 510 c 5
EndSplineSet
LCarets2: 1 3
EndChar

